GeoramaExtraCondensed-Black.ufo
<glyph name="numbersign" format="2">
  <advance width="420"/>
  <unicode hex="0023"/>
  <outline>
    <contour>
      <point x="36" y="389" type="line"/>
      <point x="73" y="389" type="line"/>
      <point x="69" y="299" type="line"/>
      <point x="26" y="299" type="line"/>
      <point x="26" y="140" type="line"/>
      <point x="61" y="140" type="line"/>
      <point x="54" y="0" type="line"/>
      <point x="179" y="0" type="line"/>
      <point x="186" y="140" type="line"/>
      <point x="215" y="140" type="line"/>
      <point x="208" y="0" type="line"/>
      <point x="333" y="0" type="line"/>
      <point x="340" y="140" type="line"/>
      <point x="384" y="140" type="line"/>
      <point x="384" y="299" type="line"/>
      <point x="348" y="299" type="line"/>
      <point x="352" y="389" type="line"/>
      <point x="394" y="389" type="line"/>
      <point x="394" y="550" type="line"/>
      <point x="360" y="550" type="line"/>
      <point x="368" y="700" type="line"/>
      <point x="243" y="700" type="line"/>
      <point x="235" y="550" type="line"/>
      <point x="206" y="550" type="line"/>
      <point x="214" y="700" type="line"/>
      <point x="89" y="700" type="line"/>
      <point x="81" y="550" type="line"/>
      <point x="36" y="550" type="line"/>
    </contour>
    <contour>
      <point x="198" y="389" type="line"/>
      <point x="227" y="389" type="line"/>
      <point x="223" y="299" type="line"/>
      <point x="194" y="299" type="line"/>
    </contour>
  </outline>
</glyph>
<glyph name="ampersand" format="2">
  <advance width="517"/>
  <unicode hex="0026"/>
  <outline>
    <contour>
      <point x="338" y="0" type="line"/>
      <point x="521" y="0" type="line"/>
      <point x="258" y="437" type="line" smooth="yes"/>
      <point x="239" y="468"/>
      <point x="228" y="492"/>
      <point x="228" y="508" type="curve" smooth="yes"/>
      <point x="228" y="528"/>
      <point x="234" y="537"/>
      <point x="248" y="537" type="curve" smooth="yes"/>
      <point x="262" y="537"/>
      <point x="267" y="526"/>
      <point x="267" y="504" type="curve" smooth="yes"/>
      <point x="267" y="490"/>
      <point x="268" y="481"/>
      <point x="260" y="472" type="curve"/>
      <point x="316" y="373" type="line"/>
      <point x="374" y="400"/>
      <point x="413" y="455"/>
      <point x="413" y="543" type="curve" smooth="yes"/>
      <point x="413" y="658"/>
      <point x="351" y="710"/>
      <point x="246" y="710" type="curve" smooth="yes"/>
      <point x="120" y="710"/>
      <point x="56" y="636"/>
      <point x="56" y="517" type="curve" smooth="yes"/>
      <point x="56" y="455"/>
      <point x="84" y="397"/>
      <point x="117" y="345" type="curve" smooth="yes"/>
    </contour>
    <contour>
      <point x="200" y="-10" type="curve" smooth="yes"/>
      <point x="259" y="-10"/>
      <point x="307" y="14"/>
      <point x="339" y="56" type="curve"/>
      <point x="271" y="167" type="line"/>
      <point x="263" y="154"/>
      <point x="250" y="143"/>
      <point x="222" y="143" type="curve" smooth="yes"/>
      <point x="191" y="143"/>
      <point x="167" y="168"/>
      <point x="167" y="205" type="curve" smooth="yes"/>
      <point x="167" y="235"/>
      <point x="178" y="252"/>
      <point x="197" y="266" type="curve"/>
      <point x="123" y="395" type="line"/>
      <point x="38" y="343"/>
      <point x="6" y="271"/>
      <point x="6" y="186" type="curve" smooth="yes"/>
      <point x="6" y="66"/>
      <point x="85" y="-10"/>
    </contour>
    <contour>
      <point x="425" y="133" type="line"/>
      <point x="457" y="186"/>
      <point x="472" y="239"/>
      <point x="472" y="296" type="curve" smooth="yes"/>
      <point x="472" y="317"/>
      <point x="471" y="338"/>
      <point x="469" y="358" type="curve"/>
      <point x="334" y="358" type="line"/>
      <point x="335" y="349"/>
      <point x="336" y="338"/>
      <point x="336" y="325" type="curve" smooth="yes"/>
      <point x="336" y="311"/>
      <point x="333" y="302"/>
      <point x="329" y="292" type="curve"/>
    </contour>
  </outline>
</glyph>
<glyph name="parenleft" format="2">
  <advance width="239"/>
  <unicode hex="0028"/>
  <outline>
    <contour>
      <point x="14" y="265" type="curve" smooth="yes"/>
      <point x="14" y="-20"/>
      <point x="74" y="-197"/>
      <point x="231" y="-220" type="curve"/>
      <point x="231" y="-62" type="line"/>
      <point x="178" y="-30"/>
      <point x="154" y="20"/>
      <point x="154" y="265" type="curve" smooth="yes"/>
      <point x="154" y="510"/>
      <point x="178" y="560"/>
      <point x="231" y="592" type="curve"/>
      <point x="231" y="750" type="line"/>
      <point x="74" y="727"/>
      <point x="14" y="550"/>
    </contour>
  </outline>
</glyph>
<glyph name="comma" format="2">
  <advance width="200"/>
  <unicode hex="002C"/>
  <outline>
    <contour>
      <point x="15" y="111" type="line"/>
      <point x="21" y="70"/>
      <point x="21" y="36"/>
      <point x="21" y="23" type="curve" smooth="yes"/>
      <point x="21" y="-24"/>
      <point x="3" y="-82"/>
      <point x="-22" y="-141" type="curve"/>
      <point x="109" y="-177" type="line"/>
      <point x="161" y="-99"/>
      <point x="185" y="-45"/>
      <point x="185" y="28" type="curve" smooth="yes"/>
      <point x="185" y="65"/>
      <point x="179" y="91"/>
      <point x="174" y="112" type="curve"/>
    </contour>
  </outline>
</glyph>
<glyph name="hyphen" format="2">
  <advance width="317"/>
  <unicode hex="002D"/>
  <outline>
    <contour>
      <point x="33" y="234" type="line"/>
      <point x="284" y="234" type="line"/>
      <point x="284" y="408" type="line"/>
      <point x="33" y="408" type="line"/>
    </contour>
  </outline>
</glyph>
<glyph name="period" format="2">
  <advance width="200"/>
  <unicode hex="002E"/>
  <outline>
    <contour>
      <point x="7" y="110" type="curve" smooth="yes"/>
      <point x="7" y="32"/>
      <point x="35" y="-7"/>
      <point x="100" y="-7" type="curve" smooth="yes"/>
      <point x="165" y="-7"/>
      <point x="193" y="32"/>
      <point x="193" y="110" type="curve" smooth="yes"/>
      <point x="193" y="189"/>
      <point x="165" y="228"/>
      <point x="100" y="228" type="curve" smooth="yes"/>
      <point x="35" y="228"/>
      <point x="7" y="189"/>
    </contour>
  </outline>
</glyph>
<glyph name="slash" format="2">
  <advance width="390"/>
  <unicode hex="002F"/>
  <outline>
    <contour>
      <point x="-10" y="-210" type="line"/>
      <point x="139" y="-210" type="line"/>
      <point x="400" y="740" type="line"/>
      <point x="250" y="740" type="line"/>
    </contour>
  </outline>
</glyph>
<glyph name="four" format="2">
  <advance width="420"/>
  <unicode hex="0034"/>
  <outline>
    <contour>
      <point x="20" y="77" type="line"/>
      <point x="175" y="77" type="line"/>
      <point x="175" y="0" type="line"/>
      <point x="361" y="0" type="line"/>
      <point x="361" y="77" type="line"/>
      <point x="409" y="77" type="line"/>
      <point x="409" y="236" type="line"/>
      <point x="361" y="236" type="line"/>
      <point x="361" y="700" type="line"/>
      <point x="147" y="700" type="line"/>
      <point x="20" y="248" type="line"/>
    </contour>
    <contour>
      <point x="123" y="236" type="line"/>
      <point x="185" y="478" type="line"/>
      <point x="185" y="236" type="line"/>
    </contour>
  </outline>
</glyph>
<glyph name="eight" format="2">
  <advance width="420"/>
  <unicode hex="0038"/>
  <outline>
    <contour>
      <point x="201" y="419" type="curve"/>
      <point x="287" y="349" type="line"/>
      <point x="358" y="407"/>
      <point x="392" y="467"/>
      <point x="392" y="536" type="curve" smooth="yes"/>
      <point x="392" y="643"/>
      <point x="325" y="710"/>
      <point x="216" y="710" type="curve" smooth="yes"/>
      <point x="92" y="710"/>
      <point x="24" y="641"/>
      <point x="24" y="514" type="curve" smooth="yes"/>
      <point x="24" y="304"/>
      <point x="237" y="293"/>
      <point x="237" y="183" type="curve" smooth="yes"/>
      <point x="237" y="159"/>
      <point x="228" y="146"/>
      <point x="213" y="146" type="curve" smooth="yes"/>
      <point x="195" y="146"/>
      <point x="184" y="162"/>
      <point x="184" y="195" type="curve" smooth="yes"/>
      <point x="184" y="236"/>
      <point x="196" y="255"/>
      <point x="220" y="286" type="curve"/>
      <point x="124" y="367" type="line"/>
      <point x="52" y="321"/>
      <point x="16" y="260"/>
      <point x="16" y="183" type="curve" smooth="yes"/>
      <point x="16" y="60"/>
      <point x="86" y="-10"/>
      <point x="207" y="-10" type="curve" smooth="yes"/>
      <point x="335" y="-10"/>
      <point x="405" y="60"/>
      <point x="405" y="190" type="curve" smooth="yes"/>
      <point x="405" y="418"/>
      <point x="188" y="407"/>
      <point x="188" y="516" type="curve" smooth="yes"/>
      <point x="188" y="535"/>
      <point x="197" y="550"/>
      <point x="209" y="550" type="curve" smooth="yes"/>
      <point x="227" y="550"/>
      <point x="236" y="535"/>
      <point x="236" y="505" type="curve" smooth="yes"/>
      <point x="236" y="465"/>
      <point x="228" y="445"/>
    </contour>
  </outline>
</glyph>
<glyph name="nine" format="2">
  <advance width="420"/>
  <unicode hex="0039"/>
  <outline>
    <contour>
      <point x="172" y="-10" type="curve" smooth="yes"/>
      <point x="327" y="-10"/>
      <point x="411" y="125"/>
      <point x="411" y="375" type="curve" smooth="yes"/>
      <point x="411" y="604"/>
      <point x="349" y="710"/>
      <point x="215" y="710" type="curve" smooth="yes"/>
      <point x="81" y="710"/>
      <point x="18" y="627"/>
      <point x="18" y="451" type="curve" smooth="yes"/>
      <point x="18" y="316"/>
      <point x="68" y="235"/>
      <point x="152" y="235" type="curve" smooth="yes"/>
      <point x="189" y="235"/>
      <point x="215" y="243"/>
      <point x="242" y="265" type="curve"/>
      <point x="249" y="404" type="line"/>
      <point x="237" y="389"/>
      <point x="228" y="379"/>
      <point x="215" y="379" type="curve" smooth="yes"/>
      <point x="202" y="379"/>
      <point x="194" y="404"/>
      <point x="194" y="457" type="curve" smooth="yes"/>
      <point x="194" y="527"/>
      <point x="200" y="549"/>
      <point x="213" y="549" type="curve" smooth="yes"/>
      <point x="226" y="549"/>
      <point x="227" y="537"/>
      <point x="227" y="336" type="curve" smooth="yes"/>
      <point x="227" y="227"/>
      <point x="232" y="163"/>
      <point x="140" y="163" type="curve" smooth="yes"/>
      <point x="116" y="163"/>
      <point x="89" y="172"/>
      <point x="74" y="185" type="curve"/>
      <point x="20" y="30" type="line"/>
      <point x="49" y="8"/>
      <point x="118" y="-10"/>
    </contour>
  </outline>
</glyph>
<glyph name="greater" format="2">
  <advance width="420"/>
  <unicode hex="003E"/>
  <outline>
    <contour>
      <point x="399" y="233" type="line"/>
      <point x="399" y="391" type="line"/>
      <point x="21" y="516" type="line"/>
      <point x="21" y="375" type="line"/>
      <point x="235" y="312" type="line"/>
      <point x="21" y="250" type="line"/>
      <point x="21" y="108" type="line"/>
    </contour>
  </outline>
</glyph>
<glyph name="B" format="2">
  <advance width="427"/>
  <unicode hex="0042"/>
  <anchor x="214" y="700" name="top"/>
  <anchor x="214" y="0" name="bottom"/>
  <outline>
    <contour>
      <point x="22" y="5" type="line"/>
      <point x="135" y="-8"/>
      <point x="138" y="-10"/>
      <point x="213" y="-10" type="curve" smooth="yes"/>
      <point x="357" y="-10"/>
      <point x="421" y="58"/>
      <point x="421" y="213" type="curve" smooth="yes"/>
      <point x="421" y="287"/>
      <point x="392" y="353"/>
      <point x="343" y="390" type="curve"/>
      <point x="343" y="392" type="line"/>
      <point x="379" y="425"/>
      <point x="399" y="476"/>
      <point x="399" y="536" type="curve" smooth="yes"/>
      <point x="399" y="653"/>
      <point x="338" y="710"/>
      <point x="213" y="710" type="curve" smooth="yes"/>
      <point x="164" y="710"/>
      <point x="100" y="705"/>
      <point x="22" y="695" type="curve"/>
    </contour>
    <contour>
      <point x="198" y="424" type="line"/>
      <point x="198" y="535" type="line"/>
      <point x="204" y="538"/>
      <point x="210" y="539"/>
      <point x="217" y="539" type="curve" smooth="yes"/>
      <point x="235" y="539"/>
      <point x="244" y="519"/>
      <point x="244" y="477" type="curve" smooth="yes"/>
      <point x="244" y="439"/>
      <point x="236" y="424"/>
      <point x="215" y="424" type="curve" smooth="yes"/>
    </contour>
    <contour>
      <point x="198" y="163" type="curve"/>
      <point x="198" y="277" type="line"/>
      <point x="212" y="277" type="line" smooth="yes"/>
      <point x="238" y="277"/>
      <point x="248" y="260"/>
      <point x="248" y="218" type="curve" smooth="yes"/>
      <point x="248" y="178"/>
      <point x="239" y="160"/>
      <point x="218" y="160" type="curve" smooth="yes"/>
      <point x="211" y="160"/>
      <point x="205" y="161"/>
    </contour>
  </outline>
</glyph>
<glyph name="G" format="2">
  <advance width="418"/>
  <unicode hex="0047"/>
  <anchor x="218" y="700" name="top"/>
  <anchor x="218" y="0" name="bottom"/>
  <outline>
    <contour>
      <point x="9" y="352" type="curve" smooth="yes"/>
      <point x="9" y="102"/>
      <point x="71" y="-10"/>
      <point x="209" y="-10" type="curve" smooth="yes"/>
      <point x="285" y="-10"/>
      <point x="344" y="8"/>
      <point x="401" y="48" type="curve"/>
      <point x="401" y="415" type="line"/>
      <point x="209" y="415" type="line"/>
      <point x="209" y="244" type="line"/>
      <point x="240" y="244" type="line"/>
      <point x="240" y="167" type="line"/>
      <point x="235" y="162"/>
      <point x="225" y="159"/>
      <point x="214" y="159" type="curve" smooth="yes"/>
      <point x="191" y="159"/>
      <point x="184" y="198"/>
      <point x="184" y="338" type="curve" smooth="yes"/>
      <point x="184" y="478"/>
      <point x="204" y="534"/>
      <point x="255" y="534" type="curve" smooth="yes"/>
      <point x="285" y="534"/>
      <point x="328" y="525"/>
      <point x="351" y="515" type="curve"/>
      <point x="382" y="682" type="line"/>
      <point x="352" y="697"/>
      <point x="280" y="710"/>
      <point x="233" y="710" type="curve" smooth="yes"/>
      <point x="77" y="710"/>
      <point x="9" y="597"/>
    </contour>
  </outline>
</glyph>
<glyph name="J" format="2">
  <advance width="311"/>
  <unicode hex="004A"/>
  <anchor x="170" y="700" name="top"/>
  <outline>
    <contour>
      <point x="0" y="24" type="line"/>
      <point x="32" y="6"/>
      <point x="76" y="-10"/>
      <point x="138" y="-10" type="curve" smooth="yes"/>
      <point x="233" y="-10"/>
      <point x="291" y="60"/>
      <point x="291" y="195" type="curve" smooth="yes"/>
      <point x="291" y="700" type="line"/>
      <point x="42" y="700" type="line"/>
      <point x="42" y="518" type="line"/>
      <point x="116" y="518" type="line"/>
      <point x="116" y="268" type="line" smooth="yes"/>
      <point x="116" y="181"/>
      <point x="102" y="166"/>
      <point x="69" y="166" type="curve" smooth="yes"/>
      <point x="59" y="166"/>
      <point x="42" y="171"/>
      <point x="29" y="176" type="curve"/>
    </contour>
  </outline>
</glyph>
<glyph name="K" format="2">
  <advance width="468"/>
  <unicode hex="004B"/>
  <anchor x="234" y="700" name="top"/>
  <anchor x="246" y="0" name="bottom"/>
  <outline>
    <contour>
      <point x="417" y="-10" type="curve" smooth="yes"/>
      <point x="426" y="-10"/>
      <point x="434" y="-10"/>
      <point x="445" y="-8" type="curve"/>
      <point x="445" y="213" type="line"/>
      <point x="442" y="213"/>
      <point x="438" y="213"/>
      <point x="435" y="213" type="curve" smooth="yes"/>
      <point x="422" y="213"/>
      <point x="403" y="222"/>
      <point x="355" y="279" type="curve" smooth="yes"/>
      <point x="198" y="465" type="line"/>
      <point x="198" y="700" type="line"/>
      <point x="22" y="700" type="line"/>
      <point x="22" y="0" type="line"/>
      <point x="198" y="0" type="line"/>
      <point x="198" y="176" type="line"/>
      <point x="295" y="52" type="line" smooth="yes"/>
      <point x="325" y="14"/>
      <point x="362" y="-10"/>
    </contour>
    <contour>
      <point x="288" y="264" type="line"/>
      <point x="388" y="379"/>
      <point x="450" y="503"/>
      <point x="470" y="663" type="curve"/>
      <point x="305" y="700" type="line"/>
      <point x="291" y="577"/>
      <point x="227" y="460"/>
      <point x="190" y="409" type="curve"/>
    </contour>
  </outline>
</glyph>
<glyph name="M" format="2">
  <advance width="542"/>
  <unicode hex="004D"/>
  <outline>
    <contour>
      <point x="22" y="0" type="line"/>
      <point x="179" y="0" type="line"/>
      <point x="179" y="373" type="line"/>
      <point x="225" y="130" type="line"/>
      <point x="315" y="130" type="line"/>
      <point x="363" y="373" type="line"/>
      <point x="363" y="0" type="line"/>
      <point x="520" y="0" type="line"/>
      <point x="520" y="700" type="line"/>
      <point x="337" y="700" type="line"/>
      <point x="274" y="414" type="line"/>
      <point x="211" y="700" type="line"/>
      <point x="22" y="700" type="line"/>
    </contour>
  </outline>
</glyph>
<glyph name="N" format="2">
  <advance width="452"/>
  <unicode hex="004E"/>
  <anchor x="226" y="700" name="top"/>
  <anchor x="226" y="0" name="bottom"/>
  <outline>
    <contour>
      <point x="22" y="0" type="line"/>
      <point x="176" y="0" type="line"/>
      <point x="176" y="276" type="line"/>
      <point x="247" y="0" type="line"/>
      <point x="430" y="0" type="line"/>
      <point x="430" y="700" type="line"/>
      <point x="276" y="700" type="line"/>
      <point x="276" y="394" type="line"/>
      <point x="206" y="700" type="line"/>
      <point x="22" y="700" type="line"/>
    </contour>
  </outline>
</glyph>
<glyph name="O" format="2">
  <advance width="421"/>
  <unicode hex="004F"/>
  <anchor x="305" y="12" name="ogonek"/>
  <anchor x="211" y="700" name="top"/>
  <anchor x="329" y="700" name="topright"/>
  <anchor x="210" y="0" name="bottom"/>
  <outline>
    <contour>
      <point x="211" y="161" type="curve" smooth="yes"/>
      <point x="189" y="161"/>
      <point x="189" y="188"/>
      <point x="189" y="349" type="curve" smooth="yes"/>
      <point x="189" y="510"/>
      <point x="190" y="539"/>
      <point x="211" y="539" type="curve" smooth="yes"/>
      <point x="233" y="539"/>
      <point x="233" y="512"/>
      <point x="233" y="351" type="curve" smooth="yes"/>
      <point x="233" y="190"/>
      <point x="232" y="161"/>
    </contour>
    <contour>
      <point x="210" y="-10" type="curve" smooth="yes"/>
      <point x="351" y="-10"/>
      <point x="412" y="77"/>
      <point x="412" y="352" type="curve" smooth="yes"/>
      <point x="412" y="625"/>
      <point x="352" y="710"/>
      <point x="211" y="710" type="curve" smooth="yes"/>
      <point x="70" y="710"/>
      <point x="9" y="623"/>
      <point x="9" y="348" type="curve" smooth="yes"/>
      <point x="9" y="75"/>
      <point x="69" y="-10"/>
    </contour>
  </outline>
</glyph>
<glyph name="Q" format="2">
  <advance width="421"/>
  <unicode hex="0051"/>
  <outline>
    <contour>
      <point x="340" y="58" type="curve"/>
      <point x="213" y="13" type="line"/>
      <point x="228" y="-104"/>
      <point x="256" y="-160"/>
      <point x="341" y="-160" type="curve" smooth="yes"/>
      <point x="367" y="-160"/>
      <point x="392" y="-154"/>
      <point x="410" y="-147" type="curve"/>
      <point x="392" y="31" type="line"/>
      <point x="386" y="28"/>
      <point x="378" y="25"/>
      <point x="369" y="25" type="curve" smooth="yes"/>
      <point x="353" y="25"/>
      <point x="347" y="42"/>
    </contour>
    <component base="O"/>
  </outline>
</glyph>
<glyph name="S" format="2">
  <advance width="404"/>
  <unicode hex="0053"/>
  <anchor x="202" y="700" name="top"/>
  <anchor x="195" y="0" name="bottom"/>
  <outline>
    <contour>
      <point x="384" y="674" type="line"/>
      <point x="357" y="691"/>
      <point x="280" y="710"/>
      <point x="220" y="710" type="curve" smooth="yes"/>
      <point x="48" y="710"/>
      <point x="7" y="595"/>
      <point x="7" y="502" type="curve" smooth="yes"/>
      <point x="7" y="395"/>
      <point x="59" y="337"/>
      <point x="112" y="298" type="curve" smooth="yes"/>
      <point x="168" y="256"/>
      <point x="225" y="236"/>
      <point x="225" y="198" type="curve" smooth="yes"/>
      <point x="225" y="172"/>
      <point x="204" y="158"/>
      <point x="164" y="158" type="curve" smooth="yes"/>
      <point x="130" y="158"/>
      <point x="89" y="168"/>
      <point x="34" y="188" type="curve"/>
      <point x="0" y="32" type="line"/>
      <point x="63" y="0"/>
      <point x="122" y="-10"/>
      <point x="173" y="-10" type="curve" smooth="yes"/>
      <point x="331" y="-10"/>
      <point x="397" y="85"/>
      <point x="397" y="205" type="curve" smooth="yes"/>
      <point x="397" y="320"/>
      <point x="337" y="372"/>
      <point x="280" y="408" type="curve" smooth="yes"/>
      <point x="230" y="440"/>
      <point x="183" y="459"/>
      <point x="183" y="497" type="curve" smooth="yes"/>
      <point x="183" y="526"/>
      <point x="202" y="536"/>
      <point x="241" y="536" type="curve" smooth="yes"/>
      <point x="269" y="536"/>
      <point x="305" y="532"/>
      <point x="349" y="515" type="curve"/>
    </contour>
  </outline>
</glyph>
<glyph name="U" format="2">
  <advance width="429"/>
  <unicode hex="0055"/>
  <anchor x="299" y="2" name="ogonek"/>
  <anchor x="215" y="700" name="top"/>
  <anchor x="409" y="700" name="topright"/>
  <anchor x="215" y="0" name="bottom"/>
  <outline>
    <contour>
      <point x="20" y="204" type="line"/>
      <point x="20" y="48"/>
      <point x="89" y="-10"/>
      <point x="213" y="-10" type="curve" smooth="yes"/>
      <point x="344" y="-10"/>
      <point x="409" y="48"/>
      <point x="409" y="204" type="curve" smooth="yes"/>
      <point x="409" y="700" type="line"/>
      <point x="232" y="700" type="line"/>
      <point x="232" y="179" type="line" smooth="yes"/>
      <point x="232" y="164"/>
      <point x="228" y="156"/>
      <point x="213" y="156" type="curve" smooth="yes"/>
      <point x="199" y="156"/>
      <point x="195" y="164"/>
      <point x="195" y="179" type="curve" smooth="yes"/>
      <point x="195" y="700" type="line"/>
      <point x="20" y="700" type="line"/>
    </contour>
  </outline>
</glyph>
<glyph name="W" format="2">
  <advance width="581"/>
  <unicode hex="0057"/>
  <anchor x="291" y="700" name="top"/>
  <anchor x="291" y="0" name="bottom"/>
  <outline>
    <contour>
      <point x="504" y="0" type="line"/>
      <point x="583" y="700" type="line"/>
      <point x="390" y="700" type="line"/>
      <point x="391" y="175" type="line"/>
      <point x="354" y="644" type="line"/>
      <point x="227" y="644" type="line"/>
      <point x="190" y="176" type="line"/>
      <point x="191" y="700" type="line"/>
      <point x="-2" y="700" type="line"/>
      <point x="77" y="0" type="line"/>
      <point x="267" y="0" type="line"/>
      <point x="291" y="353" type="line"/>
      <point x="313" y="0" type="line"/>
    </contour>
  </outline>
</glyph>
<glyph name="backslash" format="2">
  <advance width="390"/>
  <unicode hex="005C"/>
  <outline>
    <contour>
      <point x="140" y="740" type="line"/>
      <point x="-10" y="740" type="line"/>
      <point x="251" y="-210" type="line"/>
      <point x="400" y="-210" type="line"/>
    </contour>
  </outline>
</glyph>
<glyph name="a" format="2">
  <advance width="417"/>
  <unicode hex="0061"/>
  <anchor x="414" y="15" name="ogonek"/>
  <anchor x="209" y="0" name="bottom"/>
  <anchor x="199" y="550" name="top"/>
  <outline>
    <contour>
      <point x="4" y="164" type="curve" smooth="yes"/>
      <point x="4" y="79"/>
      <point x="34" y="-10"/>
      <point x="122" y="-10" type="curve" smooth="yes"/>
      <point x="171" y="-10"/>
      <point x="193" y="3"/>
      <point x="220" y="32" type="curve"/>
      <point x="239" y="5"/>
      <point x="266" y="-10"/>
      <point x="315" y="-10" type="curve" smooth="yes"/>
      <point x="361" y="-10"/>
      <point x="390" y="2"/>
      <point x="414" y="15" type="curve"/>
      <point x="403" y="175" type="line"/>
      <point x="400" y="174"/>
      <point x="394" y="173"/>
      <point x="390" y="173" type="curve" smooth="yes"/>
      <point x="386" y="173"/>
      <point x="380" y="177"/>
      <point x="380" y="198" type="curve" smooth="yes"/>
      <point x="380" y="349" type="line" smooth="yes"/>
      <point x="380" y="481"/>
      <point x="327" y="560"/>
      <point x="176" y="560" type="curve" smooth="yes"/>
      <point x="132" y="560"/>
      <point x="64" y="546"/>
      <point x="19" y="526" type="curve"/>
      <point x="56" y="359" type="line"/>
      <point x="112" y="377"/>
      <point x="138" y="380"/>
      <point x="160" y="380" type="curve" smooth="yes"/>
      <point x="185" y="380"/>
      <point x="208" y="369"/>
      <point x="208" y="346" type="curve"/>
      <point x="208" y="345" type="line"/>
      <point x="77" y="326"/>
      <point x="4" y="290"/>
    </contour>
    <contour>
      <point x="175" y="182" type="curve" smooth="yes"/>
      <point x="175" y="226"/>
      <point x="187" y="236"/>
      <point x="208" y="238" type="curve"/>
      <point x="208" y="131" type="line"/>
      <point x="205" y="127"/>
      <point x="197" y="125"/>
      <point x="194" y="125" type="curve" smooth="yes"/>
      <point x="184" y="125"/>
      <point x="175" y="137"/>
    </contour>
  </outline>
</glyph>
<glyph name="b" format="2">
  <advance width="415"/>
  <unicode hex="0062"/>
  <outline>
    <contour>
      <point x="19" y="19" type="line"/>
      <point x="68" y="2"/>
      <point x="137" y="-10"/>
      <point x="188" y="-10" type="curve" smooth="yes"/>
      <point x="347" y="-10"/>
      <point x="405" y="71"/>
      <point x="405" y="294" type="curve" smooth="yes"/>
      <point x="405" y="479"/>
      <point x="362" y="560"/>
      <point x="264" y="560" type="curve" smooth="yes"/>
      <point x="243" y="560"/>
      <point x="212" y="549"/>
      <point x="194" y="535" type="curve"/>
      <point x="194" y="740" type="line"/>
      <point x="19" y="740" type="line"/>
    </contour>
    <contour>
      <point x="194" y="139" type="curve"/>
      <point x="194" y="384" type="line"/>
      <point x="198" y="388"/>
      <point x="201" y="390"/>
      <point x="205" y="390" type="curve" smooth="yes"/>
      <point x="217" y="390"/>
      <point x="219" y="372"/>
      <point x="219" y="273" type="curve" smooth="yes"/>
      <point x="219" y="156"/>
      <point x="217" y="136"/>
      <point x="204" y="136" type="curve" smooth="yes"/>
      <point x="201" y="136"/>
      <point x="198" y="137"/>
    </contour>
  </outline>
</glyph>
<glyph name="c" format="2">
  <advance width="350"/>
  <unicode hex="0063"/>
  <anchor x="218" y="550" name="top"/>
  <anchor x="225" y="0" name="bottom"/>
  <outline>
    <contour>
      <point x="10" y="275" type="curve" smooth="yes"/>
      <point x="10" y="85"/>
      <point x="74" y="-10"/>
      <point x="208" y="-10" type="curve" smooth="yes"/>
      <point x="258" y="-10"/>
      <point x="319" y="2"/>
      <point x="346" y="16" type="curve"/>
      <point x="309" y="192" type="line"/>
      <point x="289" y="186"/>
      <point x="272" y="182"/>
      <point x="255" y="182" type="curve" smooth="yes"/>
      <point x="215" y="182"/>
      <point x="196" y="217"/>
      <point x="196" y="282" type="curve" smooth="yes"/>
      <point x="196" y="341"/>
      <point x="217" y="367"/>
      <point x="260" y="367" type="curve" smooth="yes"/>
      <point x="280" y="367"/>
      <point x="296" y="365"/>
      <point x="309" y="360" type="curve"/>
      <point x="340" y="543" type="line"/>
      <point x="316" y="553"/>
      <point x="266" y="560"/>
      <point x="219" y="560" type="curve" smooth="yes"/>
      <point x="79" y="560"/>
      <point x="10" y="463"/>
    </contour>
  </outline>
</glyph>
<glyph name="f" format="2">
  <advance width="277"/>
  <unicode hex="0066"/>
  <outline>
    <contour>
      <point x="48" y="0" type="line"/>
      <point x="219" y="0" type="line"/>
      <point x="219" y="379" type="line"/>
      <point x="264" y="379" type="line"/>
      <point x="264" y="529" type="line"/>
      <point x="220" y="529" type="line"/>
      <point x="220" y="542" type="line" smooth="yes"/>
      <point x="220" y="577"/>
      <point x="230" y="589"/>
      <point x="251" y="589" type="curve" smooth="yes"/>
      <point x="260" y="589"/>
      <point x="269" y="587"/>
      <point x="287" y="581" type="curve"/>
      <point x="314" y="721" type="line"/>
      <point x="274" y="742"/>
      <point x="241" y="750"/>
      <point x="200" y="750" type="curve" smooth="yes"/>
      <point x="100" y="750"/>
      <point x="48" y="676"/>
      <point x="48" y="544" type="curve" smooth="yes"/>
      <point x="48" y="529" type="line"/>
      <point x="5" y="522" type="line"/>
      <point x="5" y="379" type="line"/>
      <point x="48" y="379" type="line"/>
    </contour>
  </outline>
</glyph>
<glyph name="g" format="2">
  <advance width="419"/>
  <unicode hex="0067"/>
  <anchor x="187" y="550" name="top"/>
  <anchor x="209" y="-210" name="bottom"/>
  <outline>
    <contour>
      <point x="188" y="-220" type="curve" smooth="yes"/>
      <point x="324" y="-220"/>
      <point x="402" y="-143"/>
      <point x="402" y="-18" type="curve" smooth="yes"/>
      <point x="402" y="80"/>
      <point x="352" y="136"/>
      <point x="265" y="136" type="curve" smooth="yes"/>
      <point x="167" y="136" type="line" smooth="yes"/>
      <point x="145" y="136"/>
      <point x="133" y="144"/>
      <point x="133" y="160" type="curve" smooth="yes"/>
      <point x="133" y="176"/>
      <point x="138" y="184"/>
      <point x="155" y="195" type="curve"/>
      <point x="69" y="215" type="line"/>
      <point x="41" y="192"/>
      <point x="18" y="156"/>
      <point x="18" y="100" type="curve" smooth="yes"/>
      <point x="18" y="30"/>
      <point x="67" y="-22"/>
      <point x="148" y="-22" type="curve" smooth="yes"/>
      <point x="220" y="-22" type="line" smooth="yes"/>
      <point x="239" y="-22"/>
      <point x="244" y="-26"/>
      <point x="244" y="-38" type="curve" smooth="yes"/>
      <point x="244" y="-52"/>
      <point x="226" y="-60"/>
      <point x="194" y="-60" type="curve" smooth="yes"/>
      <point x="141" y="-60"/>
      <point x="124" y="-54"/>
      <point x="124" y="-35" type="curve" smooth="yes"/>
      <point x="124" y="-22"/>
      <point x="128" y="-17"/>
      <point x="143" y="-12" type="curve"/>
      <point x="59" y="26" type="line"/>
      <point x="30" y="10"/>
      <point x="1" y="-25"/>
      <point x="1" y="-83" type="curve" smooth="yes"/>
      <point x="1" y="-174"/>
      <point x="67" y="-220"/>
    </contour>
    <contour>
      <point x="188" y="160" type="curve" smooth="yes"/>
      <point x="306" y="160"/>
      <point x="367" y="228"/>
      <point x="367" y="360" type="curve" smooth="yes"/>
      <point x="367" y="492"/>
      <point x="306" y="560"/>
      <point x="188" y="560" type="curve" smooth="yes"/>
      <point x="70" y="560"/>
      <point x="9" y="492"/>
      <point x="9" y="360" type="curve" smooth="yes"/>
      <point x="9" y="228"/>
      <point x="70" y="160"/>
    </contour>
    <contour>
      <point x="188" y="286" type="curve" smooth="yes"/>
      <point x="177" y="286"/>
      <point x="173" y="298"/>
      <point x="173" y="360" type="curve" smooth="yes"/>
      <point x="173" y="422"/>
      <point x="177" y="434"/>
      <point x="188" y="434" type="curve" smooth="yes"/>
      <point x="199" y="434"/>
      <point x="203" y="422"/>
      <point x="203" y="360" type="curve" smooth="yes"/>
      <point x="203" y="298"/>
      <point x="199" y="286"/>
    </contour>
    <contour>
      <point x="340" y="393" type="line"/>
      <point x="347" y="409"/>
      <point x="358" y="419"/>
      <point x="371" y="419" type="curve" smooth="yes"/>
      <point x="382" y="419"/>
      <point x="389" y="417"/>
      <point x="397" y="415" type="curve"/>
      <point x="425" y="574" type="line"/>
      <point x="409" y="583"/>
      <point x="387" y="589"/>
      <point x="366" y="589" type="curve" smooth="yes"/>
      <point x="330" y="589"/>
      <point x="302" y="570"/>
      <point x="278" y="525" type="curve"/>
    </contour>
  </outline>
</glyph>
<glyph name="h" format="2">
  <advance width="416"/>
  <unicode hex="0068"/>
  <anchor x="208" y="395" name="center"/>
  <anchor x="208" y="0" name="bottom"/>
  <anchor x="214" y="740" name="top"/>
  <outline>
    <contour>
      <point x="19" y="0" type="line"/>
      <point x="194" y="0" type="line"/>
      <point x="194" y="380" type="line"/>
      <point x="200" y="385"/>
      <point x="204" y="387"/>
      <point x="211" y="387" type="curve" smooth="yes"/>
      <point x="215" y="387"/>
      <point x="223" y="385"/>
      <point x="223" y="371" type="curve" smooth="yes"/>
      <point x="223" y="0" type="line"/>
      <point x="399" y="0" type="line"/>
      <point x="399" y="421" type="line" smooth="yes"/>
      <point x="399" y="522"/>
      <point x="357" y="560"/>
      <point x="292" y="560" type="curve" smooth="yes"/>
      <point x="262" y="560"/>
      <point x="224" y="547"/>
      <point x="194" y="514" type="curve"/>
      <point x="194" y="740" type="line"/>
      <point x="19" y="740" type="line"/>
    </contour>
  </outline>
</glyph>
<glyph name="l" format="2">
  <advance width="237"/>
  <unicode hex="006C"/>
  <anchor x="119" y="395" name="center"/>
  <anchor x="107" y="740" name="top"/>
  <anchor x="224" y="740" name="topright"/>
  <anchor x="130" y="0" name="bottom"/>
  <outline>
    <contour>
      <point x="194" y="740" type="line"/>
      <point x="19" y="740" type="line"/>
      <point x="19" y="177" type="line" smooth="yes"/>
      <point x="19" y="45"/>
      <point x="61" y="-10"/>
      <point x="156" y="-10" type="curve" smooth="yes"/>
      <point x="191" y="-10"/>
      <point x="222" y="4"/>
      <point x="238" y="16" type="curve"/>
      <point x="228" y="169" type="line"/>
      <point x="223" y="168"/>
      <point x="217" y="167"/>
      <point x="213" y="167" type="curve" smooth="yes"/>
      <point x="202" y="167"/>
      <point x="194" y="174"/>
      <point x="194" y="204" type="curve" smooth="yes"/>
    </contour>
  </outline>
</glyph>
<glyph name="m" format="2">
  <advance width="622"/>
  <unicode hex="006D"/>
  <outline>
    <contour>
      <point x="19" y="0" type="line"/>
      <point x="195" y="0" type="line"/>
      <point x="195" y="380" type="line"/>
      <point x="200" y="384"/>
      <point x="205" y="387"/>
      <point x="212" y="387" type="curve" smooth="yes"/>
      <point x="216" y="387"/>
      <point x="224" y="385"/>
      <point x="224" y="371" type="curve" smooth="yes"/>
      <point x="224" y="0" type="line"/>
      <point x="400" y="0" type="line"/>
      <point x="400" y="379" type="line"/>
      <point x="400" y="380" type="line"/>
      <point x="405" y="384"/>
      <point x="410" y="387"/>
      <point x="417" y="387" type="curve" smooth="yes"/>
      <point x="421" y="387"/>
      <point x="429" y="385"/>
      <point x="429" y="371" type="curve" smooth="yes"/>
      <point x="429" y="0" type="line"/>
      <point x="605" y="0" type="line"/>
      <point x="605" y="426" type="line" smooth="yes"/>
      <point x="605" y="513"/>
      <point x="570" y="560"/>
      <point x="498" y="560" type="curve" smooth="yes"/>
      <point x="462" y="560"/>
      <point x="424" y="551"/>
      <point x="381" y="513" type="curve"/>
      <point x="364" y="543"/>
      <point x="335" y="560"/>
      <point x="293" y="560" type="curve" smooth="yes"/>
      <point x="257" y="560"/>
      <point x="219" y="551"/>
      <point x="178" y="514" type="curve"/>
      <point x="178" y="550" type="line"/>
      <point x="19" y="550" type="line"/>
    </contour>
  </outline>
</glyph>
<glyph name="n" format="2">
  <advance width="417"/>
  <unicode hex="006E"/>
  <anchor x="209" y="550" name="top"/>
  <anchor x="209" y="0" name="bottom"/>
  <outline>
    <contour>
      <point x="19" y="0" type="line"/>
      <point x="195" y="0" type="line"/>
      <point x="195" y="380" type="line"/>
      <point x="200" y="384"/>
      <point x="205" y="387"/>
      <point x="212" y="387" type="curve" smooth="yes"/>
      <point x="216" y="387"/>
      <point x="224" y="385"/>
      <point x="224" y="371" type="curve" smooth="yes"/>
      <point x="224" y="0" type="line"/>
      <point x="400" y="0" type="line"/>
      <point x="400" y="426" type="line" smooth="yes"/>
      <point x="400" y="513"/>
      <point x="365" y="560"/>
      <point x="293" y="560" type="curve" smooth="yes"/>
      <point x="257" y="560"/>
      <point x="219" y="551"/>
      <point x="178" y="514" type="curve"/>
      <point x="178" y="550" type="line"/>
      <point x="19" y="550" type="line"/>
    </contour>
  </outline>
</glyph>
<glyph name="o" format="2">
  <advance width="418"/>
  <unicode hex="006F"/>
  <anchor x="304" y="10" name="ogonek"/>
  <anchor x="209" y="550" name="top"/>
  <anchor x="322" y="540" name="topright"/>
  <anchor x="209" y="0" name="bottom"/>
  <outline>
    <contour>
      <point x="10" y="276" type="curve" smooth="yes"/>
      <point x="10" y="119"/>
      <point x="42" y="-10"/>
      <point x="209" y="-10" type="curve" smooth="yes"/>
      <point x="376" y="-10"/>
      <point x="408" y="119"/>
      <point x="408" y="276" type="curve" smooth="yes"/>
      <point x="408" y="433"/>
      <point x="376" y="560"/>
      <point x="209" y="560" type="curve" smooth="yes"/>
      <point x="42" y="560"/>
      <point x="10" y="433"/>
    </contour>
    <contour>
      <point x="194" y="276" type="curve" smooth="yes"/>
      <point x="194" y="385"/>
      <point x="196" y="392"/>
      <point x="209" y="392" type="curve" smooth="yes"/>
      <point x="221" y="392"/>
      <point x="224" y="385"/>
      <point x="224" y="276" type="curve" smooth="yes"/>
      <point x="224" y="167"/>
      <point x="221" y="159"/>
      <point x="209" y="159" type="curve" smooth="yes"/>
      <point x="196" y="159"/>
      <point x="194" y="167"/>
    </contour>
  </outline>
</glyph>
<glyph name="q" format="2">
  <advance width="417"/>
  <unicode hex="0071"/>
  <outline>
    <contour>
      <point x="398" y="535" type="line"/>
      <point x="357" y="550"/>
      <point x="287" y="560"/>
      <point x="229" y="560" type="curve" smooth="yes"/>
      <point x="80" y="560"/>
      <point x="10" y="472"/>
      <point x="10" y="284" type="curve" smooth="yes"/>
      <point x="10" y="76"/>
      <point x="52" y="-10"/>
      <point x="153" y="-10" type="curve" smooth="yes"/>
      <point x="176" y="-10"/>
      <point x="207" y="1"/>
      <point x="223" y="14" type="curve"/>
      <point x="223" y="-210" type="line"/>
      <point x="398" y="-210" type="line"/>
    </contour>
    <contour>
      <point x="222" y="409" type="curve"/>
      <point x="222" y="164" type="line"/>
      <point x="220" y="161"/>
      <point x="216" y="158"/>
      <point x="212" y="158" type="curve" smooth="yes"/>
      <point x="200" y="158"/>
      <point x="198" y="176"/>
      <point x="198" y="275" type="curve" smooth="yes"/>
      <point x="198" y="392"/>
      <point x="200" y="412"/>
      <point x="213" y="412" type="curve" smooth="yes"/>
      <point x="215" y="412"/>
      <point x="219" y="411"/>
    </contour>
  </outline>
</glyph>
<glyph name="r" format="2">
  <advance width="302"/>
  <unicode hex="0072"/>
  <anchor x="155" y="550" name="top"/>
  <anchor x="106" y="0" name="bottom"/>
  <outline>
    <contour>
      <point x="177" y="550" type="line"/>
      <point x="19" y="550" type="line"/>
      <point x="19" y="0" type="line"/>
      <point x="193" y="0" type="line"/>
      <point x="193" y="355" type="line"/>
      <point x="209" y="364"/>
      <point x="220" y="366"/>
      <point x="235" y="366" type="curve" smooth="yes"/>
      <point x="241" y="366"/>
      <point x="257" y="366"/>
      <point x="270" y="362" type="curve"/>
      <point x="301" y="551" type="line"/>
      <point x="282" y="559"/>
      <point x="270" y="560"/>
      <point x="261" y="560" type="curve" smooth="yes"/>
      <point x="222" y="560"/>
      <point x="206" y="545"/>
      <point x="177" y="505" type="curve"/>
    </contour>
  </outline>
</glyph>
<glyph name="t" format="2">
  <advance width="287"/>
  <unicode hex="0074"/>
  <anchor x="140" y="275" name="center"/>
  <anchor x="140" y="654" name="top"/>
  <anchor x="239" y="765" name="topright"/>
  <anchor x="161" y="0" name="bottom"/>
  <outline>
    <contour>
      <point x="172" y="-10" type="curve" smooth="yes"/>
      <point x="203" y="-10"/>
      <point x="249" y="-7"/>
      <point x="291" y="15" type="curve"/>
      <point x="265" y="162" type="line"/>
      <point x="257" y="160"/>
      <point x="247" y="159"/>
      <point x="240" y="159" type="curve" smooth="yes"/>
      <point x="227" y="159"/>
      <point x="216" y="166"/>
      <point x="216" y="208" type="curve" smooth="yes"/>
      <point x="216" y="400" type="line"/>
      <point x="270" y="400" type="line"/>
      <point x="270" y="550" type="line"/>
      <point x="216" y="550" type="line"/>
      <point x="216" y="654" type="line"/>
      <point x="64" y="654" type="line"/>
      <point x="41" y="550" type="line"/>
      <point x="5" y="544" type="line"/>
      <point x="5" y="401" type="line"/>
      <point x="41" y="401" type="line"/>
      <point x="41" y="186" type="line" smooth="yes"/>
      <point x="41" y="54"/>
      <point x="86" y="-10"/>
    </contour>
  </outline>
</glyph>
<glyph name="v" format="2">
  <advance width="422"/>
  <unicode hex="0076"/>
  <outline>
    <contour>
      <point x="94" y="0" type="line"/>
      <point x="327" y="0" type="line"/>
      <point x="421" y="550" type="line"/>
      <point x="231" y="550" type="line"/>
      <point x="211" y="165" type="line"/>
      <point x="192" y="550" type="line"/>
      <point x="1" y="550" type="line"/>
    </contour>
  </outline>
</glyph>
<glyph name="y" format="2">
  <advance width="428"/>
  <unicode hex="0079"/>
  <anchor x="214" y="550" name="top"/>
  <anchor x="404" y="0" name="bottom"/>
  <outline>
    <contour>
      <point x="94" y="-210" type="line"/>
      <point x="286" y="-210" type="line"/>
      <point x="427" y="550" type="line"/>
      <point x="233" y="550" type="line"/>
      <point x="214" y="155" type="line"/>
      <point x="197" y="550" type="line"/>
      <point x="1" y="550" type="line"/>
      <point x="121" y="0" type="line"/>
      <point x="141" y="0" type="line"/>
    </contour>
  </outline>
</glyph>
<glyph name="z" format="2">
  <advance width="366"/>
  <unicode hex="007A"/>
  <anchor x="186" y="550" name="top"/>
  <outline>
    <contour>
      <point x="12" y="0" type="line"/>
      <point x="353" y="0" type="line"/>
      <point x="353" y="163" type="line"/>
      <point x="197" y="163" type="line"/>
      <point x="348" y="405" type="line"/>
      <point x="348" y="550" type="line"/>
      <point x="20" y="550" type="line"/>
      <point x="20" y="389" type="line"/>
      <point x="163" y="389" type="line"/>
      <point x="12" y="148" type="line"/>
    </contour>
  </outline>
</glyph>
<glyph name="braceleft" format="2">
  <advance width="239"/>
  <unicode hex="007B"/>
  <outline>
    <contour>
      <point x="26" y="-34" type="curve" smooth="yes"/>
      <point x="26" y="-164"/>
      <point x="90" y="-211"/>
      <point x="156" y="-211" type="curve" smooth="yes"/>
      <point x="231" y="-211" type="line"/>
      <point x="231" y="-63" type="line"/>
      <point x="200" y="-63" type="line" smooth="yes"/>
      <point x="178" y="-63"/>
      <point x="168" y="-44"/>
      <point x="168" y="-11" type="curve" smooth="yes"/>
      <point x="168" y="32"/>
      <point x="190" y="76"/>
      <point x="190" y="128" type="curve" smooth="yes"/>
      <point x="190" y="176"/>
      <point x="176" y="226"/>
      <point x="130" y="265" type="curve"/>
      <point x="176" y="301"/>
      <point x="190" y="353"/>
      <point x="190" y="401" type="curve" smooth="yes"/>
      <point x="190" y="453"/>
      <point x="168" y="497"/>
      <point x="168" y="540" type="curve" smooth="yes"/>
      <point x="168" y="573"/>
      <point x="178" y="592"/>
      <point x="200" y="592" type="curve" smooth="yes"/>
      <point x="231" y="592" type="line"/>
      <point x="231" y="740" type="line"/>
      <point x="156" y="740" type="line" smooth="yes"/>
      <point x="90" y="740"/>
      <point x="26" y="693"/>
      <point x="26" y="563" type="curve" smooth="yes"/>
      <point x="26" y="476"/>
      <point x="57" y="432"/>
      <point x="57" y="390" type="curve" smooth="yes"/>
      <point x="57" y="358"/>
      <point x="52" y="343"/>
      <point x="30" y="343" type="curve" smooth="yes"/>
      <point x="14" y="343" type="line"/>
      <point x="14" y="186" type="line"/>
      <point x="30" y="186" type="line" smooth="yes"/>
      <point x="52" y="186"/>
      <point x="57" y="171"/>
      <point x="57" y="139" type="curve" smooth="yes"/>
      <point x="57" y="97"/>
      <point x="26" y="53"/>
    </contour>
  </outline>
</glyph>
<glyph name="bar" format="2">
  <advance width="170"/>
  <unicode hex="007C"/>
  <outline>
    <contour>
      <point x="160" y="791" type="line"/>
      <point x="10" y="791" type="line"/>
      <point x="10" y="-210" type="line"/>
      <point x="160" y="-210" type="line"/>
    </contour>
  </outline>
</glyph>
<glyph name="braceright" format="2">
  <advance width="239"/>
  <unicode hex="007D"/>
  <outline>
    <contour>
      <point x="8" y="-63" type="line"/>
      <point x="8" y="-211" type="line"/>
      <point x="83" y="-211" type="line" smooth="yes"/>
      <point x="149" y="-211"/>
      <point x="213" y="-164"/>
      <point x="213" y="-34" type="curve" smooth="yes"/>
      <point x="213" y="53"/>
      <point x="182" y="97"/>
      <point x="182" y="139" type="curve" smooth="yes"/>
      <point x="182" y="171"/>
      <point x="187" y="186"/>
      <point x="209" y="186" type="curve" smooth="yes"/>
      <point x="225" y="186" type="line"/>
      <point x="225" y="343" type="line"/>
      <point x="209" y="343" type="line" smooth="yes"/>
      <point x="187" y="343"/>
      <point x="182" y="358"/>
      <point x="182" y="390" type="curve" smooth="yes"/>
      <point x="182" y="432"/>
      <point x="213" y="476"/>
      <point x="213" y="563" type="curve" smooth="yes"/>
      <point x="213" y="693"/>
      <point x="149" y="740"/>
      <point x="83" y="740" type="curve" smooth="yes"/>
      <point x="8" y="740" type="line"/>
      <point x="8" y="592" type="line"/>
      <point x="22" y="592" type="line" smooth="yes"/>
      <point x="44" y="592"/>
      <point x="54" y="573"/>
      <point x="54" y="540" type="curve" smooth="yes"/>
      <point x="54" y="497"/>
      <point x="32" y="453"/>
      <point x="32" y="401" type="curve" smooth="yes"/>
      <point x="32" y="353"/>
      <point x="46" y="301"/>
      <point x="92" y="265" type="curve"/>
      <point x="46" y="226"/>
      <point x="32" y="176"/>
      <point x="32" y="128" type="curve" smooth="yes"/>
      <point x="32" y="76"/>
      <point x="54" y="32"/>
      <point x="54" y="-11" type="curve" smooth="yes"/>
      <point x="54" y="-44"/>
      <point x="44" y="-63"/>
      <point x="22" y="-63" type="curve" smooth="yes"/>
    </contour>
  </outline>
</glyph>
<glyph name="asciitilde" format="2">
  <advance width="420"/>
  <unicode hex="007E"/>
  <outline>
    <contour>
      <point x="368" y="237" type="curve"/>
      <point x="368" y="393" type="line"/>
      <point x="342" y="369"/>
      <point x="316" y="361"/>
      <point x="289" y="361" type="curve" smooth="yes"/>
      <point x="223" y="361"/>
      <point x="205" y="425"/>
      <point x="138" y="425" type="curve" smooth="yes"/>
      <point x="96" y="425"/>
      <point x="57" y="400"/>
      <point x="52" y="393" type="curve"/>
      <point x="52" y="237" type="line"/>
      <point x="57" y="244"/>
      <point x="96" y="269"/>
      <point x="138" y="269" type="curve" smooth="yes"/>
      <point x="205" y="269"/>
      <point x="223" y="205"/>
      <point x="289" y="205" type="curve" smooth="yes"/>
      <point x="316" y="205"/>
      <point x="342" y="213"/>
    </contour>
  </outline>
</glyph>
<glyph name="exclamdown" format="2">
  <advance width="200"/>
  <unicode hex="00A1"/>
  <outline>
    <contour>
      <point x="177" y="291" type="line"/>
      <point x="25" y="291" type="line"/>
      <point x="9" y="-190" type="line"/>
      <point x="190" y="-190" type="line"/>
    </contour>
    <contour>
      <point x="193" y="443" type="curve" smooth="yes"/>
      <point x="193" y="521"/>
      <point x="165" y="560"/>
      <point x="100" y="560" type="curve" smooth="yes"/>
      <point x="35" y="560"/>
      <point x="7" y="521"/>
      <point x="7" y="443" type="curve" smooth="yes"/>
      <point x="7" y="364"/>
      <point x="35" y="325"/>
      <point x="100" y="325" type="curve" smooth="yes"/>
      <point x="165" y="325"/>
      <point x="193" y="364"/>
    </contour>
  </outline>
</glyph>
<glyph name="sterling" format="2">
  <advance width="420"/>
  <unicode hex="00A3"/>
  <outline>
    <contour>
      <point x="49" y="0" type="line"/>
      <point x="370" y="0" type="line"/>
      <point x="370" y="160" type="line"/>
      <point x="238" y="160" type="line"/>
      <point x="264" y="183"/>
      <point x="300" y="216"/>
      <point x="300" y="275" type="curve" smooth="yes"/>
      <point x="300" y="343"/>
      <point x="261" y="406"/>
      <point x="261" y="458" type="curve" smooth="yes"/>
      <point x="261" y="512"/>
      <point x="283" y="531"/>
      <point x="310" y="531" type="curve" smooth="yes"/>
      <point x="325" y="531"/>
      <point x="336" y="528"/>
      <point x="347" y="524" type="curve"/>
      <point x="374" y="677" type="line"/>
      <point x="345" y="699"/>
      <point x="301" y="710"/>
      <point x="265" y="710" type="curve" smooth="yes"/>
      <point x="143" y="710"/>
      <point x="78" y="633"/>
      <point x="78" y="520" type="curve" smooth="yes"/>
      <point x="78" y="399"/>
      <point x="135" y="369"/>
      <point x="135" y="252" type="curve" smooth="yes"/>
      <point x="135" y="217"/>
      <point x="108" y="157"/>
      <point x="49" y="118" type="curve"/>
    </contour>
    <contour>
      <point x="47" y="310" type="line"/>
      <point x="366" y="310" type="line"/>
      <point x="366" y="401" type="line"/>
      <point x="47" y="401" type="line"/>
    </contour>
  </outline>
</glyph>
<glyph name="currency" format="2">
  <advance width="420"/>
  <unicode hex="00A4"/>
  <outline>
    <contour>
      <point x="17" y="371" type="line"/>
      <point x="61" y="326" type="line"/>
      <point x="59" y="315"/>
      <point x="58" y="304"/>
      <point x="58" y="293" type="curve" smooth="yes"/>
      <point x="58" y="281"/>
      <point x="59" y="268"/>
      <point x="62" y="256" type="curve"/>
      <point x="17" y="211" type="line"/>
      <point x="130" y="98" type="line"/>
      <point x="182" y="150" type="line"/>
      <point x="191" y="148"/>
      <point x="202" y="148"/>
      <point x="213" y="148" type="curve" smooth="yes"/>
      <point x="222" y="148"/>
      <point x="230" y="148"/>
      <point x="238" y="149" type="curve"/>
      <point x="290" y="98" type="line"/>
      <point x="403" y="211" type="line"/>
      <point x="362" y="251" type="line"/>
      <point x="366" y="265"/>
      <point x="368" y="279"/>
      <point x="368" y="293" type="curve" smooth="yes"/>
      <point x="368" y="305"/>
      <point x="366" y="318"/>
      <point x="363" y="331" type="curve"/>
      <point x="403" y="371" type="line"/>
      <point x="290" y="484" type="line"/>
      <point x="242" y="436" type="line"/>
      <point x="233" y="437"/>
      <point x="223" y="438"/>
      <point x="213" y="438" type="curve" smooth="yes"/>
      <point x="200" y="438"/>
      <point x="189" y="436"/>
      <point x="178" y="435" type="curve"/>
      <point x="130" y="484" type="line"/>
    </contour>
    <contour>
      <point x="213" y="263" type="curve" smooth="yes"/>
      <point x="194" y="263"/>
      <point x="184" y="273"/>
      <point x="184" y="292" type="curve" smooth="yes"/>
      <point x="184" y="309"/>
      <point x="194" y="322"/>
      <point x="213" y="322" type="curve" smooth="yes"/>
      <point x="232" y="322"/>
      <point x="242" y="309"/>
      <point x="242" y="292" type="curve" smooth="yes"/>
      <point x="242" y="273"/>
      <point x="232" y="263"/>
    </contour>
  </outline>
</glyph>
<glyph name="brokenbar" format="2">
  <advance width="169"/>
  <unicode hex="00A6"/>
  <outline>
    <contour>
      <point x="159" y="391" type="line"/>
      <point x="159" y="791" type="line"/>
      <point x="10" y="791" type="line"/>
      <point x="10" y="391" type="line"/>
    </contour>
    <contour>
      <point x="10" y="191" type="line"/>
      <point x="10" y="-210" type="line"/>
      <point x="159" y="-210" type="line"/>
      <point x="159" y="191" type="line"/>
    </contour>
  </outline>
</glyph>
<glyph name="section" format="2">
  <advance width="461"/>
  <unicode hex="00A7"/>
  <outline>
    <contour>
      <point x="183" y="-221" type="curve" smooth="yes"/>
      <point x="338" y="-221"/>
      <point x="428" y="-99"/>
      <point x="428" y="64" type="curve" smooth="yes"/>
      <point x="428" y="125"/>
      <point x="409" y="227"/>
      <point x="368" y="321" type="curve" smooth="yes"/>
      <point x="324" y="423"/>
      <point x="304" y="473"/>
      <point x="304" y="505" type="curve" smooth="yes"/>
      <point x="304" y="534"/>
      <point x="319" y="552"/>
      <point x="347" y="552" type="curve" smooth="yes"/>
      <point x="359" y="552"/>
      <point x="369" y="550"/>
      <point x="381" y="543" type="curve"/>
      <point x="418" y="721" type="line"/>
      <point x="393" y="738"/>
      <point x="343" y="750"/>
      <point x="292" y="750" type="curve" smooth="yes"/>
      <point x="135" y="750"/>
      <point x="26" y="646"/>
      <point x="33" y="483" type="curve" smooth="yes"/>
      <point x="36" y="414"/>
      <point x="40" y="346"/>
      <point x="103" y="201" type="curve" smooth="yes"/>
      <point x="145" y="103"/>
      <point x="166" y="63"/>
      <point x="166" y="23" type="curve" smooth="yes"/>
      <point x="166" y="-10"/>
      <point x="146" y="-23"/>
      <point x="116" y="-23" type="curve" smooth="yes"/>
      <point x="101" y="-23"/>
      <point x="83" y="-19"/>
      <point x="71" y="-7" type="curve"/>
      <point x="39" y="-185" type="line"/>
      <point x="66" y="-206"/>
      <point x="125" y="-221"/>
    </contour>
    <contour>
      <point x="169" y="-105" type="curve" smooth="yes"/>
      <point x="153" y="-105"/>
      <point x="135" y="-100"/>
      <point x="114" y="-89" type="curve"/>
      <point x="162" y="-117" type="line"/>
      <point x="234" y="-111"/>
      <point x="281" y="-55"/>
      <point x="281" y="29" type="curve" smooth="yes"/>
      <point x="281" y="87"/>
      <point x="267" y="150"/>
      <point x="221" y="260" type="curve" smooth="yes"/>
      <point x="175" y="369"/>
      <point x="157" y="423"/>
      <point x="157" y="493" type="curve" smooth="yes"/>
      <point x="157" y="558"/>
      <point x="196" y="609"/>
      <point x="240" y="609" type="curve" smooth="yes"/>
      <point x="259" y="609"/>
      <point x="272" y="604"/>
      <point x="285" y="590" type="curve"/>
      <point x="263" y="631" type="line"/>
      <point x="224" y="618"/>
      <point x="184" y="579"/>
      <point x="184" y="516" type="curve" smooth="yes"/>
      <point x="184" y="463"/>
      <point x="197" y="400"/>
      <point x="247" y="282" type="curve" smooth="yes"/>
      <point x="300" y="156"/>
      <point x="310" y="97"/>
      <point x="310" y="50" type="curve" smooth="yes"/>
      <point x="310" y="-48"/>
      <point x="253" y="-105"/>
    </contour>
  </outline>
</glyph>
<glyph name="copyright" format="2">
  <advance width="730"/>
  <unicode hex="00A9"/>
  <outline>
    <contour>
      <point x="365" y="45" type="curve" smooth="yes"/>
      <point x="179" y="45"/>
      <point x="87" y="172"/>
      <point x="87" y="351" type="curve" smooth="yes"/>
      <point x="87" y="530"/>
      <point x="179" y="657"/>
      <point x="365" y="657" type="curve" smooth="yes"/>
      <point x="554" y="657"/>
      <point x="642" y="530"/>
      <point x="642" y="351" type="curve" smooth="yes"/>
      <point x="642" y="172"/>
      <point x="554" y="45"/>
    </contour>
    <contour>
      <point x="365" y="710" type="curve" smooth="yes"/>
      <point x="146" y="710"/>
      <point x="31" y="551"/>
      <point x="31" y="351" type="curve" smooth="yes"/>
      <point x="31" y="152"/>
      <point x="146" y="-10"/>
      <point x="365" y="-10" type="curve" smooth="yes"/>
      <point x="584" y="-10"/>
      <point x="699" y="152"/>
      <point x="699" y="351" type="curve" smooth="yes"/>
      <point x="699" y="551"/>
      <point x="584" y="710"/>
    </contour>
    <contour>
      <point x="226" y="356" type="curve" smooth="yes"/>
      <point x="226" y="194"/>
      <point x="277" y="118"/>
      <point x="373" y="118" type="curve" smooth="yes"/>
      <point x="402" y="118"/>
      <point x="429" y="119"/>
      <point x="463" y="135" type="curve"/>
      <point x="444" y="252" type="line"/>
      <point x="417" y="244"/>
      <point x="405" y="242"/>
      <point x="388" y="242" type="curve" smooth="yes"/>
      <point x="361" y="242"/>
      <point x="357" y="264"/>
      <point x="357" y="349" type="curve" smooth="yes"/>
      <point x="357" y="443"/>
      <point x="365" y="471"/>
      <point x="393" y="471" type="curve" smooth="yes"/>
      <point x="406" y="471"/>
      <point x="434" y="465"/>
      <point x="449" y="461" type="curve"/>
      <point x="471" y="574" type="line"/>
      <point x="446" y="589"/>
      <point x="405" y="595"/>
      <point x="369" y="595" type="curve" smooth="yes"/>
      <point x="283" y="595"/>
      <point x="226" y="537"/>
    </contour>
  </outline>
</glyph>
<glyph name="ordfeminine" format="2">
  <advance width="294"/>
  <unicode hex="00AA"/>
  <outline>
    <contour>
      <point x="24" y="241" type="line"/>
      <point x="269" y="241" type="line"/>
      <point x="269" y="327" type="line"/>
      <point x="24" y="327" type="line"/>
    </contour>
    <component base="a.superior" xOffset="8"/>
  </outline>
</glyph>
<glyph name="logicalnot" format="2">
  <advance width="420"/>
  <unicode hex="00AC"/>
  <outline>
    <contour>
      <point x="42" y="287" type="line"/>
      <point x="218" y="287" type="line"/>
      <point x="218" y="179" type="line"/>
      <point x="378" y="179" type="line"/>
      <point x="378" y="447" type="line"/>
      <point x="42" y="447" type="line"/>
    </contour>
  </outline>
</glyph>
<glyph name="registered" format="2">
  <advance width="696"/>
  <unicode hex="00AE"/>
  <outline>
    <contour>
      <point x="348" y="208" type="curve" smooth="yes"/>
      <point x="556" y="208"/>
      <point x="665" y="362"/>
      <point x="665" y="551" type="curve" smooth="yes"/>
      <point x="665" y="741"/>
      <point x="556" y="892"/>
      <point x="348" y="892" type="curve" smooth="yes"/>
      <point x="140" y="892"/>
      <point x="31" y="741"/>
      <point x="31" y="551" type="curve" smooth="yes"/>
      <point x="31" y="362"/>
      <point x="140" y="208"/>
    </contour>
    <contour>
      <point x="348" y="260" type="curve" smooth="yes"/>
      <point x="171" y="260"/>
      <point x="84" y="381"/>
      <point x="84" y="551" type="curve" smooth="yes"/>
      <point x="84" y="721"/>
      <point x="171" y="842"/>
      <point x="348" y="842" type="curve" smooth="yes"/>
      <point x="528" y="842"/>
      <point x="611" y="721"/>
      <point x="611" y="551" type="curve" smooth="yes"/>
      <point x="611" y="381"/>
      <point x="528" y="260"/>
    </contour>
    <contour>
      <point x="470" y="333" type="curve" smooth="yes"/>
      <point x="476" y="333"/>
      <point x="486" y="333"/>
      <point x="492" y="334" type="curve"/>
      <point x="492" y="459" type="line"/>
      <point x="490" y="459"/>
      <point x="487" y="459"/>
      <point x="485" y="459" type="curve" smooth="yes"/>
      <point x="455" y="459"/>
      <point x="442" y="487"/>
      <point x="438" y="505" type="curve"/>
      <point x="474" y="524"/>
      <point x="488" y="579"/>
      <point x="488" y="638" type="curve" smooth="yes"/>
      <point x="488" y="735"/>
      <point x="439" y="780"/>
      <point x="363" y="780" type="curve" smooth="yes"/>
      <point x="314" y="780"/>
      <point x="276" y="777"/>
      <point x="237" y="774" type="curve"/>
      <point x="237" y="339" type="line"/>
      <point x="345" y="339" type="line"/>
      <point x="345" y="466" type="line"/>
      <point x="346" y="466" type="line"/>
      <point x="347" y="466"/>
      <point x="347" y="466"/>
      <point x="348" y="466" type="curve"/>
      <point x="379" y="331"/>
      <point x="421" y="333"/>
    </contour>
    <contour>
      <point x="357" y="543" type="curve" smooth="yes"/>
      <point x="353" y="543"/>
      <point x="350" y="543"/>
      <point x="345" y="544" type="curve"/>
      <point x="345" y="673" type="line"/>
      <point x="351" y="675"/>
      <point x="357" y="675"/>
      <point x="359" y="675" type="curve" smooth="yes"/>
      <point x="373" y="675"/>
      <point x="376" y="658"/>
      <point x="376" y="618" type="curve" smooth="yes"/>
      <point x="376" y="563"/>
      <point x="371" y="543"/>
    </contour>
  </outline>
</glyph>
<glyph name="degree" format="2">
  <advance width="320"/>
  <unicode hex="00B0"/>
  <outline>
    <contour>
      <point x="160" y="372" type="curve" smooth="yes"/>
      <point x="257" y="372"/>
      <point x="300" y="445"/>
      <point x="300" y="541" type="curve" smooth="yes"/>
      <point x="300" y="630"/>
      <point x="263" y="710"/>
      <point x="160" y="710" type="curve" smooth="yes"/>
      <point x="57" y="710"/>
      <point x="20" y="630"/>
      <point x="20" y="541" type="curve" smooth="yes"/>
      <point x="20" y="445"/>
      <point x="63" y="372"/>
    </contour>
    <contour>
      <point x="160" y="498" type="curve" smooth="yes"/>
      <point x="144" y="498"/>
      <point x="134" y="514"/>
      <point x="134" y="540" type="curve" smooth="yes"/>
      <point x="134" y="564"/>
      <point x="143" y="580"/>
      <point x="160" y="580" type="curve" smooth="yes"/>
      <point x="177" y="580"/>
      <point x="186" y="564"/>
      <point x="186" y="540" type="curve" smooth="yes"/>
      <point x="186" y="514"/>
      <point x="176" y="498"/>
    </contour>
  </outline>
</glyph>
<glyph name="plusminus" format="2">
  <advance width="420"/>
  <unicode hex="00B1"/>
  <outline>
    <contour>
      <point x="42" y="0" type="line"/>
      <point x="378" y="0" type="line"/>
      <point x="378" y="160" type="line"/>
      <point x="290" y="160" type="line"/>
      <point x="290" y="241" type="line"/>
      <point x="378" y="241" type="line"/>
      <point x="378" y="401" type="line"/>
      <point x="290" y="401" type="line"/>
      <point x="290" y="489" type="line"/>
      <point x="130" y="489" type="line"/>
      <point x="130" y="401" type="line"/>
      <point x="42" y="401" type="line"/>
      <point x="42" y="241" type="line"/>
      <point x="130" y="241" type="line"/>
      <point x="130" y="160" type="line"/>
      <point x="42" y="160" type="line"/>
    </contour>
  </outline>
</glyph>
<glyph name="uni00B2" format="2">
  <advance width="265"/>
  <unicode hex="00B2"/>
  <outline>
    <contour>
      <point x="31" y="370" type="line"/>
      <point x="242" y="370" type="line"/>
      <point x="242" y="461" type="line"/>
      <point x="153" y="461" type="line"/>
      <point x="220" y="548"/>
      <point x="238" y="585"/>
      <point x="238" y="644" type="curve" smooth="yes"/>
      <point x="238" y="731"/>
      <point x="196" y="775"/>
      <point x="123" y="775" type="curve" smooth="yes"/>
      <point x="82" y="775"/>
      <point x="50" y="763"/>
      <point x="14" y="740" type="curve"/>
      <point x="54" y="636" type="line"/>
      <point x="70" y="645"/>
      <point x="82" y="649"/>
      <point x="97" y="649" type="curve" smooth="yes"/>
      <point x="115" y="649"/>
      <point x="128" y="633"/>
      <point x="128" y="614" type="curve" smooth="yes"/>
      <point x="128" y="580"/>
      <point x="84" y="516"/>
      <point x="31" y="453" type="curve"/>
    </contour>
  </outline>
</glyph>
<glyph name="uni00B3" format="2">
  <advance width="278"/>
  <unicode hex="00B3"/>
  <outline>
    <contour>
      <point x="20" y="394" type="line"/>
      <point x="59" y="373"/>
      <point x="84" y="366"/>
      <point x="123" y="366" type="curve" smooth="yes"/>
      <point x="203" y="366"/>
      <point x="251" y="412"/>
      <point x="251" y="489" type="curve" smooth="yes"/>
      <point x="251" y="531"/>
      <point x="230" y="566"/>
      <point x="195" y="586" type="curve"/>
      <point x="226" y="609"/>
      <point x="245" y="644"/>
      <point x="245" y="678" type="curve" smooth="yes"/>
      <point x="245" y="739"/>
      <point x="200" y="777"/>
      <point x="127" y="777" type="curve" smooth="yes"/>
      <point x="84" y="777"/>
      <point x="47" y="766"/>
      <point x="17" y="743" type="curve"/>
      <point x="53" y="655" type="line"/>
      <point x="63" y="661"/>
      <point x="82" y="665"/>
      <point x="99" y="665" type="curve" smooth="yes"/>
      <point x="123" y="665"/>
      <point x="136" y="656"/>
      <point x="136" y="639" type="curve" smooth="yes"/>
      <point x="136" y="625"/>
      <point x="127" y="615"/>
      <point x="106" y="615" type="curve" smooth="yes"/>
      <point x="76" y="615" type="line"/>
      <point x="76" y="529" type="line"/>
      <point x="110" y="529" type="line" smooth="yes"/>
      <point x="133" y="529"/>
      <point x="141" y="518"/>
      <point x="141" y="501" type="curve" smooth="yes"/>
      <point x="141" y="482"/>
      <point x="127" y="471"/>
      <point x="105" y="471" type="curve" smooth="yes"/>
      <point x="89" y="471"/>
      <point x="77" y="474"/>
      <point x="59" y="484" type="curve"/>
    </contour>
  </outline>
</glyph>
<glyph name="uni00B5" format="2">
  <advance width="435"/>
  <unicode hex="00B5"/>
  <outline>
    <contour>
      <point x="19" y="-210" type="line"/>
      <point x="185" y="-210" type="line"/>
      <point x="185" y="-5" type="line"/>
      <point x="189" y="-6"/>
      <point x="195" y="-8"/>
      <point x="204" y="-8" type="curve" smooth="yes"/>
      <point x="222" y="-8"/>
      <point x="244" y="6"/>
      <point x="254" y="21" type="curve"/>
      <point x="274" y="4"/>
      <point x="284" y="-10"/>
      <point x="334" y="-10" type="curve" smooth="yes"/>
      <point x="380" y="-10"/>
      <point x="409" y="2"/>
      <point x="433" y="15" type="curve"/>
      <point x="422" y="165" type="line"/>
      <point x="419" y="164"/>
      <point x="413" y="163"/>
      <point x="409" y="163" type="curve" smooth="yes"/>
      <point x="402" y="163"/>
      <point x="399" y="167"/>
      <point x="399" y="188" type="curve" smooth="yes"/>
      <point x="399" y="550" type="line"/>
      <point x="224" y="550" type="line"/>
      <point x="224" y="165" type="line"/>
      <point x="219" y="160"/>
      <point x="213" y="158"/>
      <point x="207" y="158" type="curve" smooth="yes"/>
      <point x="203" y="158"/>
      <point x="195" y="160"/>
      <point x="195" y="174" type="curve" smooth="yes"/>
      <point x="195" y="550" type="line"/>
      <point x="19" y="550" type="line"/>
    </contour>
  </outline>
</glyph>
<glyph name="paragraph" format="2">
  <advance width="555"/>
  <unicode hex="00B6"/>
  <outline>
    <contour>
      <point x="398" y="-210" type="line"/>
      <point x="534" y="-210" type="line"/>
      <point x="534" y="740" type="line"/>
      <point x="398" y="740" type="line"/>
    </contour>
    <contour>
      <point x="231" y="377" type="line"/>
      <point x="214" y="382"/>
      <point x="183" y="425"/>
      <point x="183" y="491" type="curve" smooth="yes"/>
      <point x="183" y="540"/>
      <point x="204" y="578"/>
      <point x="239" y="578" type="curve"/>
      <point x="239" y="-210" type="line"/>
      <point x="375" y="-210" type="line"/>
      <point x="375" y="740" type="line"/>
      <point x="291" y="740" type="line" smooth="yes"/>
      <point x="81" y="740"/>
      <point x="27" y="619"/>
      <point x="27" y="496" type="curve" smooth="yes"/>
      <point x="27" y="380"/>
      <point x="85" y="287"/>
      <point x="210" y="258" type="curve"/>
    </contour>
  </outline>
</glyph>
<glyph name="ordmasculine" format="2">
  <advance width="290"/>
  <unicode hex="00BA"/>
  <outline>
    <contour>
      <point x="27" y="241" type="line"/>
      <point x="272" y="241" type="line"/>
      <point x="272" y="327" type="line"/>
      <point x="27" y="327" type="line"/>
    </contour>
    <component base="o.superior" xOffset="8"/>
  </outline>
</glyph>
<glyph name="questiondown" format="2">
  <advance width="361"/>
  <unicode hex="00BF"/>
  <outline>
    <contour>
      <point x="288" y="280" type="line"/>
      <point x="135" y="280" type="line"/>
      <point x="135" y="207" type="line"/>
      <point x="58" y="169"/>
      <point x="27" y="84"/>
      <point x="27" y="-10" type="curve" smooth="yes"/>
      <point x="27" y="-138"/>
      <point x="95" y="-210"/>
      <point x="227" y="-210" type="curve" smooth="yes"/>
      <point x="285" y="-210"/>
      <point x="338" y="-190"/>
      <point x="374" y="-162" type="curve"/>
      <point x="311" y="4" type="line"/>
      <point x="284" y="-16"/>
      <point x="272" y="-16"/>
      <point x="256" y="-16" type="curve" smooth="yes"/>
      <point x="224" y="-16"/>
      <point x="209" y="4"/>
      <point x="209" y="28" type="curve" smooth="yes"/>
      <point x="209" y="56"/>
      <point x="221" y="95"/>
      <point x="292" y="129" type="curve"/>
    </contour>
    <contour>
      <point x="304" y="432" type="curve" smooth="yes"/>
      <point x="304" y="510"/>
      <point x="277" y="549"/>
      <point x="211" y="549" type="curve" smooth="yes"/>
      <point x="147" y="549"/>
      <point x="118" y="510"/>
      <point x="118" y="432" type="curve" smooth="yes"/>
      <point x="118" y="353"/>
      <point x="147" y="314"/>
      <point x="211" y="314" type="curve" smooth="yes"/>
      <point x="277" y="314"/>
      <point x="304" y="353"/>
    </contour>
  </outline>
</glyph>
<glyph name="multiply" format="2">
  <advance width="420"/>
  <unicode hex="00D7"/>
  <outline>
    <contour>
      <point x="144" y="162" type="line"/>
      <point x="210" y="228" type="line"/>
      <point x="276" y="162" type="line"/>
      <point x="389" y="275" type="line"/>
      <point x="323" y="341" type="line"/>
      <point x="389" y="407" type="line"/>
      <point x="276" y="520" type="line"/>
      <point x="210" y="454" type="line"/>
      <point x="144" y="520" type="line"/>
      <point x="31" y="407" type="line"/>
      <point x="97" y="341" type="line"/>
      <point x="31" y="275" type="line"/>
    </contour>
  </outline>
</glyph>
<glyph name="Thorn" format="2">
  <advance width="437"/>
  <unicode hex="00DE"/>
  <outline>
    <contour>
      <point x="22" y="0" type="line"/>
      <point x="198" y="0" type="line"/>
      <point x="198" y="96" type="line"/>
      <point x="226" y="92"/>
      <point x="230" y="92"/>
      <point x="252" y="92" type="curve" smooth="yes"/>
      <point x="374" y="92"/>
      <point x="427" y="187"/>
      <point x="427" y="377" type="curve" smooth="yes"/>
      <point x="427" y="559"/>
      <point x="373" y="649"/>
      <point x="212" y="649" type="curve" smooth="yes"/>
      <point x="208" y="649"/>
      <point x="203" y="649"/>
      <point x="199" y="649" type="curve"/>
      <point x="199" y="700" type="line"/>
      <point x="22" y="700" type="line"/>
    </contour>
    <contour>
      <point x="219" y="267" type="curve" smooth="yes"/>
      <point x="212" y="267"/>
      <point x="208" y="267"/>
      <point x="199" y="269" type="curve"/>
      <point x="199" y="478" type="line"/>
      <point x="210" y="481"/>
      <point x="220" y="481"/>
      <point x="224" y="481" type="curve" smooth="yes"/>
      <point x="244" y="481"/>
      <point x="251" y="452"/>
      <point x="251" y="389" type="curve" smooth="yes"/>
      <point x="251" y="325"/>
      <point x="249" y="267"/>
    </contour>
  </outline>
</glyph>
<glyph name="ae" format="2">
  <advance width="590"/>
  <unicode hex="00E6"/>
  <anchor x="295" y="550" name="top"/>
  <outline>
    <contour>
      <point x="135" y="-10" type="curve" smooth="yes"/>
      <point x="190" y="-10"/>
      <point x="226" y="5"/>
      <point x="272" y="46" type="curve"/>
      <point x="273" y="46" type="line"/>
      <point x="311" y="8"/>
      <point x="355" y="-10"/>
      <point x="416" y="-10" type="curve" smooth="yes"/>
      <point x="470" y="-10"/>
      <point x="522" y="3"/>
      <point x="578" y="28" type="curve"/>
      <point x="554" y="187" type="line"/>
      <point x="516" y="176"/>
      <point x="469" y="167"/>
      <point x="450" y="167" type="curve" smooth="yes"/>
      <point x="404" y="167"/>
      <point x="381" y="178"/>
      <point x="381" y="200" type="curve" smooth="yes"/>
      <point x="381" y="203"/>
      <point x="381" y="205"/>
      <point x="381" y="208" type="curve"/>
      <point x="434" y="213"/>
      <point x="537" y="225"/>
      <point x="577" y="231" type="curve"/>
      <point x="578" y="252"/>
      <point x="579" y="284"/>
      <point x="579" y="299" type="curve" smooth="yes"/>
      <point x="579" y="490"/>
      <point x="529" y="560"/>
      <point x="398" y="560" type="curve" smooth="yes"/>
      <point x="359" y="560"/>
      <point x="327" y="549"/>
      <point x="295" y="526" type="curve"/>
      <point x="294" y="526" type="line"/>
      <point x="255" y="550"/>
      <point x="220" y="560"/>
      <point x="176" y="560" type="curve" smooth="yes"/>
      <point x="131" y="560"/>
      <point x="63" y="545"/>
      <point x="19" y="526" type="curve"/>
      <point x="56" y="359" type="line"/>
      <point x="112" y="377"/>
      <point x="144" y="377"/>
      <point x="160" y="377" type="curve" smooth="yes"/>
      <point x="185" y="377"/>
      <point x="203" y="365"/>
      <point x="203" y="346" type="curve" smooth="yes"/>
      <point x="203" y="345" type="line"/>
      <point x="59" y="333"/>
      <point x="4" y="285"/>
      <point x="4" y="164" type="curve" smooth="yes"/>
      <point x="4" y="56"/>
      <point x="54" y="-10"/>
    </contour>
    <contour>
      <point x="192" y="135" type="curve" smooth="yes"/>
      <point x="182" y="135"/>
      <point x="174" y="149"/>
      <point x="174" y="182" type="curve" smooth="yes"/>
      <point x="174" y="219"/>
      <point x="181" y="234"/>
      <point x="204" y="237" type="curve"/>
      <point x="204" y="225"/>
      <point x="204" y="210"/>
      <point x="204" y="198" type="curve" smooth="yes"/>
      <point x="204" y="180"/>
      <point x="204" y="159"/>
      <point x="204" y="141" type="curve"/>
      <point x="203" y="138"/>
      <point x="196" y="135"/>
    </contour>
    <contour>
      <point x="379" y="316" type="curve"/>
      <point x="376" y="397"/>
      <point x="381" y="415"/>
      <point x="390" y="415" type="curve" smooth="yes"/>
      <point x="402" y="415"/>
      <point x="405" y="395"/>
      <point x="407" y="318" type="curve"/>
      <point x="403" y="317"/>
      <point x="386" y="316"/>
    </contour>
  </outline>
</glyph>
<glyph name="divide" format="2">
  <advance width="420"/>
  <unicode hex="00F7"/>
  <outline>
    <contour>
      <point x="120" y="128" type="curve" smooth="yes"/>
      <point x="120" y="70"/>
      <point x="148" y="40"/>
      <point x="210" y="40" type="curve" smooth="yes"/>
      <point x="271" y="40"/>
      <point x="300" y="70"/>
      <point x="300" y="128" type="curve" smooth="yes"/>
      <point x="300" y="187"/>
      <point x="271" y="217"/>
      <point x="210" y="217" type="curve" smooth="yes"/>
      <point x="148" y="217"/>
      <point x="120" y="187"/>
    </contour>
    <contour>
      <point x="120" y="531" type="curve" smooth="yes"/>
      <point x="120" y="473"/>
      <point x="148" y="443"/>
      <point x="210" y="443" type="curve" smooth="yes"/>
      <point x="271" y="443"/>
      <point x="300" y="473"/>
      <point x="300" y="531" type="curve" smooth="yes"/>
      <point x="300" y="590"/>
      <point x="271" y="620"/>
      <point x="210" y="620" type="curve" smooth="yes"/>
      <point x="148" y="620"/>
      <point x="120" y="590"/>
    </contour>
    <contour>
      <point x="42" y="251" type="line"/>
      <point x="378" y="251" type="line"/>
      <point x="378" y="411" type="line"/>
      <point x="42" y="411" type="line"/>
    </contour>
  </outline>
</glyph>
<glyph name="oslash" format="2">
  <advance width="418"/>
  <unicode hex="00F8"/>
  <anchor x="208" y="550" name="top"/>
  <outline>
    <contour>
      <point x="208" y="-10" type="curve" smooth="yes"/>
      <point x="41" y="-10"/>
      <point x="10" y="119"/>
      <point x="10" y="276" type="curve" smooth="yes"/>
      <point x="10" y="433"/>
      <point x="41" y="560"/>
      <point x="208" y="560" type="curve" smooth="yes"/>
      <point x="375" y="560"/>
      <point x="407" y="433"/>
      <point x="407" y="276" type="curve" smooth="yes"/>
      <point x="407" y="119"/>
      <point x="375" y="-10"/>
    </contour>
    <contour>
      <point x="208" y="144" type="curve" smooth="yes"/>
      <point x="229" y="144"/>
      <point x="233" y="153"/>
      <point x="233" y="276" type="curve" smooth="yes"/>
      <point x="233" y="399"/>
      <point x="229" y="407"/>
      <point x="208" y="407" type="curve" smooth="yes"/>
      <point x="185" y="407"/>
      <point x="183" y="399"/>
      <point x="183" y="276" type="curve" smooth="yes"/>
      <point x="183" y="153"/>
      <point x="185" y="144"/>
    </contour>
    <contour>
      <point x="7" y="0" type="line"/>
      <point x="88" y="139" type="line"/>
      <point x="91" y="139" type="line"/>
      <point x="279" y="461" type="line"/>
      <point x="282" y="461" type="line"/>
      <point x="340" y="560" type="line"/>
      <point x="410" y="560" type="line"/>
      <point x="328" y="421" type="line"/>
      <point x="325" y="421" type="line"/>
      <point x="135" y="95" type="line"/>
      <point x="132" y="95" type="line"/>
      <point x="76" y="0" type="line"/>
    </contour>
  </outline>
</glyph>
<glyph name="thorn" format="2">
  <advance width="415"/>
  <unicode hex="00FE"/>
  <outline>
    <contour>
      <point x="19" y="-210" type="line"/>
      <point x="192" y="-210" type="line"/>
      <point x="192" y="-10" type="line"/>
      <point x="195" y="-10"/>
      <point x="197" y="-10"/>
      <point x="200" y="-10" type="curve" smooth="yes"/>
      <point x="350" y="-10"/>
      <point x="405" y="72"/>
      <point x="405" y="294" type="curve" smooth="yes"/>
      <point x="405" y="479"/>
      <point x="362" y="560"/>
      <point x="264" y="560" type="curve" smooth="yes"/>
      <point x="243" y="560"/>
      <point x="212" y="549"/>
      <point x="194" y="535" type="curve"/>
      <point x="194" y="740" type="line"/>
      <point x="19" y="740" type="line"/>
    </contour>
    <contour>
      <point x="204" y="136" type="curve" smooth="yes"/>
      <point x="202" y="136"/>
      <point x="199" y="137"/>
      <point x="195" y="139" type="curve"/>
      <point x="195" y="384" type="line"/>
      <point x="199" y="388"/>
      <point x="200" y="390"/>
      <point x="205" y="390" type="curve" smooth="yes"/>
      <point x="217" y="390"/>
      <point x="219" y="372"/>
      <point x="219" y="273" type="curve" smooth="yes"/>
      <point x="219" y="156"/>
      <point x="217" y="136"/>
    </contour>
  </outline>
</glyph>
<glyph name="Dcroat" format="2">
  <advance width="435"/>
  <unicode hex="0110"/>
  <outline>
    <contour>
      <point x="-3" y="268" type="line"/>
      <point x="218" y="268" type="line"/>
      <point x="218" y="431" type="line"/>
      <point x="-3" y="431" type="line"/>
    </contour>
    <component base="D"/>
  </outline>
</glyph>
<glyph name="dcroat" format="2">
  <advance width="423"/>
  <unicode hex="0111"/>
  <outline>
    <contour>
      <point x="144" y="605" type="line"/>
      <point x="435" y="605" type="line"/>
      <point x="435" y="709" type="line"/>
      <point x="144" y="709" type="line"/>
    </contour>
    <component base="d"/>
  </outline>
</glyph>
<glyph name="hbar" format="2">
  <advance width="416"/>
  <unicode hex="0127"/>
  <outline>
    <contour>
      <point x="-8" y="605" type="line"/>
      <point x="262" y="605" type="line"/>
      <point x="262" y="709" type="line"/>
      <point x="-8" y="709" type="line"/>
    </contour>
    <component base="h"/>
  </outline>
</glyph>
<glyph name="dotlessi" format="2">
  <advance width="216"/>
  <unicode hex="0131"/>
  <anchor x="193" y="10" name="ogonek"/>
  <anchor x="110" y="0" name="bottom"/>
  <anchor x="108" y="550" name="top"/>
  <outline>
    <contour>
      <point x="19" y="0" type="line"/>
      <point x="197" y="0" type="line"/>
      <point x="197" y="550" type="line"/>
      <point x="19" y="550" type="line"/>
    </contour>
  </outline>
</glyph>
<glyph name="ldot" format="2">
  <advance width="361"/>
  <unicode hex="0140"/>
  <outline>
    <contour>
      <point x="286" y="299" type="curve" smooth="yes"/>
      <point x="323" y="299"/>
      <point x="347" y="322"/>
      <point x="347" y="376" type="curve" smooth="yes"/>
      <point x="347" y="431"/>
      <point x="323" y="454"/>
      <point x="286" y="454" type="curve" smooth="yes"/>
      <point x="250" y="454"/>
      <point x="226" y="431"/>
      <point x="226" y="376" type="curve" smooth="yes"/>
      <point x="226" y="322"/>
      <point x="250" y="299"/>
    </contour>
    <component base="l"/>
  </outline>
</glyph>
<glyph name="Lslash" format="2">
  <advance width="362"/>
  <unicode hex="0141"/>
  <outline>
    <contour>
      <point x="6" y="211" type="line"/>
      <point x="39" y="230" type="line"/>
      <point x="39" y="0" type="line"/>
      <point x="352" y="0" type="line"/>
      <point x="352" y="178" type="line"/>
      <point x="215" y="178" type="line"/>
      <point x="215" y="321" type="line"/>
      <point x="307" y="369" type="line"/>
      <point x="307" y="543" type="line"/>
      <point x="215" y="495" type="line"/>
      <point x="215" y="700" type="line"/>
      <point x="39" y="700" type="line"/>
      <point x="39" y="404" type="line"/>
      <point x="6" y="385" type="line"/>
    </contour>
  </outline>
</glyph>
<glyph name="Eng" format="2">
  <advance width="452"/>
  <unicode hex="014A"/>
  <outline>
    <contour>
      <point x="22" y="0" type="line"/>
      <point x="176" y="0" type="line"/>
      <point x="176" y="274" type="line"/>
      <point x="259" y="-7" type="line"/>
      <point x="259" y="-8" type="line"/>
      <point x="259" y="-20"/>
      <point x="249" y="-29"/>
      <point x="233" y="-29" type="curve" smooth="yes"/>
      <point x="220" y="-29"/>
      <point x="208" y="-29"/>
      <point x="189" y="-20" type="curve"/>
      <point x="156" y="-185" type="line"/>
      <point x="185" y="-204"/>
      <point x="220" y="-220"/>
      <point x="280" y="-220" type="curve" smooth="yes"/>
      <point x="375" y="-220"/>
      <point x="430" y="-151"/>
      <point x="430" y="-16" type="curve" smooth="yes"/>
      <point x="430" y="700" type="line"/>
      <point x="276" y="700" type="line"/>
      <point x="276" y="394" type="line"/>
      <point x="209" y="700" type="line"/>
      <point x="22" y="700" type="line"/>
    </contour>
  </outline>
</glyph>
<glyph name="OE" format="2">
  <advance width="578"/>
  <unicode hex="0152"/>
  <outline>
    <contour>
      <point x="566" y="0" type="line"/>
      <point x="566" y="178" type="line"/>
      <point x="414" y="178" type="line"/>
      <point x="414" y="264" type="line"/>
      <point x="532" y="264" type="line"/>
      <point x="532" y="432" type="line"/>
      <point x="414" y="432" type="line"/>
      <point x="414" y="517" type="line"/>
      <point x="555" y="517" type="line"/>
      <point x="555" y="700" type="line"/>
      <point x="363" y="700" type="line"/>
      <point x="317" y="708"/>
      <point x="274" y="710"/>
      <point x="240" y="710" type="curve" smooth="yes"/>
      <point x="66" y="710"/>
      <point x="9" y="587"/>
      <point x="9" y="354" type="curve" smooth="yes"/>
      <point x="9" y="68"/>
      <point x="87" y="-10"/>
      <point x="232" y="-10" type="curve" smooth="yes"/>
      <point x="274" y="-10"/>
      <point x="341" y="-9"/>
      <point x="413" y="0" type="curve"/>
    </contour>
    <contour>
      <point x="238" y="163" type="line"/>
      <point x="232" y="161"/>
      <point x="224" y="159"/>
      <point x="218" y="159" type="curve" smooth="yes"/>
      <point x="195" y="159"/>
      <point x="191" y="206"/>
      <point x="191" y="350" type="curve" smooth="yes"/>
      <point x="191" y="499"/>
      <point x="192" y="539"/>
      <point x="220" y="539" type="curve" smooth="yes"/>
      <point x="228" y="539"/>
      <point x="228" y="537"/>
      <point x="238" y="535" type="curve"/>
    </contour>
  </outline>
</glyph>
<glyph name="oe" format="2">
  <advance width="621"/>
  <unicode hex="0153"/>
  <outline>
    <contour>
      <point x="10" y="276" type="curve" smooth="yes"/>
      <point x="10" y="119"/>
      <point x="41" y="-10"/>
      <point x="208" y="-10" type="curve" smooth="yes"/>
      <point x="252" y="-10"/>
      <point x="287" y="6"/>
      <point x="314" y="22" type="curve"/>
      <point x="349" y="6"/>
      <point x="386" y="-10"/>
      <point x="448" y="-10" type="curve" smooth="yes"/>
      <point x="508" y="-10"/>
      <point x="560" y="4"/>
      <point x="607" y="28" type="curve"/>
      <point x="583" y="189" type="line"/>
      <point x="531" y="174"/>
      <point x="486" y="169"/>
      <point x="475" y="169" type="curve" smooth="yes"/>
      <point x="443" y="169"/>
      <point x="404" y="172"/>
      <point x="404" y="200" type="curve" smooth="yes"/>
      <point x="404" y="203"/>
      <point x="404" y="205"/>
      <point x="404" y="208" type="curve"/>
      <point x="463" y="213"/>
      <point x="575" y="226"/>
      <point x="608" y="231" type="curve"/>
      <point x="609" y="250"/>
      <point x="610" y="282"/>
      <point x="610" y="299" type="curve" smooth="yes"/>
      <point x="610" y="468"/>
      <point x="570" y="560"/>
      <point x="419" y="560" type="curve" smooth="yes"/>
      <point x="378" y="560"/>
      <point x="345" y="542"/>
      <point x="318" y="524" type="curve"/>
      <point x="284" y="545"/>
      <point x="247" y="560"/>
      <point x="208" y="560" type="curve" smooth="yes"/>
      <point x="41" y="560"/>
      <point x="10" y="433"/>
    </contour>
    <contour>
      <point x="192" y="276" type="curve" smooth="yes"/>
      <point x="192" y="387"/>
      <point x="193" y="394"/>
      <point x="208" y="394" type="curve" smooth="yes"/>
      <point x="222" y="394"/>
      <point x="224" y="387"/>
      <point x="224" y="276" type="curve" smooth="yes"/>
      <point x="224" y="165"/>
      <point x="222" y="157"/>
      <point x="208" y="157" type="curve" smooth="yes"/>
      <point x="193" y="157"/>
      <point x="192" y="165"/>
    </contour>
    <contour>
      <point x="404" y="316" type="curve"/>
      <point x="404" y="410"/>
      <point x="408" y="415"/>
      <point x="418" y="415" type="curve" smooth="yes"/>
      <point x="426" y="415"/>
      <point x="436" y="399"/>
      <point x="436" y="318" type="curve"/>
      <point x="425" y="317"/>
      <point x="412" y="316"/>
    </contour>
  </outline>
</glyph>
<glyph name="uni0162" format="2">
  <advance width="396"/>
  <unicode hex="0162"/>
  <outline>
    <contour>
      <point x="83" y="-93" type="curve"/>
      <point x="84" y="-210" type="line"/>
      <point x="108" y="-218"/>
      <point x="129" y="-220"/>
      <point x="151" y="-220" type="curve" smooth="yes"/>
      <point x="238" y="-220"/>
      <point x="265" y="-172"/>
      <point x="265" y="-106" type="curve" smooth="yes"/>
      <point x="265" y="-72"/>
      <point x="249" y="-16"/>
      <point x="238" y="6" type="curve"/>
      <point x="138" y="6" type="line"/>
      <point x="150" y="-11"/>
      <point x="160" y="-45"/>
      <point x="160" y="-60" type="curve" smooth="yes"/>
      <point x="160" y="-84"/>
      <point x="141" y="-97"/>
      <point x="121" y="-97" type="curve" smooth="yes"/>
      <point x="110" y="-97"/>
      <point x="101" y="-96"/>
    </contour>
    <component base="T"/>
  </outline>
</glyph>
<glyph name="florin" format="2">
  <advance width="420"/>
  <unicode hex="0192"/>
  <outline>
    <contour>
      <point x="81" y="403" type="line"/>
      <point x="57" y="260" type="line"/>
      <point x="96" y="260" type="line"/>
      <point x="21" y="-210" type="line"/>
      <point x="184" y="-210" type="line"/>
      <point x="259" y="260" type="line"/>
      <point x="300" y="260" type="line"/>
      <point x="324" y="410" type="line"/>
      <point x="283" y="410" type="line"/>
      <point x="294" y="480" type="line" smooth="yes"/>
      <point x="300" y="516"/>
      <point x="309" y="528"/>
      <point x="329" y="528" type="curve" smooth="yes"/>
      <point x="337" y="528"/>
      <point x="344" y="527"/>
      <point x="359" y="521" type="curve"/>
      <point x="415" y="681" type="line"/>
      <point x="377" y="702"/>
      <point x="347" y="710"/>
      <point x="306" y="710" type="curve" smooth="yes"/>
      <point x="219" y="710"/>
      <point x="157" y="635"/>
      <point x="135" y="504" type="curve" smooth="yes"/>
      <point x="120" y="410" type="line"/>
    </contour>
  </outline>
</glyph>
<glyph name="uni0237" format="2">
  <advance width="213"/>
  <unicode hex="0237"/>
  <anchor x="106" y="550" name="top"/>
  <outline>
    <contour>
      <point x="194" y="5" type="curve" smooth="yes"/>
      <point x="194" y="550" type="line"/>
      <point x="19" y="550" type="line"/>
      <point x="19" y="21" type="line"/>
      <point x="19" y="-21"/>
      <point x="12" y="-33"/>
      <point x="-10" y="-33" type="curve" smooth="yes"/>
      <point x="-22" y="-33"/>
      <point x="-32" y="-30"/>
      <point x="-47" y="-25" type="curve"/>
      <point x="-74" y="-202" type="line"/>
      <point x="-38" y="-214"/>
      <point x="-6" y="-220"/>
      <point x="24" y="-220" type="curve" smooth="yes"/>
      <point x="149" y="-220"/>
      <point x="194" y="-146"/>
    </contour>
  </outline>
</glyph>
<glyph name="uni0259" format="2">
  <advance width="408"/>
  <unicode hex="0259"/>
  <outline>
    <contour>
      <point x="15" y="319" type="curve"/>
      <point x="14" y="299"/>
      <point x="13" y="267"/>
      <point x="13" y="251" type="curve" smooth="yes"/>
      <point x="13" y="82"/>
      <point x="53" y="-10"/>
      <point x="204" y="-10" type="curve" smooth="yes"/>
      <point x="340" y="-10"/>
      <point x="398" y="94"/>
      <point x="398" y="283" type="curve" smooth="yes"/>
      <point x="398" y="467"/>
      <point x="341" y="560"/>
      <point x="205" y="560" type="curve" smooth="yes"/>
      <point x="127" y="560"/>
      <point x="69" y="546"/>
      <point x="16" y="522" type="curve"/>
      <point x="40" y="361" type="line"/>
      <point x="92" y="376"/>
      <point x="137" y="381"/>
      <point x="148" y="381" type="curve" smooth="yes"/>
      <point x="180" y="381"/>
      <point x="214" y="378"/>
      <point x="214" y="350" type="curve" smooth="yes"/>
      <point x="214" y="347"/>
      <point x="214" y="345"/>
      <point x="214" y="342" type="curve"/>
      <point x="155" y="337"/>
      <point x="48" y="324"/>
    </contour>
    <contour>
      <point x="216" y="232" type="curve"/>
      <point x="216" y="142"/>
      <point x="213" y="137"/>
      <point x="205" y="137" type="curve" smooth="yes"/>
      <point x="198" y="137"/>
      <point x="190" y="153"/>
      <point x="190" y="230" type="curve"/>
      <point x="197" y="231"/>
      <point x="210" y="232"/>
    </contour>
  </outline>
</glyph>
<glyph name="gravecomb" format="2">
  <unicode hex="0300"/>
  <anchor x="-281" y="789" name="top"/>
  <anchor x="-214" y="550" name="_top"/>
  <outline>
    <contour>
      <point x="-284" y="595" type="line"/>
      <point x="-143" y="595" type="line"/>
      <point x="-193" y="789" type="line"/>
      <point x="-376" y="789" type="line"/>
    </contour>
  </outline>
</glyph>
<glyph name="acutecomb" format="2">
  <unicode hex="0301"/>
  <anchor x="-165" y="789" name="top"/>
  <anchor x="-214" y="550" name="_top"/>
  <outline>
    <contour>
      <point x="-278" y="595" type="line"/>
      <point x="-146" y="595" type="line"/>
      <point x="-53" y="789" type="line"/>
      <point x="-228" y="789" type="line"/>
    </contour>
  </outline>
</glyph>
<glyph name="uni0302" format="2">
  <unicode hex="0302"/>
  <anchor x="-214" y="781" name="top"/>
  <anchor x="-214" y="550" name="_top"/>
  <anchor x="-10" y="651" name="top_viet"/>
  <outline>
    <contour>
      <point x="-366" y="595" type="line"/>
      <point x="-225" y="595" type="line"/>
      <point x="-214" y="709" type="line"/>
      <point x="-203" y="595" type="line"/>
      <point x="-62" y="595" type="line"/>
      <point x="-118" y="789" type="line"/>
      <point x="-310" y="789" type="line"/>
    </contour>
  </outline>
</glyph>
<glyph name="uni0307" format="2">
  <unicode hex="0307"/>
  <anchor x="-214" y="749" name="top"/>
  <anchor x="-214" y="550" name="_top"/>
  <outline>
    <contour>
      <point x="-214" y="589" type="curve" smooth="yes"/>
      <point x="-172" y="589"/>
      <point x="-142" y="606"/>
      <point x="-142" y="676" type="curve" smooth="yes"/>
      <point x="-142" y="746"/>
      <point x="-172" y="763"/>
      <point x="-214" y="763" type="curve" smooth="yes"/>
      <point x="-256" y="763"/>
      <point x="-286" y="746"/>
      <point x="-286" y="676" type="curve" smooth="yes"/>
      <point x="-286" y="606"/>
      <point x="-256" y="589"/>
    </contour>
  </outline>
</glyph>
<glyph name="hookabovecomb" format="2">
  <unicode hex="0309"/>
  <anchor x="-225" y="807" name="top"/>
  <anchor x="-214" y="550" name="_top"/>
  <outline>
    <contour>
      <point x="-250" y="587" type="line"/>
      <point x="-149" y="604"/>
      <point x="-117" y="654"/>
      <point x="-117" y="708" type="curve" smooth="yes"/>
      <point x="-117" y="781"/>
      <point x="-164" y="806"/>
      <point x="-225" y="806" type="curve" smooth="yes"/>
      <point x="-258" y="806"/>
      <point x="-290" y="799"/>
      <point x="-307" y="794" type="curve"/>
      <point x="-307" y="701" type="line"/>
      <point x="-293" y="704"/>
      <point x="-283" y="706"/>
      <point x="-268" y="706" type="curve" smooth="yes"/>
      <point x="-243" y="706"/>
      <point x="-231" y="696"/>
      <point x="-231" y="683" type="curve" smooth="yes"/>
      <point x="-231" y="671"/>
      <point x="-237" y="661"/>
      <point x="-262" y="655" type="curve"/>
    </contour>
  </outline>
</glyph>
<glyph name="uni030A" format="2">
  <unicode hex="030A"/>
  <anchor x="-214" y="790" name="top"/>
  <anchor x="-214" y="550" name="_top"/>
  <outline>
    <contour>
      <point x="-214" y="586" type="curve" smooth="yes"/>
      <point x="-148" y="586"/>
      <point x="-107" y="627"/>
      <point x="-107" y="693" type="curve" smooth="yes"/>
      <point x="-107" y="759"/>
      <point x="-148" y="800"/>
      <point x="-214" y="800" type="curve" smooth="yes"/>
      <point x="-280" y="800"/>
      <point x="-321" y="759"/>
      <point x="-321" y="693" type="curve" smooth="yes"/>
      <point x="-321" y="627"/>
      <point x="-280" y="586"/>
    </contour>
    <contour>
      <point x="-214" y="672" type="curve" smooth="yes"/>
      <point x="-226" y="672"/>
      <point x="-232" y="678"/>
      <point x="-232" y="693" type="curve" smooth="yes"/>
      <point x="-232" y="708"/>
      <point x="-226" y="714"/>
      <point x="-214" y="714" type="curve" smooth="yes"/>
      <point x="-202" y="714"/>
      <point x="-196" y="708"/>
      <point x="-196" y="693" type="curve" smooth="yes"/>
      <point x="-196" y="678"/>
      <point x="-202" y="672"/>
    </contour>
  </outline>
</glyph>
<glyph name="uni0326" format="2">
  <unicode hex="0326"/>
  <anchor x="-214" y="0" name="_bottom"/>
  <outline>
    <contour>
      <point x="-312" y="-206" type="curve"/>
      <point x="-198" y="-206" type="line"/>
      <point x="-161" y="-168"/>
      <point x="-140" y="-110"/>
      <point x="-140" y="-51" type="curve" smooth="yes"/>
      <point x="-140" y="-47"/>
      <point x="-140" y="-43"/>
      <point x="-140" y="-39" type="curve"/>
      <point x="-285" y="-39" type="line"/>
      <point x="-284" y="-49"/>
      <point x="-283" y="-60"/>
      <point x="-283" y="-71" type="curve" smooth="yes"/>
      <point x="-283" y="-113"/>
      <point x="-290" y="-161"/>
    </contour>
  </outline>
</glyph>
<glyph name="uni0328" format="2">
  <unicode hex="0328"/>
  <anchor x="-145" y="0" name="_ogonek"/>
  <outline>
    <contour>
      <point x="-211" y="-220" type="curve" smooth="yes"/>
      <point x="-179" y="-220"/>
      <point x="-159" y="-216"/>
      <point x="-141" y="-208" type="curve"/>
      <point x="-149" y="-71" type="line"/>
      <point x="-152" y="-72"/>
      <point x="-157" y="-73"/>
      <point x="-164" y="-73" type="curve" smooth="yes"/>
      <point x="-177" y="-73"/>
      <point x="-187" y="-64"/>
      <point x="-187" y="-50" type="curve" smooth="yes"/>
      <point x="-187" y="-31"/>
      <point x="-177" y="-20"/>
      <point x="-145" y="0" type="curve"/>
      <point x="-239" y="10" type="line"/>
      <point x="-294" y="-9"/>
      <point x="-330" y="-56"/>
      <point x="-330" y="-116" type="curve" smooth="yes"/>
      <point x="-330" y="-183"/>
      <point x="-286" y="-220"/>
    </contour>
  </outline>
</glyph>
<glyph name="emdash" format="2">
  <advance width="626"/>
  <unicode hex="2014"/>
  <outline>
    <contour>
      <point x="20" y="234" type="line"/>
      <point x="606" y="234" type="line"/>
      <point x="606" y="402" type="line"/>
      <point x="20" y="402" type="line"/>
    </contour>
  </outline>
</glyph>
<glyph name="quoteleft" format="2">
  <advance width="194"/>
  <unicode hex="2018"/>
  <outline>
    <contour>
      <point x="6" y="430" type="curve"/>
      <point x="173" y="430" type="line"/>
      <point x="171" y="455"/>
      <point x="170" y="479"/>
      <point x="170" y="504" type="curve" smooth="yes"/>
      <point x="170" y="554"/>
      <point x="175" y="607"/>
      <point x="188" y="678" type="curve"/>
      <point x="51" y="700" type="line"/>
      <point x="21" y="633"/>
      <point x="6" y="564"/>
      <point x="6" y="465" type="curve" smooth="yes"/>
      <point x="6" y="453"/>
      <point x="6" y="442"/>
    </contour>
  </outline>
</glyph>
<glyph name="daggerdbl" format="2">
  <advance width="400"/>
  <unicode hex="2021"/>
  <outline>
    <contour>
      <point x="376" y="-10" type="line"/>
      <point x="376" y="168" type="line"/>
      <point x="291" y="168" type="line"/>
      <point x="291" y="372" type="line"/>
      <point x="376" y="372" type="line"/>
      <point x="376" y="550" type="line"/>
      <point x="291" y="550" type="line"/>
      <point x="291" y="740" type="line"/>
      <point x="109" y="740" type="line"/>
      <point x="109" y="550" type="line"/>
      <point x="24" y="550" type="line"/>
      <point x="24" y="372" type="line"/>
      <point x="109" y="372" type="line"/>
      <point x="109" y="168" type="line"/>
      <point x="24" y="168" type="line"/>
      <point x="24" y="-10" type="line"/>
      <point x="109" y="-10" type="line"/>
      <point x="109" y="-210" type="line"/>
      <point x="291" y="-210" type="line"/>
      <point x="291" y="-10" type="line"/>
    </contour>
  </outline>
</glyph>
<glyph name="bullet" format="2">
  <advance width="400"/>
  <unicode hex="2022"/>
  <outline>
    <contour>
      <point x="200" y="134" type="curve" smooth="yes"/>
      <point x="288" y="134"/>
      <point x="360" y="206"/>
      <point x="360" y="293" type="curve" smooth="yes"/>
      <point x="360" y="382"/>
      <point x="288" y="454"/>
      <point x="200" y="454" type="curve" smooth="yes"/>
      <point x="112" y="454"/>
      <point x="40" y="382"/>
      <point x="40" y="293" type="curve" smooth="yes"/>
      <point x="40" y="206"/>
      <point x="112" y="134"/>
    </contour>
  </outline>
</glyph>
<glyph name="minute" format="2">
  <advance width="197"/>
  <unicode hex="2032"/>
  <outline>
    <contour>
      <point x="4" y="427" type="line"/>
      <point x="150" y="427" type="line"/>
      <point x="193" y="700" type="line"/>
      <point x="28" y="700" type="line"/>
    </contour>
  </outline>
</glyph>
<glyph name="guilsinglleft" format="2">
  <advance width="235"/>
  <unicode hex="2039"/>
  <outline>
    <contour>
      <point x="8" y="116" type="line"/>
      <point x="227" y="-11" type="line"/>
      <point x="227" y="225" type="line"/>
      <point x="105" y="269" type="line"/>
      <point x="227" y="312" type="line"/>
      <point x="227" y="548" type="line"/>
      <point x="8" y="420" type="line"/>
    </contour>
  </outline>
</glyph>
<glyph name="guilsinglright" format="2">
  <advance width="235"/>
  <unicode hex="203A"/>
  <outline>
    <contour>
      <point x="227" y="420" type="line"/>
      <point x="8" y="548" type="line"/>
      <point x="8" y="312" type="line"/>
      <point x="130" y="268" type="line"/>
      <point x="8" y="225" type="line"/>
      <point x="8" y="-11" type="line"/>
      <point x="227" y="116" type="line"/>
    </contour>
  </outline>
</glyph>
<glyph name="uni2070" format="2">
  <advance width="295"/>
  <unicode hex="2070"/>
  <outline>
    <contour>
      <point x="18" y="571" type="curve" smooth="yes"/>
      <point x="18" y="420"/>
      <point x="50" y="366"/>
      <point x="148" y="366" type="curve" smooth="yes"/>
      <point x="244" y="366"/>
      <point x="277" y="422"/>
      <point x="277" y="571" type="curve" smooth="yes"/>
      <point x="277" y="721"/>
      <point x="253" y="777"/>
      <point x="148" y="777" type="curve" smooth="yes"/>
      <point x="49" y="777"/>
      <point x="18" y="726"/>
    </contour>
    <contour>
      <point x="134" y="564" type="curve" smooth="yes"/>
      <point x="134" y="682"/>
      <point x="138" y="682"/>
      <point x="148" y="682" type="curve" smooth="yes"/>
      <point x="158" y="682"/>
      <point x="162" y="683"/>
      <point x="162" y="564" type="curve" smooth="yes"/>
      <point x="162" y="464"/>
      <point x="160" y="461"/>
      <point x="148" y="461" type="curve" smooth="yes"/>
      <point x="136" y="461"/>
      <point x="134" y="464"/>
    </contour>
  </outline>
</glyph>
<glyph name="uni2074" format="2">
  <advance width="291"/>
  <unicode hex="2074"/>
  <outline>
    <contour>
      <point x="18" y="403" type="line"/>
      <point x="115" y="403" type="line"/>
      <point x="115" y="370" type="line"/>
      <point x="241" y="370" type="line"/>
      <point x="241" y="403" type="line"/>
      <point x="272" y="403" type="line"/>
      <point x="272" y="491" type="line"/>
      <point x="241" y="491" type="line"/>
      <point x="241" y="767" type="line"/>
      <point x="97" y="767" type="line"/>
      <point x="18" y="498" type="line"/>
    </contour>
    <contour>
      <point x="78" y="491" type="line"/>
      <point x="121" y="652" type="line"/>
      <point x="121" y="491" type="line"/>
    </contour>
  </outline>
</glyph>
<glyph name="uni207E" format="2">
  <advance width="170"/>
  <unicode hex="207E"/>
  <outline>
    <contour>
      <point x="14" y="284" type="line"/>
      <point x="103" y="297"/>
      <point x="146" y="388"/>
      <point x="146" y="559" type="curve" smooth="yes"/>
      <point x="146" y="731"/>
      <point x="103" y="822"/>
      <point x="14" y="835" type="curve"/>
      <point x="14" y="740" type="line"/>
      <point x="43" y="722"/>
      <point x="54" y="699"/>
      <point x="54" y="560" type="curve" smooth="yes"/>
      <point x="54" y="421"/>
      <point x="43" y="399"/>
      <point x="14" y="380" type="curve"/>
    </contour>
  </outline>
</glyph>
<glyph name="n.superior" format="2">
  <advance width="275"/>
  <unicode hex="207F"/>
  <outline>
    <contour>
      <point x="19" y="370" type="line"/>
      <point x="129" y="370" type="line"/>
      <point x="129" y="578" type="line"/>
      <point x="132" y="580"/>
      <point x="136" y="582"/>
      <point x="140" y="582" type="curve" smooth="yes"/>
      <point x="142" y="582"/>
      <point x="148" y="581"/>
      <point x="148" y="573" type="curve" smooth="yes"/>
      <point x="148" y="370" type="line"/>
      <point x="258" y="370" type="line"/>
      <point x="258" y="613" type="line" smooth="yes"/>
      <point x="258" y="662"/>
      <point x="236" y="689"/>
      <point x="191" y="689" type="curve" smooth="yes"/>
      <point x="168" y="689"/>
      <point x="144" y="684"/>
      <point x="118" y="663" type="curve"/>
      <point x="118" y="683" type="line"/>
      <point x="19" y="683" type="line"/>
    </contour>
  </outline>
</glyph>
<glyph name="colonmonetary" format="2">
  <advance width="420"/>
  <unicode hex="20A1"/>
  <outline>
    <contour>
      <point x="265" y="-10" type="curve" smooth="yes"/>
      <point x="316" y="-10"/>
      <point x="361" y="-1"/>
      <point x="399" y="18" type="curve"/>
      <point x="369" y="185" type="line"/>
      <point x="349" y="176"/>
      <point x="321" y="169"/>
      <point x="300" y="169" type="curve" smooth="yes"/>
      <point x="241" y="169"/>
      <point x="216" y="205"/>
      <point x="216" y="345" type="curve" smooth="yes"/>
      <point x="216" y="492"/>
      <point x="243" y="532"/>
      <point x="297" y="532" type="curve" smooth="yes"/>
      <point x="322" y="532"/>
      <point x="341" y="527"/>
      <point x="369" y="516" type="curve"/>
      <point x="404" y="681" type="line"/>
      <point x="374" y="699"/>
      <point x="322" y="710"/>
      <point x="270" y="710" type="curve" smooth="yes"/>
      <point x="113" y="710"/>
      <point x="39" y="609"/>
      <point x="39" y="350" type="curve" smooth="yes"/>
      <point x="39" y="90"/>
      <point x="109" y="-10"/>
    </contour>
    <contour>
      <point x="176" y="613" type="line"/>
      <point x="256" y="629" type="line"/>
      <point x="265" y="803" type="line"/>
      <point x="186" y="803" type="line"/>
    </contour>
    <contour>
      <point x="286" y="613" type="line"/>
      <point x="366" y="629" type="line"/>
      <point x="375" y="803" type="line"/>
      <point x="296" y="803" type="line"/>
    </contour>
    <contour>
      <point x="138" y="-105" type="line"/>
      <point x="217" y="-105" type="line"/>
      <point x="224" y="24" type="line"/>
      <point x="147" y="72" type="line"/>
    </contour>
    <contour>
      <point x="248" y="-105" type="line"/>
      <point x="327" y="-105" type="line"/>
      <point x="334" y="24" type="line"/>
      <point x="257" y="72" type="line"/>
    </contour>
  </outline>
</glyph>
<glyph name="franc" format="2">
  <advance width="420"/>
  <unicode hex="20A3"/>
  <outline>
    <contour>
      <point x="81" y="0" type="line"/>
      <point x="256" y="0" type="line"/>
      <point x="256" y="517" type="line"/>
      <point x="397" y="517" type="line"/>
      <point x="397" y="700" type="line"/>
      <point x="81" y="700" type="line"/>
    </contour>
    <contour>
      <point x="23" y="222" type="line"/>
      <point x="379" y="222" type="line"/>
      <point x="379" y="313" type="line"/>
      <point x="23" y="313" type="line"/>
    </contour>
    <contour>
      <point x="23" y="335" type="line"/>
      <point x="379" y="335" type="line"/>
      <point x="379" y="426" type="line"/>
      <point x="23" y="426" type="line"/>
    </contour>
  </outline>
</glyph>
<glyph name="uni20A9" format="2">
  <advance width="420"/>
  <unicode hex="20A9"/>
  <outline>
    <contour>
      <point x="50" y="0" type="line"/>
      <point x="191" y="0" type="line"/>
      <point x="210" y="454" type="line"/>
      <point x="225" y="0" type="line"/>
      <point x="370" y="0" type="line"/>
      <point x="404" y="700" type="line"/>
      <point x="297" y="700" type="line"/>
      <point x="285" y="176" type="line"/>
      <point x="269" y="644" type="line"/>
      <point x="155" y="644" type="line"/>
      <point x="138" y="176" type="line"/>
      <point x="127" y="700" type="line"/>
      <point x="16" y="700" type="line"/>
    </contour>
    <contour>
      <point x="2" y="305" type="line"/>
      <point x="84" y="305" type="line"/>
      <point x="84" y="396" type="line"/>
      <point x="2" y="396" type="line"/>
    </contour>
    <contour>
      <point x="336" y="305" type="line"/>
      <point x="418" y="305" type="line"/>
      <point x="418" y="396" type="line"/>
      <point x="336" y="396" type="line"/>
    </contour>
  </outline>
</glyph>
<glyph name="Euro" format="2">
  <advance width="420"/>
  <unicode hex="20AC"/>
  <outline>
    <contour>
      <point x="71" y="345" type="curve" smooth="yes"/>
      <point x="71" y="97"/>
      <point x="127" y="-10"/>
      <point x="272" y="-10" type="curve" smooth="yes"/>
      <point x="317" y="-10"/>
      <point x="354" y="-9"/>
      <point x="406" y="17" type="curve"/>
      <point x="376" y="180" type="line"/>
      <point x="334" y="168"/>
      <point x="317" y="164"/>
      <point x="291" y="164" type="curve" smooth="yes"/>
      <point x="249" y="164"/>
      <point x="238" y="218"/>
      <point x="238" y="345" type="curve" smooth="yes"/>
      <point x="238" y="490"/>
      <point x="258" y="534"/>
      <point x="299" y="534" type="curve" smooth="yes"/>
      <point x="321" y="534"/>
      <point x="362" y="527"/>
      <point x="383" y="518" type="curve"/>
      <point x="416" y="681" type="line"/>
      <point x="379" y="700"/>
      <point x="317" y="710"/>
      <point x="279" y="710" type="curve" smooth="yes"/>
      <point x="134" y="710"/>
      <point x="71" y="616"/>
    </contour>
    <contour>
      <point x="366" y="352" type="line"/>
      <point x="366" y="443" type="line"/>
      <point x="14" y="443" type="line"/>
      <point x="14" y="352" type="line"/>
    </contour>
    <contour>
      <point x="366" y="239" type="line"/>
      <point x="366" y="330" type="line"/>
      <point x="14" y="330" type="line"/>
      <point x="14" y="239" type="line"/>
    </contour>
  </outline>
</glyph>
<glyph name="uni20AD" format="2">
  <advance width="420"/>
  <unicode hex="20AD"/>
  <outline>
    <contour>
      <point x="389" y="-10" type="curve" smooth="yes"/>
      <point x="398" y="-10"/>
      <point x="406" y="-10"/>
      <point x="417" y="-8" type="curve"/>
      <point x="417" y="167" type="line"/>
      <point x="413" y="167"/>
      <point x="408" y="167"/>
      <point x="404" y="167" type="curve" smooth="yes"/>
      <point x="387" y="167"/>
      <point x="369" y="179"/>
      <point x="356" y="215" type="curve" smooth="yes"/>
      <point x="331" y="305" type="line"/>
      <point x="411" y="305" type="line"/>
      <point x="411" y="395" type="line"/>
      <point x="329" y="395" type="line"/>
      <point x="377" y="493"/>
      <point x="411" y="575"/>
      <point x="425" y="688" type="curve"/>
      <point x="286" y="700" type="line"/>
      <point x="273" y="588"/>
      <point x="235" y="480"/>
      <point x="197" y="396" type="curve"/>
      <point x="197" y="700" type="line"/>
      <point x="53" y="700" type="line"/>
      <point x="53" y="395" type="line"/>
      <point x="5" y="395" type="line"/>
      <point x="5" y="305" type="line"/>
      <point x="53" y="305" type="line"/>
      <point x="53" y="0" type="line"/>
      <point x="197" y="0" type="line"/>
      <point x="197" y="266" type="line"/>
      <point x="270" y="70" type="line" smooth="yes"/>
      <point x="289" y="19"/>
      <point x="334" y="-10"/>
    </contour>
  </outline>
</glyph>
<glyph name="uni20B2" format="2">
  <advance width="420"/>
  <unicode hex="20B2"/>
  <outline>
    <contour>
      <point x="17" y="352" type="curve" smooth="yes"/>
      <point x="17" y="102"/>
      <point x="79" y="-10"/>
      <point x="227" y="-10" type="curve" smooth="yes"/>
      <point x="293" y="-10"/>
      <point x="352" y="8"/>
      <point x="409" y="48" type="curve"/>
      <point x="409" y="415" type="line"/>
      <point x="217" y="415" type="line"/>
      <point x="217" y="244" type="line"/>
      <point x="258" y="244" type="line"/>
      <point x="258" y="146" type="line"/>
      <point x="253" y="143"/>
      <point x="242" y="140"/>
      <point x="230" y="140" type="curve" smooth="yes"/>
      <point x="202" y="140"/>
      <point x="182" y="157"/>
      <point x="182" y="338" type="curve" smooth="yes"/>
      <point x="182" y="481"/>
      <point x="216" y="545"/>
      <point x="273" y="545" type="curve" smooth="yes"/>
      <point x="300" y="545"/>
      <point x="328" y="539"/>
      <point x="359" y="526" type="curve"/>
      <point x="390" y="682" type="line"/>
      <point x="360" y="697"/>
      <point x="288" y="710"/>
      <point x="241" y="710" type="curve" smooth="yes"/>
      <point x="85" y="710"/>
      <point x="17" y="597"/>
    </contour>
    <contour>
      <point x="156" y="-105" type="line"/>
      <point x="317" y="-105" type="line"/>
      <point x="317" y="24" type="line"/>
      <point x="156" y="12" type="line"/>
    </contour>
    <contour>
      <point x="156" y="673" type="line"/>
      <point x="317" y="689" type="line"/>
      <point x="317" y="803" type="line"/>
      <point x="156" y="803" type="line"/>
    </contour>
  </outline>
</glyph>
<glyph name="uni20B5" format="2">
  <advance width="420"/>
  <unicode hex="20B5"/>
  <outline>
    <contour>
      <point x="39" y="350" type="curve" smooth="yes"/>
      <point x="39" y="90"/>
      <point x="109" y="-10"/>
      <point x="265" y="-10" type="curve" smooth="yes"/>
      <point x="316" y="-10"/>
      <point x="361" y="-1"/>
      <point x="399" y="18" type="curve"/>
      <point x="369" y="185" type="line"/>
      <point x="349" y="176"/>
      <point x="321" y="169"/>
      <point x="300" y="169" type="curve" smooth="yes"/>
      <point x="241" y="169"/>
      <point x="216" y="205"/>
      <point x="216" y="345" type="curve" smooth="yes"/>
      <point x="216" y="492"/>
      <point x="243" y="532"/>
      <point x="297" y="532" type="curve" smooth="yes"/>
      <point x="322" y="532"/>
      <point x="341" y="527"/>
      <point x="369" y="516" type="curve"/>
      <point x="404" y="681" type="line"/>
      <point x="374" y="699"/>
      <point x="322" y="710"/>
      <point x="270" y="710" type="curve" smooth="yes"/>
      <point x="113" y="710"/>
      <point x="39" y="609"/>
    </contour>
    <contour>
      <point x="172" y="-105" type="line"/>
      <point x="333" y="-105" type="line"/>
      <point x="333" y="24" type="line"/>
      <point x="172" y="12" type="line"/>
    </contour>
    <contour>
      <point x="172" y="673" type="line"/>
      <point x="333" y="689" type="line"/>
      <point x="333" y="803" type="line"/>
      <point x="172" y="803" type="line"/>
    </contour>
  </outline>
</glyph>
<glyph name="uni20BC" format="2">
  <advance width="420"/>
  <unicode hex="20BC"/>
  <outline>
    <contour>
      <point x="15" y="0" type="curve"/>
      <point x="132" y="0" type="line"/>
      <point x="132" y="8"/>
      <point x="132" y="16"/>
      <point x="132" y="24" type="curve" smooth="yes"/>
      <point x="132" y="506"/>
      <point x="156" y="548"/>
      <point x="210" y="548" type="curve" smooth="yes"/>
      <point x="264" y="548"/>
      <point x="288" y="511"/>
      <point x="288" y="24" type="curve" smooth="yes"/>
      <point x="288" y="16"/>
      <point x="288" y="8"/>
      <point x="288" y="0" type="curve"/>
      <point x="405" y="0" type="line"/>
      <point x="405" y="12"/>
      <point x="405" y="24"/>
      <point x="405" y="37" type="curve" smooth="yes"/>
      <point x="405" y="560"/>
      <point x="369" y="657"/>
      <point x="210" y="657" type="curve" smooth="yes"/>
      <point x="60" y="657"/>
      <point x="15" y="568"/>
      <point x="15" y="37" type="curve" smooth="yes"/>
      <point x="15" y="24"/>
      <point x="15" y="12"/>
    </contour>
    <contour>
      <point x="164" y="56" type="line"/>
      <point x="257" y="56" type="line"/>
      <point x="257" y="710" type="line"/>
      <point x="164" y="710" type="line"/>
    </contour>
  </outline>
</glyph>
<glyph name="uni2113" format="2">
  <advance width="371"/>
  <unicode hex="2113"/>
  <outline>
    <contour>
      <point x="252" y="-10" type="curve" smooth="yes"/>
      <point x="301" y="-10"/>
      <point x="347" y="8"/>
      <point x="373" y="30" type="curve"/>
      <point x="336" y="155" type="line"/>
      <point x="315" y="144"/>
      <point x="298" y="139"/>
      <point x="278" y="139" type="curve" smooth="yes"/>
      <point x="202" y="139"/>
      <point x="184" y="180"/>
      <point x="184" y="347" type="curve" smooth="yes"/>
      <point x="184" y="586"/>
      <point x="186" y="605"/>
      <point x="204" y="605" type="curve" smooth="yes"/>
      <point x="217" y="605"/>
      <point x="223" y="588"/>
      <point x="223" y="517" type="curve" smooth="yes"/>
      <point x="223" y="388"/>
      <point x="209" y="320"/>
      <point x="145" y="283" type="curve"/>
      <point x="165" y="144" type="line"/>
      <point x="298" y="205"/>
      <point x="356" y="316"/>
      <point x="356" y="508" type="curve" smooth="yes"/>
      <point x="356" y="670"/>
      <point x="320" y="750"/>
      <point x="208" y="750" type="curve" smooth="yes"/>
      <point x="86" y="750"/>
      <point x="38" y="680"/>
      <point x="38" y="367" type="curve" smooth="yes"/>
      <point x="38" y="111"/>
      <point x="102" y="-10"/>
    </contour>
    <contour>
      <point x="4" y="133" type="line"/>
      <point x="37" y="130"/>
      <point x="66" y="131"/>
      <point x="84" y="133" type="curve"/>
      <point x="59" y="268" type="line"/>
      <point x="43" y="267"/>
      <point x="27" y="266"/>
      <point x="4" y="266" type="curve"/>
    </contour>
  </outline>
</glyph>
<glyph name="uni2117" format="2">
  <advance width="730"/>
  <unicode hex="2117"/>
  <outline>
    <contour>
      <point x="253" y="128" type="line"/>
      <point x="369" y="128" type="line"/>
      <point x="369" y="231" type="line"/>
      <point x="386" y="228"/>
      <point x="389" y="228"/>
      <point x="404" y="228" type="curve" smooth="yes"/>
      <point x="484" y="228"/>
      <point x="519" y="291"/>
      <point x="519" y="414" type="curve" smooth="yes"/>
      <point x="519" y="534"/>
      <point x="483" y="593"/>
      <point x="377" y="593" type="curve" smooth="yes"/>
      <point x="362" y="593"/>
      <point x="318" y="590"/>
      <point x="253" y="585" type="curve"/>
    </contour>
    <contour>
      <point x="369" y="480" type="line"/>
      <point x="376" y="482"/>
      <point x="383" y="482"/>
      <point x="385" y="482" type="curve" smooth="yes"/>
      <point x="398" y="482"/>
      <point x="402" y="466"/>
      <point x="402" y="423" type="curve" smooth="yes"/>
      <point x="402" y="382"/>
      <point x="401" y="343"/>
      <point x="382" y="343" type="curve" smooth="yes"/>
      <point x="377" y="343"/>
      <point x="374" y="343"/>
      <point x="369" y="345" type="curve"/>
    </contour>
    <contour>
      <point x="31" y="351" type="curve" smooth="yes"/>
      <point x="31" y="152"/>
      <point x="146" y="-10"/>
      <point x="365" y="-10" type="curve" smooth="yes"/>
      <point x="584" y="-10"/>
      <point x="699" y="152"/>
      <point x="699" y="351" type="curve" smooth="yes"/>
      <point x="699" y="551"/>
      <point x="584" y="710"/>
      <point x="365" y="710" type="curve" smooth="yes"/>
      <point x="146" y="710"/>
      <point x="31" y="551"/>
    </contour>
    <contour>
      <point x="87" y="351" type="curve" smooth="yes"/>
      <point x="87" y="530"/>
      <point x="179" y="657"/>
      <point x="365" y="657" type="curve" smooth="yes"/>
      <point x="554" y="657"/>
      <point x="642" y="530"/>
      <point x="642" y="351" type="curve" smooth="yes"/>
      <point x="642" y="172"/>
      <point x="554" y="45"/>
      <point x="365" y="45" type="curve" smooth="yes"/>
      <point x="179" y="45"/>
      <point x="87" y="172"/>
    </contour>
  </outline>
</glyph>
<glyph name="estimated" format="2">
  <advance width="860"/>
  <unicode hex="212E"/>
  <outline>
    <contour>
      <point x="242" y="104" type="curve"/>
      <point x="242" y="323" type="line"/>
      <point x="789" y="323" type="line"/>
      <point x="789" y="332"/>
      <point x="790" y="341"/>
      <point x="790" y="350" type="curve" smooth="yes"/>
      <point x="790" y="548"/>
      <point x="628" y="710"/>
      <point x="430" y="710" type="curve" smooth="yes"/>
      <point x="231" y="710"/>
      <point x="70" y="548"/>
      <point x="70" y="350" type="curve" smooth="yes"/>
      <point x="70" y="151"/>
      <point x="231" y="-10"/>
      <point x="430" y="-10" type="curve" smooth="yes"/>
      <point x="585" y="-10"/>
      <point x="712" y="89"/>
      <point x="762" y="212" type="curve"/>
      <point x="707" y="212" type="line"/>
      <point x="662" y="116"/>
      <point x="553" y="41"/>
      <point x="430" y="41" type="curve" smooth="yes"/>
      <point x="359" y="41"/>
      <point x="293" y="63"/>
    </contour>
    <contour>
      <point x="242" y="376" type="line"/>
      <point x="242" y="595" type="line"/>
      <point x="293" y="636"/>
      <point x="359" y="660"/>
      <point x="430" y="660" type="curve" smooth="yes"/>
      <point x="500" y="660"/>
      <point x="566" y="636"/>
      <point x="618" y="595" type="curve"/>
      <point x="618" y="376" type="line"/>
    </contour>
  </outline>
</glyph>
<glyph name="arrowleft" format="2">
  <advance width="496"/>
  <unicode hex="2190"/>
  <outline>
    <contour>
      <point x="476" y="431" type="line"/>
      <point x="310" y="431" type="line"/>
      <point x="393" y="503" type="line"/>
      <point x="280" y="616" type="line"/>
      <point x="20" y="351" type="line"/>
      <point x="280" y="87" type="line"/>
      <point x="393" y="200" type="line"/>
      <point x="310" y="272" type="line"/>
      <point x="476" y="272" type="line"/>
    </contour>
  </outline>
</glyph>
<glyph name="arrowup" format="2">
  <advance width="566"/>
  <unicode hex="2191"/>
  <outline>
    <contour>
      <point x="361" y="115" type="line"/>
      <point x="361" y="281" type="line"/>
      <point x="433" y="198" type="line"/>
      <point x="546" y="311" type="line"/>
      <point x="283" y="571" type="line"/>
      <point x="20" y="311" type="line"/>
      <point x="133" y="198" type="line"/>
      <point x="205" y="281" type="line"/>
      <point x="205" y="115" type="line"/>
    </contour>
  </outline>
</glyph>
<glyph name="uni2196" format="2">
  <advance width="418"/>
  <unicode hex="2196"/>
  <outline>
    <contour>
      <point x="390" y="413" type="line"/>
      <point x="390" y="573" type="line"/>
      <point x="20" y="573" type="line"/>
      <point x="20" y="201" type="line"/>
      <point x="178" y="201" type="line"/>
      <point x="170" y="311" type="line"/>
      <point x="288" y="194" type="line"/>
      <point x="398" y="304" type="line"/>
      <point x="281" y="421" type="line"/>
    </contour>
  </outline>
</glyph>
<glyph name="uni2197" format="2">
  <advance width="418"/>
  <unicode hex="2197"/>
  <outline>
    <contour>
      <point x="398" y="201" type="line"/>
      <point x="398" y="573" type="line"/>
      <point x="28" y="573" type="line"/>
      <point x="28" y="413" type="line"/>
      <point x="137" y="421" type="line"/>
      <point x="20" y="304" type="line"/>
      <point x="130" y="194" type="line"/>
      <point x="248" y="311" type="line"/>
      <point x="240" y="201" type="line"/>
    </contour>
  </outline>
</glyph>
<glyph name="uni2199" format="2">
  <advance width="418"/>
  <unicode hex="2199"/>
  <outline>
    <contour>
      <point x="281" y="330" type="line"/>
      <point x="398" y="447" type="line"/>
      <point x="288" y="557" type="line"/>
      <point x="170" y="440" type="line"/>
      <point x="178" y="550" type="line"/>
      <point x="20" y="550" type="line"/>
      <point x="20" y="178" type="line"/>
      <point x="390" y="178" type="line"/>
      <point x="390" y="338" type="line"/>
    </contour>
  </outline>
</glyph>
<glyph name="partialdiff" format="2">
  <advance width="428"/>
  <unicode hex="2202"/>
  <outline>
    <contour>
      <point x="195" y="-10" type="curve" smooth="yes"/>
      <point x="365" y="-10"/>
      <point x="413" y="153"/>
      <point x="413" y="368" type="curve" smooth="yes"/>
      <point x="413" y="603"/>
      <point x="349" y="750"/>
      <point x="185" y="750" type="curve" smooth="yes"/>
      <point x="134" y="750"/>
      <point x="77" y="736"/>
      <point x="27" y="699" type="curve"/>
      <point x="70" y="544" type="line"/>
      <point x="100" y="565"/>
      <point x="142" y="577"/>
      <point x="167" y="577" type="curve" smooth="yes"/>
      <point x="229" y="577"/>
      <point x="251" y="506"/>
      <point x="250" y="363" type="curve" smooth="yes"/>
      <point x="249" y="230"/>
      <point x="241" y="164"/>
      <point x="212" y="164" type="curve" smooth="yes"/>
      <point x="187" y="164"/>
      <point x="178" y="196"/>
      <point x="178" y="233" type="curve" smooth="yes"/>
      <point x="178" y="274"/>
      <point x="192" y="301"/>
      <point x="221" y="301" type="curve" smooth="yes"/>
      <point x="234" y="301"/>
      <point x="247" y="299"/>
      <point x="261" y="291" type="curve"/>
      <point x="264" y="426" type="line"/>
      <point x="244" y="441"/>
      <point x="219" y="449"/>
      <point x="182" y="449" type="curve" smooth="yes"/>
      <point x="85" y="449"/>
      <point x="18" y="370"/>
      <point x="18" y="210" type="curve" smooth="yes"/>
      <point x="18" y="77"/>
      <point x="86" y="-10"/>
    </contour>
  </outline>
</glyph>
<glyph name="uni2206" format="2">
  <advance width="534"/>
  <unicode hex="2206"/>
  <outline>
    <contour>
      <point x="33" y="0" type="line"/>
      <point x="501" y="0" type="line"/>
      <point x="501" y="71" type="line"/>
      <point x="385" y="710" type="line"/>
      <point x="149" y="710" type="line"/>
      <point x="33" y="72" type="line"/>
    </contour>
    <contour>
      <point x="215" y="170" type="line"/>
      <point x="268" y="529" type="line"/>
      <point x="315" y="170" type="line"/>
    </contour>
  </outline>
</glyph>
<glyph name="minus" format="2">
  <advance width="420"/>
  <unicode hex="2212"/>
  <outline>
    <contour>
      <point x="42" y="251" type="line"/>
      <point x="378" y="251" type="line"/>
      <point x="378" y="411" type="line"/>
      <point x="42" y="411" type="line"/>
    </contour>
  </outline>
</glyph>
<glyph name="integral" format="2">
  <advance width="398"/>
  <unicode hex="222B"/>
  <outline>
    <contour>
      <point x="117" y="-220" type="curve" smooth="yes"/>
      <point x="224" y="-220"/>
      <point x="270" y="-155"/>
      <point x="270" y="34" type="curve" smooth="yes"/>
      <point x="270" y="523" type="line" smooth="yes"/>
      <point x="270" y="561"/>
      <point x="285" y="573"/>
      <point x="306" y="573" type="curve" smooth="yes"/>
      <point x="326" y="573"/>
      <point x="346" y="566"/>
      <point x="365" y="556" type="curve"/>
      <point x="406" y="714" type="line"/>
      <point x="368" y="737"/>
      <point x="313" y="750"/>
      <point x="272" y="750" type="curve" smooth="yes"/>
      <point x="177" y="750"/>
      <point x="94" y="721"/>
      <point x="94" y="516" type="curve" smooth="yes"/>
      <point x="94" y="23" type="line" smooth="yes"/>
      <point x="94" y="-7"/>
      <point x="80" y="-27"/>
      <point x="62" y="-27" type="curve" smooth="yes"/>
      <point x="53" y="-27"/>
      <point x="48" y="-26"/>
      <point x="32" y="-18" type="curve"/>
      <point x="-8" y="-185" type="line"/>
      <point x="26" y="-203"/>
      <point x="69" y="-220"/>
    </contour>
  </outline>
</glyph>
<glyph name="lessequal" format="2">
  <advance width="420"/>
  <unicode hex="2264"/>
  <outline>
    <contour>
      <point x="399" y="205" type="line"/>
      <point x="399" y="347" type="line"/>
      <point x="185" y="409" type="line"/>
      <point x="399" y="472" type="line"/>
      <point x="399" y="613" type="line"/>
      <point x="21" y="488" type="line"/>
      <point x="21" y="330" type="line"/>
    </contour>
    <contour>
      <point x="20" y="0" type="line"/>
      <point x="399" y="0" type="line"/>
      <point x="399" y="160" type="line"/>
      <point x="20" y="160" type="line"/>
    </contour>
  </outline>
</glyph>
<glyph name="uni25A1" format="2">
  <advance width="500"/>
  <unicode hex="25A1"/>
  <outline>
    <contour>
      <point x="73" y="99" type="line"/>
      <point x="427" y="99" type="line"/>
      <point x="427" y="454" type="line"/>
      <point x="73" y="454" type="line"/>
    </contour>
    <contour>
      <point x="141" y="167" type="line"/>
      <point x="141" y="386" type="line"/>
      <point x="359" y="386" type="line"/>
      <point x="359" y="167" type="line"/>
    </contour>
  </outline>
</glyph>
<glyph name="triagup" format="2">
  <advance width="500"/>
  <unicode hex="25B2"/>
  <outline>
    <contour>
      <point x="51" y="95" type="line"/>
      <point x="449" y="95" type="line"/>
      <point x="250" y="532" type="line"/>
    </contour>
  </outline>
</glyph>
<glyph name="uni25B3" format="2">
  <advance width="500"/>
  <unicode hex="25B3"/>
  <outline>
    <contour>
      <point x="51" y="95" type="line"/>
      <point x="449" y="95" type="line"/>
      <point x="250" y="532" type="line"/>
    </contour>
    <contour>
      <point x="157" y="163" type="line"/>
      <point x="250" y="368" type="line"/>
      <point x="343" y="163" type="line"/>
    </contour>
  </outline>
</glyph>
<glyph name="uni25B7" format="2">
  <advance width="500"/>
  <unicode hex="25B7"/>
  <outline>
    <contour>
      <point x="31" y="80" type="line"/>
      <point x="468" y="279" type="line"/>
      <point x="31" y="479" type="line"/>
    </contour>
    <contour>
      <point x="99" y="186" type="line"/>
      <point x="99" y="372" type="line"/>
      <point x="304" y="279" type="line"/>
    </contour>
  </outline>
</glyph>
<glyph name="uni25C1" format="2">
  <advance width="500"/>
  <unicode hex="25C1"/>
  <outline>
    <contour>
      <point x="31" y="279" type="line"/>
      <point x="468" y="80" type="line"/>
      <point x="468" y="479" type="line"/>
    </contour>
    <contour>
      <point x="195" y="279" type="line"/>
      <point x="400" y="373" type="line"/>
      <point x="400" y="186" type="line"/>
    </contour>
  </outline>
</glyph>
<glyph name="uni25C6" format="2">
  <advance width="500"/>
  <unicode hex="25C6"/>
  <outline>
    <contour>
      <point x="0" y="279" type="line"/>
      <point x="250" y="28" type="line"/>
      <point x="501" y="279" type="line"/>
      <point x="250" y="530" type="line"/>
    </contour>
  </outline>
</glyph>
<glyph name="uni2782" format="2">
  <advance width="730"/>
  <unicode hex="2782"/>
  <outline>
    <contour>
      <point x="256" y="179" type="line"/>
      <point x="295" y="158"/>
      <point x="320" y="151"/>
      <point x="359" y="151" type="curve" smooth="yes"/>
      <point x="439" y="151"/>
      <point x="487" y="197"/>
      <point x="487" y="274" type="curve" smooth="yes"/>
      <point x="487" y="316"/>
      <point x="466" y="351"/>
      <point x="431" y="371" type="curve"/>
      <point x="462" y="394"/>
      <point x="481" y="429"/>
      <point x="481" y="463" type="curve" smooth="yes"/>
      <point x="481" y="524"/>
      <point x="436" y="562"/>
      <point x="363" y="562" type="curve" smooth="yes"/>
      <point x="320" y="562"/>
      <point x="283" y="551"/>
      <point x="253" y="528" type="curve"/>
      <point x="289" y="440" type="line"/>
      <point x="299" y="446"/>
      <point x="318" y="450"/>
      <point x="335" y="450" type="curve" smooth="yes"/>
      <point x="359" y="450"/>
      <point x="372" y="441"/>
      <point x="372" y="424" type="curve" smooth="yes"/>
      <point x="372" y="410"/>
      <point x="358" y="400"/>
      <point x="337" y="400" type="curve" smooth="yes"/>
      <point x="312" y="400" type="line"/>
      <point x="312" y="314" type="line"/>
      <point x="341" y="314" type="line" smooth="yes"/>
      <point x="364" y="314"/>
      <point x="377" y="303"/>
      <point x="377" y="284" type="curve" smooth="yes"/>
      <point x="377" y="267"/>
      <point x="363" y="256"/>
      <point x="341" y="256" type="curve" smooth="yes"/>
      <point x="325" y="256"/>
      <point x="313" y="259"/>
      <point x="295" y="269" type="curve"/>
    </contour>
    <contour>
      <point x="31" y="351" type="curve" smooth="yes"/>
      <point x="31" y="152"/>
      <point x="146" y="-10"/>
      <point x="365" y="-10" type="curve" smooth="yes"/>
      <point x="584" y="-10"/>
      <point x="699" y="152"/>
      <point x="699" y="351" type="curve" smooth="yes"/>
      <point x="699" y="551"/>
      <point x="584" y="710"/>
      <point x="365" y="710" type="curve" smooth="yes"/>
      <point x="146" y="710"/>
      <point x="31" y="551"/>
    </contour>
    <contour>
      <point x="81" y="351" type="curve" smooth="yes"/>
      <point x="81" y="534"/>
      <point x="175" y="663"/>
      <point x="365" y="663" type="curve" smooth="yes"/>
      <point x="558" y="663"/>
      <point x="648" y="534"/>
      <point x="648" y="351" type="curve" smooth="yes"/>
      <point x="648" y="168"/>
      <point x="558" y="39"/>
      <point x="365" y="39" type="curve" smooth="yes"/>
      <point x="175" y="39"/>
      <point x="81" y="168"/>
    </contour>
  </outline>
</glyph>
<glyph name="uni2783" format="2">
  <advance width="730"/>
  <unicode hex="2783"/>
  <outline>
    <contour>
      <point x="226" y="192" type="line"/>
      <point x="323" y="192" type="line"/>
      <point x="323" y="159" type="line"/>
      <point x="449" y="159" type="line"/>
      <point x="449" y="192" type="line"/>
      <point x="480" y="192" type="line"/>
      <point x="480" y="280" type="line"/>
      <point x="449" y="280" type="line"/>
      <point x="449" y="556" type="line"/>
      <point x="305" y="556" type="line"/>
      <point x="226" y="287" type="line"/>
    </contour>
    <contour>
      <point x="287" y="280" type="line"/>
      <point x="329" y="431" type="line"/>
      <point x="329" y="280" type="line"/>
    </contour>
    <contour>
      <point x="31" y="351" type="curve" smooth="yes"/>
      <point x="31" y="152"/>
      <point x="146" y="-10"/>
      <point x="365" y="-10" type="curve" smooth="yes"/>
      <point x="584" y="-10"/>
      <point x="699" y="152"/>
      <point x="699" y="351" type="curve" smooth="yes"/>
      <point x="699" y="551"/>
      <point x="584" y="710"/>
      <point x="365" y="710" type="curve" smooth="yes"/>
      <point x="146" y="710"/>
      <point x="31" y="551"/>
    </contour>
    <contour>
      <point x="81" y="351" type="curve" smooth="yes"/>
      <point x="81" y="534"/>
      <point x="175" y="663"/>
      <point x="365" y="663" type="curve" smooth="yes"/>
      <point x="558" y="663"/>
      <point x="648" y="534"/>
      <point x="648" y="351" type="curve" smooth="yes"/>
      <point x="648" y="168"/>
      <point x="558" y="39"/>
      <point x="365" y="39" type="curve" smooth="yes"/>
      <point x="175" y="39"/>
      <point x="81" y="168"/>
    </contour>
  </outline>
</glyph>
<glyph name="uni2785" format="2">
  <advance width="730"/>
  <unicode hex="2785"/>
  <outline>
    <contour>
      <point x="351" y="409" type="curve"/>
      <point x="354" y="450"/>
      <point x="371" y="462"/>
      <point x="405" y="462" type="curve" smooth="yes"/>
      <point x="430" y="462"/>
      <point x="447" y="450"/>
      <point x="447" y="450" type="curve"/>
      <point x="481" y="538" type="line"/>
      <point x="468" y="547"/>
      <point x="429" y="561"/>
      <point x="385" y="561" type="curve" smooth="yes"/>
      <point x="300" y="561"/>
      <point x="236" y="502"/>
      <point x="236" y="341" type="curve" smooth="yes"/>
      <point x="236" y="195"/>
      <point x="284" y="150"/>
      <point x="359" y="150" type="curve" smooth="yes"/>
      <point x="449" y="150"/>
      <point x="482" y="206"/>
      <point x="482" y="298" type="curve" smooth="yes"/>
      <point x="482" y="393"/>
      <point x="439" y="421"/>
      <point x="398" y="421" type="curve" smooth="yes"/>
      <point x="374" y="421"/>
      <point x="362" y="416"/>
    </contour>
    <contour>
      <point x="359" y="339" type="curve" smooth="yes"/>
      <point x="365" y="339"/>
      <point x="371" y="328"/>
      <point x="371" y="295" type="curve" smooth="yes"/>
      <point x="371" y="249"/>
      <point x="367" y="242"/>
      <point x="361" y="242" type="curve" smooth="yes"/>
      <point x="354" y="242"/>
      <point x="351" y="246"/>
      <point x="351" y="337" type="curve"/>
      <point x="353" y="338"/>
      <point x="355" y="339"/>
    </contour>
    <contour>
      <point x="365" y="-10" type="curve" smooth="yes"/>
      <point x="584" y="-10"/>
      <point x="699" y="152"/>
      <point x="699" y="351" type="curve" smooth="yes"/>
      <point x="699" y="551"/>
      <point x="584" y="710"/>
      <point x="365" y="710" type="curve" smooth="yes"/>
      <point x="146" y="710"/>
      <point x="31" y="551"/>
      <point x="31" y="351" type="curve" smooth="yes"/>
      <point x="31" y="152"/>
      <point x="146" y="-10"/>
    </contour>
    <contour>
      <point x="365" y="663" type="curve" smooth="yes"/>
      <point x="558" y="663"/>
      <point x="648" y="534"/>
      <point x="648" y="351" type="curve" smooth="yes"/>
      <point x="648" y="168"/>
      <point x="558" y="39"/>
      <point x="365" y="39" type="curve" smooth="yes"/>
      <point x="175" y="39"/>
      <point x="81" y="168"/>
      <point x="81" y="351" type="curve" smooth="yes"/>
      <point x="81" y="534"/>
      <point x="175" y="663"/>
    </contour>
  </outline>
</glyph>
<glyph name="uni2786" format="2">
  <advance width="730"/>
  <unicode hex="2786"/>
  <outline>
    <contour>
      <point x="279" y="159" type="curve"/>
      <point x="398" y="159" type="line"/>
      <point x="398" y="218"/>
      <point x="403" y="259"/>
      <point x="431" y="345" type="curve" smooth="yes"/>
      <point x="477" y="485" type="line"/>
      <point x="477" y="558" type="line"/>
      <point x="255" y="558" type="line"/>
      <point x="255" y="467" type="line"/>
      <point x="361" y="467" type="line"/>
      <point x="317" y="359" type="line" smooth="yes"/>
      <point x="287" y="285"/>
      <point x="279" y="222"/>
    </contour>
    <contour>
      <point x="365" y="-10" type="curve" smooth="yes"/>
      <point x="584" y="-10"/>
      <point x="699" y="152"/>
      <point x="699" y="351" type="curve" smooth="yes"/>
      <point x="699" y="551"/>
      <point x="584" y="710"/>
      <point x="365" y="710" type="curve" smooth="yes"/>
      <point x="146" y="710"/>
      <point x="31" y="551"/>
      <point x="31" y="351" type="curve" smooth="yes"/>
      <point x="31" y="152"/>
      <point x="146" y="-10"/>
    </contour>
    <contour>
      <point x="365" y="663" type="curve" smooth="yes"/>
      <point x="558" y="663"/>
      <point x="648" y="534"/>
      <point x="648" y="351" type="curve" smooth="yes"/>
      <point x="648" y="168"/>
      <point x="558" y="39"/>
      <point x="365" y="39" type="curve" smooth="yes"/>
      <point x="175" y="39"/>
      <point x="81" y="168"/>
      <point x="81" y="351" type="curve" smooth="yes"/>
      <point x="81" y="534"/>
      <point x="175" y="663"/>
    </contour>
  </outline>
</glyph>
<glyph name="uni2787" format="2">
  <advance width="730"/>
  <unicode hex="2787"/>
  <outline>
    <contour>
      <point x="370" y="150" type="curve" smooth="yes"/>
      <point x="450" y="150"/>
      <point x="494" y="191"/>
      <point x="494" y="264" type="curve" smooth="yes"/>
      <point x="494" y="391"/>
      <point x="358" y="393"/>
      <point x="358" y="450" type="curve" smooth="yes"/>
      <point x="358" y="462"/>
      <point x="363" y="469"/>
      <point x="373" y="469" type="curve" smooth="yes"/>
      <point x="383" y="469"/>
      <point x="387" y="461"/>
      <point x="387" y="444" type="curve" smooth="yes"/>
      <point x="387" y="418"/>
      <point x="383" y="409"/>
      <point x="367" y="399" type="curve"/>
      <point x="419" y="356" type="line"/>
      <point x="463" y="388"/>
      <point x="485" y="423"/>
      <point x="485" y="462" type="curve" smooth="yes"/>
      <point x="485" y="523"/>
      <point x="443" y="561"/>
      <point x="376" y="561" type="curve" smooth="yes"/>
      <point x="298" y="561"/>
      <point x="255" y="521"/>
      <point x="255" y="449" type="curve" smooth="yes"/>
      <point x="255" y="327"/>
      <point x="389" y="321"/>
      <point x="389" y="262" type="curve" smooth="yes"/>
      <point x="389" y="247"/>
      <point x="384" y="239"/>
      <point x="375" y="239" type="curve" smooth="yes"/>
      <point x="364" y="239"/>
      <point x="358" y="249"/>
      <point x="358" y="268" type="curve" smooth="yes"/>
      <point x="358" y="293"/>
      <point x="362" y="303"/>
      <point x="380" y="319" type="curve"/>
      <point x="315" y="363" type="line"/>
      <point x="272" y="338"/>
      <point x="250" y="303"/>
      <point x="250" y="260" type="curve" smooth="yes"/>
      <point x="250" y="190"/>
      <point x="294" y="150"/>
    </contour>
    <contour>
      <point x="365" y="-10" type="curve" smooth="yes"/>
      <point x="584" y="-10"/>
      <point x="699" y="152"/>
      <point x="699" y="351" type="curve" smooth="yes"/>
      <point x="699" y="551"/>
      <point x="584" y="710"/>
      <point x="365" y="710" type="curve" smooth="yes"/>
      <point x="146" y="710"/>
      <point x="31" y="551"/>
      <point x="31" y="351" type="curve" smooth="yes"/>
      <point x="31" y="152"/>
      <point x="146" y="-10"/>
    </contour>
    <contour>
      <point x="365" y="663" type="curve" smooth="yes"/>
      <point x="558" y="663"/>
      <point x="648" y="534"/>
      <point x="648" y="351" type="curve" smooth="yes"/>
      <point x="648" y="168"/>
      <point x="558" y="39"/>
      <point x="365" y="39" type="curve" smooth="yes"/>
      <point x="175" y="39"/>
      <point x="81" y="168"/>
      <point x="81" y="351" type="curve" smooth="yes"/>
      <point x="81" y="534"/>
      <point x="175" y="663"/>
    </contour>
  </outline>
</glyph>
<glyph name="uni2789" format="2">
  <advance width="730"/>
  <unicode hex="2789"/>
  <outline>
    <contour>
      <point x="148" y="159" type="line"/>
      <point x="353" y="159" type="line"/>
      <point x="353" y="250" type="line"/>
      <point x="309" y="250" type="line"/>
      <point x="309" y="558" type="line"/>
      <point x="254" y="558" type="line"/>
      <point x="137" y="529" type="line"/>
      <point x="154" y="424" type="line"/>
      <point x="199" y="433" type="line"/>
      <point x="199" y="250" type="line"/>
      <point x="148" y="250" type="line"/>
    </contour>
    <contour>
      <point x="474" y="348" type="curve" smooth="yes"/>
      <point x="474" y="466"/>
      <point x="476" y="466"/>
      <point x="486" y="466" type="curve" smooth="yes"/>
      <point x="496" y="466"/>
      <point x="498" y="467"/>
      <point x="498" y="348" type="curve" smooth="yes"/>
      <point x="498" y="248"/>
      <point x="498" y="245"/>
      <point x="486" y="245" type="curve" smooth="yes"/>
      <point x="474" y="245"/>
      <point x="474" y="248"/>
    </contour>
    <contour>
      <point x="356" y="355" type="curve" smooth="yes"/>
      <point x="356" y="204"/>
      <point x="388" y="150"/>
      <point x="486" y="150" type="curve" smooth="yes"/>
      <point x="582" y="150"/>
      <point x="615" y="206"/>
      <point x="615" y="355" type="curve" smooth="yes"/>
      <point x="615" y="505"/>
      <point x="591" y="561"/>
      <point x="486" y="561" type="curve" smooth="yes"/>
      <point x="387" y="561"/>
      <point x="356" y="510"/>
    </contour>
    <contour>
      <point x="365" y="-10" type="curve" smooth="yes"/>
      <point x="584" y="-10"/>
      <point x="699" y="152"/>
      <point x="699" y="351" type="curve" smooth="yes"/>
      <point x="699" y="551"/>
      <point x="584" y="710"/>
      <point x="365" y="710" type="curve" smooth="yes"/>
      <point x="146" y="710"/>
      <point x="31" y="551"/>
      <point x="31" y="351" type="curve" smooth="yes"/>
      <point x="31" y="152"/>
      <point x="146" y="-10"/>
    </contour>
    <contour>
      <point x="365" y="663" type="curve" smooth="yes"/>
      <point x="558" y="663"/>
      <point x="648" y="534"/>
      <point x="648" y="351" type="curve" smooth="yes"/>
      <point x="648" y="168"/>
      <point x="558" y="39"/>
      <point x="365" y="39" type="curve" smooth="yes"/>
      <point x="175" y="39"/>
      <point x="81" y="168"/>
      <point x="81" y="351" type="curve" smooth="yes"/>
      <point x="81" y="534"/>
      <point x="175" y="663"/>
    </contour>
  </outline>
</glyph>
<glyph name="uni278C" format="2">
  <advance width="730"/>
  <unicode hex="278C"/>
  <outline>
    <contour>
      <point x="365" y="-10" type="curve" smooth="yes"/>
      <point x="584" y="-10"/>
      <point x="699" y="152"/>
      <point x="699" y="351" type="curve" smooth="yes"/>
      <point x="699" y="551"/>
      <point x="584" y="710"/>
      <point x="365" y="710" type="curve" smooth="yes"/>
      <point x="146" y="710"/>
      <point x="31" y="551"/>
      <point x="31" y="351" type="curve" smooth="yes"/>
      <point x="31" y="152"/>
      <point x="146" y="-10"/>
    </contour>
    <contour>
      <point x="359" y="151" type="curve" smooth="yes"/>
      <point x="320" y="151"/>
      <point x="295" y="158"/>
      <point x="256" y="179" type="curve"/>
      <point x="295" y="269" type="line"/>
      <point x="313" y="259"/>
      <point x="325" y="256"/>
      <point x="341" y="256" type="curve" smooth="yes"/>
      <point x="363" y="256"/>
      <point x="377" y="267"/>
      <point x="377" y="284" type="curve" smooth="yes"/>
      <point x="377" y="303"/>
      <point x="364" y="314"/>
      <point x="341" y="314" type="curve" smooth="yes"/>
      <point x="312" y="314" type="line"/>
      <point x="312" y="400" type="line"/>
      <point x="337" y="400" type="line" smooth="yes"/>
      <point x="358" y="400"/>
      <point x="372" y="410"/>
      <point x="372" y="424" type="curve" smooth="yes"/>
      <point x="372" y="441"/>
      <point x="359" y="450"/>
      <point x="335" y="450" type="curve" smooth="yes"/>
      <point x="318" y="450"/>
      <point x="299" y="446"/>
      <point x="289" y="440" type="curve"/>
      <point x="253" y="528" type="line"/>
      <point x="283" y="551"/>
      <point x="320" y="562"/>
      <point x="363" y="562" type="curve" smooth="yes"/>
      <point x="436" y="562"/>
      <point x="481" y="524"/>
      <point x="481" y="463" type="curve" smooth="yes"/>
      <point x="481" y="429"/>
      <point x="462" y="394"/>
      <point x="431" y="371" type="curve"/>
      <point x="466" y="351"/>
      <point x="487" y="316"/>
      <point x="487" y="274" type="curve" smooth="yes"/>
      <point x="487" y="197"/>
      <point x="439" y="151"/>
    </contour>
  </outline>
</glyph>
<glyph name="uni278E" format="2">
  <advance width="730"/>
  <unicode hex="278E"/>
  <outline>
    <contour>
      <point x="365" y="-10" type="curve" smooth="yes"/>
      <point x="584" y="-10"/>
      <point x="699" y="152"/>
      <point x="699" y="351" type="curve" smooth="yes"/>
      <point x="699" y="551"/>
      <point x="584" y="710"/>
      <point x="365" y="710" type="curve" smooth="yes"/>
      <point x="146" y="710"/>
      <point x="31" y="551"/>
      <point x="31" y="351" type="curve" smooth="yes"/>
      <point x="31" y="152"/>
      <point x="146" y="-10"/>
    </contour>
    <contour>
      <point x="349" y="150" type="curve" smooth="yes"/>
      <point x="309" y="150"/>
      <point x="284" y="158"/>
      <point x="255" y="173" type="curve"/>
      <point x="275" y="265" type="line"/>
      <point x="290" y="259"/>
      <point x="308" y="254"/>
      <point x="332" y="254" type="curve" smooth="yes"/>
      <point x="366" y="254"/>
      <point x="376" y="269"/>
      <point x="376" y="287" type="curve" smooth="yes"/>
      <point x="376" y="310"/>
      <point x="362" y="320"/>
      <point x="332" y="320" type="curve" smooth="yes"/>
      <point x="282" y="320" type="line"/>
      <point x="276" y="327" type="line"/>
      <point x="300" y="561" type="line"/>
      <point x="480" y="561" type="line"/>
      <point x="480" y="454" type="line"/>
      <point x="389" y="454" type="line"/>
      <point x="384" y="404" type="line"/>
      <point x="398" y="403" type="line" smooth="yes"/>
      <point x="452" y="399"/>
      <point x="488" y="363"/>
      <point x="488" y="292" type="curve" smooth="yes"/>
      <point x="488" y="200"/>
      <point x="430" y="150"/>
    </contour>
  </outline>
</glyph>
<glyph name="uni27E8" format="2">
  <advance width="235"/>
  <unicode hex="27E8"/>
  <outline>
    <contour>
      <point x="8" y="198" type="line"/>
      <point x="227" y="-12" type="line"/>
      <point x="227" y="229" type="line"/>
      <point x="95" y="356" type="line"/>
      <point x="227" y="479" type="line"/>
      <point x="227" y="710" type="line"/>
      <point x="8" y="502" type="line"/>
    </contour>
  </outline>
</glyph>
<glyph name="fi" format="2">
  <advance width="495"/>
  <unicode hex="FB01"/>
  <outline>
    <contour>
      <point x="48" y="0" type="line"/>
      <point x="219" y="0" type="line"/>
      <point x="219" y="379" type="line"/>
      <point x="297" y="379" type="line"/>
      <point x="297" y="0" type="line"/>
      <point x="472" y="0" type="line"/>
      <point x="472" y="529" type="line"/>
      <point x="220" y="529" type="line"/>
      <point x="220" y="532" type="line" smooth="yes"/>
      <point x="220" y="568"/>
      <point x="252" y="589"/>
      <point x="305" y="589" type="curve" smooth="yes"/>
      <point x="349" y="589"/>
      <point x="394" y="581"/>
      <point x="447" y="565" type="curve"/>
      <point x="493" y="712" type="line"/>
      <point x="439" y="736"/>
      <point x="363" y="750"/>
      <point x="299" y="750" type="curve" smooth="yes"/>
      <point x="147" y="750"/>
      <point x="48" y="664"/>
      <point x="48" y="544" type="curve" smooth="yes"/>
      <point x="48" y="529" type="line"/>
      <point x="5" y="522" type="line"/>
      <point x="5" y="379" type="line"/>
      <point x="48" y="379" type="line"/>
    </contour>
  </outline>
</glyph>
<glyph name="fl" format="2">
  <advance width="504"/>
  <unicode hex="FB02"/>
  <outline>
    <contour>
      <point x="423" y="-10" type="curve" smooth="yes"/>
      <point x="458" y="-10"/>
      <point x="489" y="4"/>
      <point x="505" y="16" type="curve"/>
      <point x="495" y="169" type="line"/>
      <point x="490" y="168"/>
      <point x="484" y="167"/>
      <point x="480" y="167" type="curve" smooth="yes"/>
      <point x="469" y="167"/>
      <point x="461" y="174"/>
      <point x="461" y="204" type="curve" smooth="yes"/>
      <point x="461" y="730" type="line"/>
      <point x="424" y="743"/>
      <point x="369" y="750"/>
      <point x="308" y="750" type="curve" smooth="yes"/>
      <point x="146" y="750"/>
      <point x="48" y="665"/>
      <point x="48" y="544" type="curve" smooth="yes"/>
      <point x="48" y="529" type="line"/>
      <point x="5" y="522" type="line"/>
      <point x="5" y="379" type="line"/>
      <point x="48" y="379" type="line"/>
      <point x="48" y="0" type="line"/>
      <point x="219" y="0" type="line"/>
      <point x="219" y="379" type="line"/>
      <point x="264" y="379" type="line"/>
      <point x="264" y="529" type="line"/>
      <point x="220" y="529" type="line"/>
      <point x="220" y="532" type="line" smooth="yes"/>
      <point x="220" y="572"/>
      <point x="238" y="594"/>
      <point x="270" y="594" type="curve" smooth="yes"/>
      <point x="276" y="594"/>
      <point x="291" y="593"/>
      <point x="286" y="593" type="curve"/>
      <point x="286" y="177" type="line" smooth="yes"/>
      <point x="286" y="45"/>
      <point x="328" y="-10"/>
    </contour>
  </outline>
</glyph>
<glyph name="T_h.liga" format="2">
  <advance width="740"/>
  <outline>
    <contour>
      <point x="343" y="0" type="line"/>
      <point x="518" y="0" type="line"/>
      <point x="518" y="365" type="line"/>
      <point x="524" y="370"/>
      <point x="528" y="372"/>
      <point x="535" y="372" type="curve" smooth="yes"/>
      <point x="539" y="372"/>
      <point x="547" y="370"/>
      <point x="547" y="356" type="curve" smooth="yes"/>
      <point x="547" y="0" type="line"/>
      <point x="723" y="0" type="line"/>
      <point x="723" y="401" type="line" smooth="yes"/>
      <point x="723" y="522"/>
      <point x="681" y="560"/>
      <point x="616" y="560" type="curve" smooth="yes"/>
      <point x="586" y="560"/>
      <point x="548" y="547"/>
      <point x="501" y="514" type="curve"/>
      <point x="501" y="700" type="line"/>
      <point x="10" y="700" type="line"/>
      <point x="10" y="518" type="line"/>
      <point x="111" y="518" type="line"/>
      <point x="111" y="0" type="line"/>
      <point x="286" y="0" type="line"/>
      <point x="286" y="518" type="line"/>
      <point x="343" y="518" type="line"/>
    </contour>
  </outline>
</glyph>
<glyph name="a.sc" format="2">
  <advance width="447"/>
  <anchor x="436" y="0" name="ogonek"/>
  <anchor x="224" y="0" name="bottom"/>
  <anchor x="222" y="625" name="top"/>
  <outline>
    <contour>
      <point x="11" y="0" type="line"/>
      <point x="178" y="0" type="line"/>
      <point x="186" y="75" type="line"/>
      <point x="257" y="75" type="line"/>
      <point x="268" y="0" type="line"/>
      <point x="436" y="0" type="line"/>
      <point x="342" y="625" type="line"/>
      <point x="101" y="625" type="line"/>
    </contour>
    <contour>
      <point x="201" y="253" type="line"/>
      <point x="222" y="512" type="line"/>
      <point x="243" y="253" type="line"/>
    </contour>
  </outline>
</glyph>
<glyph name="a.superior" format="2">
  <advance width="278"/>
  <outline>
    <contour>
      <point x="9" y="463" type="curve" smooth="yes"/>
      <point x="9" y="415"/>
      <point x="28" y="364"/>
      <point x="83" y="364" type="curve" smooth="yes"/>
      <point x="114" y="364"/>
      <point x="126" y="371"/>
      <point x="145" y="386" type="curve"/>
      <point x="158" y="371"/>
      <point x="173" y="364"/>
      <point x="204" y="364" type="curve" smooth="yes"/>
      <point x="234" y="364"/>
      <point x="251" y="371"/>
      <point x="267" y="379" type="curve"/>
      <point x="260" y="475" type="line"/>
      <point x="258" y="475"/>
      <point x="255" y="474"/>
      <point x="251" y="474" type="curve" smooth="yes"/>
      <point x="249" y="474"/>
      <point x="245" y="477"/>
      <point x="245" y="489" type="curve" smooth="yes"/>
      <point x="245" y="567" type="line" smooth="yes"/>
      <point x="245" y="642"/>
      <point x="212" y="689"/>
      <point x="117" y="689" type="curve" smooth="yes"/>
      <point x="90" y="689"/>
      <point x="47" y="681"/>
      <point x="19" y="670" type="curve"/>
      <point x="43" y="573" type="line"/>
      <point x="78" y="584"/>
      <point x="98" y="584"/>
      <point x="107" y="584" type="curve" smooth="yes"/>
      <point x="120" y="584"/>
      <point x="133" y="580"/>
      <point x="133" y="568" type="curve" smooth="yes"/>
      <point x="133" y="567" type="line"/>
      <point x="52" y="558"/>
      <point x="9" y="540"/>
    </contour>
    <contour>
      <point x="116" y="474" type="curve" smooth="yes"/>
      <point x="116" y="487"/>
      <point x="118" y="503"/>
      <point x="134" y="503" type="curve"/>
      <point x="134" y="454" type="line"/>
      <point x="132" y="452"/>
      <point x="129" y="451"/>
      <point x="127" y="451" type="curve" smooth="yes"/>
      <point x="121" y="451"/>
      <point x="116" y="457"/>
    </contour>
  </outline>
</glyph>
<glyph name="acutecomb.case" format="2">
  <anchor x="-166" y="939" name="top"/>
  <anchor x="-214" y="700" name="_top"/>
  <outline>
    <contour>
      <point x="-278" y="745" type="line"/>
      <point x="-146" y="745" type="line"/>
      <point x="-53" y="939" type="line"/>
      <point x="-229" y="939" type="line"/>
    </contour>
  </outline>
</glyph>
<glyph name="ae.sc" format="2">
  <advance width="638"/>
  <anchor x="371" y="625" name="top"/>
  <anchor x="319" y="0" name="bottom"/>
  <outline>
    <contour>
      <point x="7" y="0" type="line"/>
      <point x="190" y="0" type="line"/>
      <point x="212" y="80" type="line"/>
      <point x="300" y="80" type="line"/>
      <point x="300" y="0" type="line"/>
      <point x="620" y="0" type="line"/>
      <point x="620" y="166" type="line"/>
      <point x="460" y="166" type="line"/>
      <point x="460" y="233" type="line"/>
      <point x="586" y="233" type="line"/>
      <point x="586" y="390" type="line"/>
      <point x="460" y="390" type="line"/>
      <point x="460" y="454" type="line"/>
      <point x="609" y="454" type="line"/>
      <point x="609" y="625" type="line"/>
      <point x="183" y="625" type="line"/>
    </contour>
    <contour>
      <point x="242" y="243" type="line"/>
      <point x="298" y="514" type="line"/>
      <point x="298" y="243" type="line"/>
    </contour>
  </outline>
</glyph>
<glyph name="at.sc" format="2">
  <advance width="618"/>
  <outline>
    <contour>
      <point x="313" y="-10" type="curve" smooth="yes"/>
      <point x="350" y="-10"/>
      <point x="410" y="1"/>
      <point x="439" y="18" type="curve"/>
      <point x="423" y="74" type="line"/>
      <point x="387" y="62"/>
      <point x="348" y="56"/>
      <point x="312" y="56" type="curve" smooth="yes"/>
      <point x="193" y="56"/>
      <point x="100" y="112"/>
      <point x="100" y="300" type="curve" smooth="yes"/>
      <point x="100" y="452"/>
      <point x="176" y="559"/>
      <point x="310" y="559" type="curve" smooth="yes"/>
      <point x="453" y="559"/>
      <point x="515" y="467"/>
      <point x="515" y="330" type="curve" smooth="yes"/>
      <point x="515" y="251"/>
      <point x="495" y="199"/>
      <point x="460" y="199" type="curve" smooth="yes"/>
      <point x="433" y="199"/>
      <point x="428" y="225"/>
      <point x="431" y="264" type="curve" smooth="yes"/>
      <point x="450" y="480" type="line"/>
      <point x="408" y="499"/>
      <point x="373" y="509"/>
      <point x="320" y="509" type="curve" smooth="yes"/>
      <point x="208" y="509"/>
      <point x="157" y="406"/>
      <point x="157" y="269" type="curve" smooth="yes"/>
      <point x="157" y="151"/>
      <point x="195" y="111"/>
      <point x="254" y="111" type="curve" smooth="yes"/>
      <point x="283" y="111"/>
      <point x="322" y="129"/>
      <point x="345" y="176" type="curve"/>
      <point x="366" y="128"/>
      <point x="397" y="111"/>
      <point x="435" y="111" type="curve" smooth="yes"/>
      <point x="531" y="111"/>
      <point x="584" y="206"/>
      <point x="584" y="334" type="curve" smooth="yes"/>
      <point x="584" y="539"/>
      <point x="461" y="626"/>
      <point x="314" y="626" type="curve" smooth="yes"/>
      <point x="132" y="626"/>
      <point x="26" y="490"/>
      <point x="26" y="293" type="curve" smooth="yes"/>
      <point x="26" y="87"/>
      <point x="141" y="-10"/>
    </contour>
    <contour>
      <point x="299" y="242" type="curve" smooth="yes"/>
      <point x="293" y="242"/>
      <point x="290" y="246"/>
      <point x="290" y="258" type="curve" smooth="yes"/>
      <point x="290" y="329"/>
      <point x="303" y="417"/>
      <point x="321" y="417" type="curve" smooth="yes"/>
      <point x="326" y="417"/>
      <point x="330" y="414"/>
      <point x="331" y="412" type="curve"/>
      <point x="311" y="246" type="line"/>
      <point x="307" y="243"/>
      <point x="303" y="242"/>
    </contour>
  </outline>
</glyph>
<glyph name="b.sc" format="2">
  <advance width="417"/>
  <outline>
    <contour>
      <point x="23" y="5" type="line"/>
      <point x="130" y="-7"/>
      <point x="134" y="-9"/>
      <point x="206" y="-9" type="curve" smooth="yes"/>
      <point x="347" y="-9"/>
      <point x="410" y="52"/>
      <point x="410" y="192" type="curve" smooth="yes"/>
      <point x="410" y="256"/>
      <point x="381" y="316"/>
      <point x="331" y="350" type="curve"/>
      <point x="331" y="352" type="line"/>
      <point x="368" y="382"/>
      <point x="389" y="426"/>
      <point x="389" y="479" type="curve" smooth="yes"/>
      <point x="389" y="583"/>
      <point x="329" y="634"/>
      <point x="206" y="634" type="curve" smooth="yes"/>
      <point x="158" y="634"/>
      <point x="94" y="629"/>
      <point x="23" y="620" type="curve"/>
    </contour>
    <contour>
      <point x="190" y="381" type="line"/>
      <point x="190" y="488" type="line"/>
      <point x="196" y="491"/>
      <point x="202" y="492"/>
      <point x="210" y="492" type="curve" smooth="yes"/>
      <point x="231" y="492"/>
      <point x="242" y="473"/>
      <point x="242" y="431" type="curve" smooth="yes"/>
      <point x="242" y="389"/>
      <point x="228" y="381"/>
      <point x="209" y="381" type="curve" smooth="yes"/>
    </contour>
    <contour>
      <point x="190" y="130" type="curve"/>
      <point x="190" y="244" type="line"/>
      <point x="207" y="244" type="line" smooth="yes"/>
      <point x="232" y="244"/>
      <point x="247" y="232"/>
      <point x="247" y="184" type="curve" smooth="yes"/>
      <point x="247" y="145"/>
      <point x="236" y="127"/>
      <point x="211" y="127" type="curve" smooth="yes"/>
      <point x="204" y="127"/>
      <point x="197" y="128"/>
    </contour>
  </outline>
</glyph>
<glyph name="c.sc" format="2">
  <advance width="369"/>
  <anchor x="209" y="625" name="top"/>
  <anchor x="209" y="0" name="bottom"/>
  <outline>
    <contour>
      <point x="14" y="313" type="curve" smooth="yes"/>
      <point x="14" y="82"/>
      <point x="74" y="-9"/>
      <point x="225" y="-9" type="curve" smooth="yes"/>
      <point x="273" y="-9"/>
      <point x="317" y="-1"/>
      <point x="355" y="17" type="curve"/>
      <point x="327" y="173" type="line"/>
      <point x="307" y="165"/>
      <point x="278" y="158"/>
      <point x="258" y="158" type="curve" smooth="yes"/>
      <point x="199" y="158"/>
      <point x="182" y="189"/>
      <point x="182" y="309" type="curve" smooth="yes"/>
      <point x="182" y="432"/>
      <point x="200" y="468"/>
      <point x="255" y="468" type="curve" smooth="yes"/>
      <point x="279" y="468"/>
      <point x="299" y="463"/>
      <point x="326" y="453" type="curve"/>
      <point x="359" y="607" type="line"/>
      <point x="330" y="624"/>
      <point x="278" y="634"/>
      <point x="230" y="634" type="curve" smooth="yes"/>
      <point x="77" y="634"/>
      <point x="14" y="543"/>
    </contour>
  </outline>
</glyph>
<glyph name="centsuperior" format="2">
  <advance width="205"/>
  <outline>
    <contour>
      <point x="119" y="364" type="curve" smooth="yes"/>
      <point x="147" y="364"/>
      <point x="175" y="370"/>
      <point x="194" y="380" type="curve"/>
      <point x="173" y="481" type="line"/>
      <point x="162" y="477"/>
      <point x="153" y="475"/>
      <point x="145" y="475" type="curve" smooth="yes"/>
      <point x="127" y="475"/>
      <point x="117" y="492"/>
      <point x="117" y="526" type="curve" smooth="yes"/>
      <point x="117" y="566"/>
      <point x="126" y="580"/>
      <point x="148" y="580" type="curve" smooth="yes"/>
      <point x="158" y="580"/>
      <point x="166" y="578"/>
      <point x="173" y="576" type="curve"/>
      <point x="190" y="680" type="line"/>
      <point x="179" y="683"/>
      <point x="148" y="691"/>
      <point x="118" y="691" type="curve" smooth="yes"/>
      <point x="32" y="691"/>
      <point x="11" y="612"/>
      <point x="11" y="523" type="curve" smooth="yes"/>
      <point x="11" y="417"/>
      <point x="45" y="364"/>
    </contour>
    <contour>
      <point x="69" y="310" type="line"/>
      <point x="160" y="310" type="line"/>
      <point x="160" y="379" type="line"/>
      <point x="69" y="384" type="line"/>
    </contour>
    <contour>
      <point x="69" y="670" type="line"/>
      <point x="160" y="678" type="line"/>
      <point x="160" y="743" type="line"/>
      <point x="69" y="743" type="line"/>
    </contour>
  </outline>
</glyph>
<glyph name="d.superior" format="2">
  <advance width="272"/>
  <outline>
    <contour>
      <point x="95" y="362" type="curve" smooth="yes"/>
      <point x="111" y="362"/>
      <point x="134" y="370"/>
      <point x="145" y="380" type="curve"/>
      <point x="153" y="370" type="line"/>
      <point x="253" y="370" type="line"/>
      <point x="253" y="792" type="line"/>
      <point x="142" y="792" type="line"/>
      <point x="142" y="686" type="line"/>
      <point x="136" y="687"/>
      <point x="127" y="689"/>
      <point x="119" y="689" type="curve" smooth="yes"/>
      <point x="49" y="689"/>
      <point x="10" y="629"/>
      <point x="10" y="521" type="curve" smooth="yes"/>
      <point x="10" y="416"/>
      <point x="39" y="362"/>
    </contour>
    <contour>
      <point x="136" y="457" type="curve" smooth="yes"/>
      <point x="129" y="457"/>
      <point x="128" y="469"/>
      <point x="128" y="538" type="curve" smooth="yes"/>
      <point x="128" y="595"/>
      <point x="129" y="604"/>
      <point x="136" y="604" type="curve" smooth="yes"/>
      <point x="140" y="604"/>
      <point x="141" y="603"/>
      <point x="142" y="601" type="curve"/>
      <point x="142" y="459" type="line"/>
      <point x="141" y="458"/>
      <point x="138" y="457"/>
    </contour>
  </outline>
</glyph>
<glyph name="dividesuperior" format="2">
  <advance width="265"/>
  <outline>
    <contour>
      <point x="81" y="443" type="curve" smooth="yes"/>
      <point x="81" y="410"/>
      <point x="97" y="393"/>
      <point x="132" y="393" type="curve" smooth="yes"/>
      <point x="167" y="393"/>
      <point x="183" y="410"/>
      <point x="183" y="443" type="curve" smooth="yes"/>
      <point x="183" y="477"/>
      <point x="167" y="494"/>
      <point x="132" y="494" type="curve" smooth="yes"/>
      <point x="97" y="494"/>
      <point x="81" y="477"/>
    </contour>
    <contour>
      <point x="81" y="673" type="curve" smooth="yes"/>
      <point x="81" y="640"/>
      <point x="97" y="623"/>
      <point x="132" y="623" type="curve" smooth="yes"/>
      <point x="167" y="623"/>
      <point x="183" y="640"/>
      <point x="183" y="673" type="curve" smooth="yes"/>
      <point x="183" y="706"/>
      <point x="167" y="723"/>
      <point x="132" y="723" type="curve" smooth="yes"/>
      <point x="97" y="723"/>
      <point x="81" y="706"/>
    </contour>
    <contour>
      <point x="36" y="507" type="line"/>
      <point x="228" y="507" type="line"/>
      <point x="228" y="607" type="line"/>
      <point x="36" y="607" type="line"/>
    </contour>
  </outline>
</glyph>
<glyph name="dollar.tosf" format="2">
  <advance width="420"/>
  <outline>
    <contour>
      <point x="208" y="-7" type="curve" smooth="yes"/>
      <point x="320" y="-7"/>
      <point x="386" y="58"/>
      <point x="386" y="171" type="curve" smooth="yes"/>
      <point x="386" y="307"/>
      <point x="311" y="338"/>
      <point x="254" y="353" type="curve" smooth="yes"/>
      <point x="220" y="362"/>
      <point x="193" y="365"/>
      <point x="193" y="380" type="curve" smooth="yes"/>
      <point x="193" y="390"/>
      <point x="201" y="395"/>
      <point x="230" y="395" type="curve" smooth="yes"/>
      <point x="265" y="395"/>
      <point x="306" y="388"/>
      <point x="346" y="375" type="curve"/>
      <point x="368" y="531" type="line"/>
      <point x="329" y="550"/>
      <point x="276" y="560"/>
      <point x="232" y="560" type="curve" smooth="yes"/>
      <point x="104" y="560"/>
      <point x="38" y="495"/>
      <point x="38" y="367" type="curve" smooth="yes"/>
      <point x="38" y="242"/>
      <point x="102" y="209"/>
      <point x="154" y="195" type="curve" smooth="yes"/>
      <point x="191" y="185"/>
      <point x="222" y="185"/>
      <point x="222" y="170" type="curve" smooth="yes"/>
      <point x="222" y="160"/>
      <point x="209" y="152"/>
      <point x="186" y="152" type="curve" smooth="yes"/>
      <point x="149" y="152"/>
      <point x="92" y="161"/>
      <point x="60" y="172" type="curve"/>
      <point x="46" y="21" type="line"/>
      <point x="90" y="-2"/>
      <point x="128" y="-7"/>
    </contour>
    <contour>
      <point x="142" y="-105" type="line"/>
      <point x="303" y="-105" type="line"/>
      <point x="303" y="27" type="line"/>
      <point x="142" y="9" type="line"/>
    </contour>
    <contour>
      <point x="142" y="531" type="line"/>
      <point x="303" y="536" type="line"/>
      <point x="303" y="656" type="line"/>
      <point x="142" y="656" type="line"/>
    </contour>
  </outline>
</glyph>
<glyph name="e.sc" format="2">
  <advance width="360"/>
  <anchor x="342" y="0" name="ogonek"/>
  <anchor x="179" y="625" name="top"/>
  <anchor x="20" y="625" name="topleft"/>
  <anchor x="184" y="0" name="bottom"/>
  <outline>
    <contour>
      <point x="23" y="0" type="line"/>
      <point x="342" y="0" type="line"/>
      <point x="342" y="166" type="line"/>
      <point x="190" y="166" type="line"/>
      <point x="190" y="232" type="line"/>
      <point x="309" y="232" type="line"/>
      <point x="309" y="389" type="line"/>
      <point x="190" y="389" type="line"/>
      <point x="190" y="454" type="line"/>
      <point x="331" y="454" type="line"/>
      <point x="331" y="625" type="line"/>
      <point x="23" y="625" type="line"/>
    </contour>
  </outline>
</glyph>
<glyph name="e.superior" format="2">
  <advance width="268"/>
  <outline>
    <contour>
      <point x="131" y="362" type="curve" smooth="yes"/>
      <point x="179" y="362"/>
      <point x="215" y="370"/>
      <point x="248" y="384" type="curve"/>
      <point x="234" y="476" type="line"/>
      <point x="201" y="467"/>
      <point x="172" y="464"/>
      <point x="166" y="464" type="curve" smooth="yes"/>
      <point x="139" y="464"/>
      <point x="125" y="468"/>
      <point x="125" y="484" type="curve" smooth="yes"/>
      <point x="125" y="486"/>
      <point x="125" y="487"/>
      <point x="125" y="489" type="curve"/>
      <point x="161" y="491"/>
      <point x="229" y="499"/>
      <point x="249" y="502" type="curve"/>
      <point x="250" y="512"/>
      <point x="250" y="531"/>
      <point x="250" y="540" type="curve" smooth="yes"/>
      <point x="250" y="637"/>
      <point x="225" y="689"/>
      <point x="131" y="689" type="curve" smooth="yes"/>
      <point x="46" y="689"/>
      <point x="10" y="630"/>
      <point x="10" y="522" type="curve" smooth="yes"/>
      <point x="10" y="417"/>
      <point x="45" y="362"/>
    </contour>
    <contour>
      <point x="123" y="551" type="curve"/>
      <point x="123" y="603"/>
      <point x="125" y="605"/>
      <point x="131" y="605" type="curve" smooth="yes"/>
      <point x="135" y="605"/>
      <point x="139" y="596"/>
      <point x="139" y="552" type="curve"/>
      <point x="134" y="552"/>
      <point x="128" y="551"/>
    </contour>
  </outline>
</glyph>
<glyph name="eng.sc" format="2">
  <advance width="443"/>
  <outline>
    <contour>
      <point x="23" y="0" type="line"/>
      <point x="169" y="0" type="line"/>
      <point x="169" y="230" type="line"/>
      <point x="258" y="-7" type="line"/>
      <point x="258" y="-20" type="line" smooth="yes"/>
      <point x="258" y="-36"/>
      <point x="243" y="-43"/>
      <point x="222" y="-43" type="curve" smooth="yes"/>
      <point x="207" y="-43"/>
      <point x="185" y="-37"/>
      <point x="173" y="-33" type="curve"/>
      <point x="141" y="-166" type="line"/>
      <point x="171" y="-184"/>
      <point x="207" y="-199"/>
      <point x="266" y="-199" type="curve" smooth="yes"/>
      <point x="363" y="-199"/>
      <point x="420" y="-137"/>
      <point x="420" y="-15" type="curve" smooth="yes"/>
      <point x="420" y="625" type="line"/>
      <point x="274" y="625" type="line"/>
      <point x="274" y="367" type="line"/>
      <point x="200" y="625" type="line"/>
      <point x="23" y="625" type="line"/>
    </contour>
  </outline>
</glyph>
<glyph name="eurosuperior" format="2">
  <advance width="265"/>
  <outline>
    <contour>
      <point x="50" y="567" type="curve" smooth="yes"/>
      <point x="50" y="425"/>
      <point x="82" y="364"/>
      <point x="165" y="364" type="curve" smooth="yes"/>
      <point x="190" y="364"/>
      <point x="211" y="365"/>
      <point x="241" y="380" type="curve"/>
      <point x="224" y="473" type="line"/>
      <point x="200" y="466"/>
      <point x="190" y="463"/>
      <point x="176" y="463" type="curve" smooth="yes"/>
      <point x="152" y="463"/>
      <point x="145" y="494"/>
      <point x="145" y="567" type="curve" smooth="yes"/>
      <point x="145" y="649"/>
      <point x="157" y="674"/>
      <point x="180" y="674" type="curve" smooth="yes"/>
      <point x="193" y="674"/>
      <point x="216" y="670"/>
      <point x="228" y="665" type="curve"/>
      <point x="247" y="758" type="line"/>
      <point x="226" y="769"/>
      <point x="190" y="775"/>
      <point x="169" y="775" type="curve" smooth="yes"/>
      <point x="86" y="775"/>
      <point x="50" y="721"/>
    </contour>
    <contour>
      <point x="218" y="575" type="line"/>
      <point x="218" y="623" type="line"/>
      <point x="18" y="623" type="line"/>
      <point x="18" y="575" type="line"/>
    </contour>
    <contour>
      <point x="218" y="506" type="line"/>
      <point x="218" y="554" type="line"/>
      <point x="18" y="554" type="line"/>
      <point x="18" y="506" type="line"/>
    </contour>
  </outline>
</glyph>
<glyph name="f.sc" format="2">
  <advance width="342"/>
  <outline>
    <contour>
      <point x="23" y="0" type="line"/>
      <point x="191" y="0" type="line"/>
      <point x="191" y="179" type="line"/>
      <point x="308" y="179" type="line"/>
      <point x="308" y="350" type="line"/>
      <point x="189" y="350" type="line"/>
      <point x="189" y="454" type="line"/>
      <point x="331" y="454" type="line"/>
      <point x="331" y="625" type="line"/>
      <point x="23" y="625" type="line"/>
    </contour>
  </outline>
</glyph>
<glyph name="f_f_l.liga" format="2">
  <advance width="749"/>
  <outline>
    <contour>
      <point x="668" y="-10" type="curve" smooth="yes"/>
      <point x="703" y="-10"/>
      <point x="734" y="4"/>
      <point x="750" y="16" type="curve"/>
      <point x="740" y="169" type="line"/>
      <point x="735" y="168"/>
      <point x="729" y="167"/>
      <point x="725" y="167" type="curve" smooth="yes"/>
      <point x="714" y="167"/>
      <point x="706" y="174"/>
      <point x="706" y="204" type="curve" smooth="yes"/>
      <point x="706" y="730" type="line"/>
      <point x="669" y="743"/>
      <point x="614" y="750"/>
      <point x="553" y="750" type="curve" smooth="yes"/>
      <point x="506" y="750"/>
      <point x="464" y="743"/>
      <point x="429" y="730" type="curve"/>
      <point x="382" y="744"/>
      <point x="344" y="750"/>
      <point x="296" y="750" type="curve" smooth="yes"/>
      <point x="146" y="750"/>
      <point x="48" y="665"/>
      <point x="48" y="544" type="curve" smooth="yes"/>
      <point x="48" y="529" type="line"/>
      <point x="5" y="522" type="line"/>
      <point x="5" y="379" type="line"/>
      <point x="48" y="379" type="line"/>
      <point x="48" y="0" type="line"/>
      <point x="219" y="0" type="line"/>
      <point x="219" y="379" type="line"/>
      <point x="293" y="379" type="line"/>
      <point x="293" y="0" type="line"/>
      <point x="464" y="0" type="line"/>
      <point x="464" y="379" type="line"/>
      <point x="509" y="379" type="line"/>
      <point x="509" y="529" type="line"/>
      <point x="465" y="529" type="line"/>
      <point x="465" y="532" type="line" smooth="yes"/>
      <point x="465" y="572"/>
      <point x="483" y="594"/>
      <point x="515" y="594" type="curve" smooth="yes"/>
      <point x="521" y="594"/>
      <point x="526" y="593"/>
      <point x="531" y="593" type="curve"/>
      <point x="531" y="177" type="line" smooth="yes"/>
      <point x="531" y="45"/>
      <point x="573" y="-10"/>
    </contour>
    <contour>
      <point x="220" y="529" type="line"/>
      <point x="220" y="544" type="line" smooth="yes"/>
      <point x="220" y="578"/>
      <point x="241" y="602"/>
      <point x="282" y="602" type="curve" smooth="yes"/>
      <point x="288" y="602"/>
      <point x="294" y="602"/>
      <point x="301" y="601" type="curve"/>
      <point x="296" y="583"/>
      <point x="293" y="564"/>
      <point x="293" y="544" type="curve" smooth="yes"/>
      <point x="293" y="529" type="line"/>
    </contour>
  </outline>
</glyph>
<glyph name="f_k.liga" format="2">
  <advance width="677"/>
  <outline>
    <contour>
      <point x="621" y="-10" type="curve" smooth="yes"/>
      <point x="636" y="-10"/>
      <point x="650" y="-9"/>
      <point x="666" y="-5" type="curve"/>
      <point x="666" y="183" type="line"/>
      <point x="663" y="183"/>
      <point x="661" y="183"/>
      <point x="658" y="183" type="curve" smooth="yes"/>
      <point x="631" y="183"/>
      <point x="610" y="197"/>
      <point x="555" y="284" type="curve" smooth="yes"/>
      <point x="460" y="434" type="line"/>
      <point x="460" y="730" type="line"/>
      <point x="429" y="742"/>
      <point x="373" y="750"/>
      <point x="308" y="750" type="curve" smooth="yes"/>
      <point x="146" y="750"/>
      <point x="48" y="665"/>
      <point x="48" y="544" type="curve" smooth="yes"/>
      <point x="48" y="529" type="line"/>
      <point x="5" y="522" type="line"/>
      <point x="5" y="379" type="line"/>
      <point x="48" y="379" type="line"/>
      <point x="48" y="0" type="line"/>
      <point x="219" y="0" type="line"/>
      <point x="219" y="379" type="line"/>
      <point x="264" y="379" type="line"/>
      <point x="264" y="529" type="line"/>
      <point x="220" y="529" type="line"/>
      <point x="220" y="532" type="line" smooth="yes"/>
      <point x="220" y="572"/>
      <point x="242" y="594"/>
      <point x="280" y="594" type="curve" smooth="yes"/>
      <point x="286" y="594"/>
      <point x="291" y="593"/>
      <point x="296" y="593" type="curve"/>
      <point x="296" y="0" type="line"/>
      <point x="460" y="0" type="line"/>
      <point x="460" y="152" type="line"/>
      <point x="508" y="69" type="line" smooth="yes"/>
      <point x="542" y="11"/>
      <point x="572" y="-10"/>
    </contour>
    <contour>
      <point x="547" y="212" type="line"/>
      <point x="623" y="323"/>
      <point x="674" y="454"/>
      <point x="680" y="549" type="curve"/>
      <point x="512" y="559" type="line"/>
      <point x="513" y="464"/>
      <point x="493" y="402"/>
      <point x="440" y="326" type="curve"/>
    </contour>
  </outline>
</glyph>
<glyph name="f_t.liga" format="2">
  <advance width="530"/>
  <outline>
    <contour>
      <point x="415" y="-10" type="curve" smooth="yes"/>
      <point x="446" y="-10"/>
      <point x="492" y="-7"/>
      <point x="534" y="15" type="curve"/>
      <point x="508" y="162" type="line"/>
      <point x="492" y="159"/>
      <point x="484" y="159"/>
      <point x="483" y="159" type="curve" smooth="yes"/>
      <point x="470" y="159"/>
      <point x="459" y="166"/>
      <point x="459" y="208" type="curve" smooth="yes"/>
      <point x="459" y="377" type="line"/>
      <point x="513" y="377" type="line"/>
      <point x="513" y="529" type="line"/>
      <point x="459" y="529" type="line"/>
      <point x="459" y="717" type="line"/>
      <point x="413" y="739"/>
      <point x="351" y="750"/>
      <point x="275" y="750" type="curve" smooth="yes"/>
      <point x="142" y="750"/>
      <point x="48" y="662"/>
      <point x="48" y="544" type="curve" smooth="yes"/>
      <point x="48" y="529" type="line"/>
      <point x="5" y="522" type="line"/>
      <point x="5" y="379" type="line"/>
      <point x="48" y="379" type="line"/>
      <point x="48" y="0" type="line"/>
      <point x="219" y="0" type="line"/>
      <point x="219" y="378" type="line"/>
      <point x="284" y="378" type="line"/>
      <point x="284" y="186" type="line" smooth="yes"/>
      <point x="284" y="54"/>
      <point x="329" y="-10"/>
    </contour>
    <contour>
      <point x="220" y="529" type="line"/>
      <point x="220" y="532" type="line" smooth="yes"/>
      <point x="220" y="569"/>
      <point x="240" y="594"/>
      <point x="270" y="594" type="curve" smooth="yes"/>
      <point x="278" y="594"/>
      <point x="287" y="593"/>
      <point x="295" y="591" type="curve"/>
      <point x="284" y="529" type="line"/>
    </contour>
  </outline>
</glyph>
<glyph name="g.superior" format="2">
  <advance width="265"/>
  <outline>
    <contour>
      <point x="123" y="243" type="curve" smooth="yes"/>
      <point x="207" y="243"/>
      <point x="256" y="287"/>
      <point x="256" y="359" type="curve" smooth="yes"/>
      <point x="256" y="415"/>
      <point x="226" y="448"/>
      <point x="166" y="448" type="curve" smooth="yes"/>
      <point x="111" y="448" type="line" smooth="yes"/>
      <point x="98" y="448"/>
      <point x="88" y="451"/>
      <point x="88" y="460" type="curve" smooth="yes"/>
      <point x="88" y="470"/>
      <point x="91" y="474"/>
      <point x="101" y="480" type="curve"/>
      <point x="45" y="492" type="line"/>
      <point x="29" y="479"/>
      <point x="16" y="458"/>
      <point x="16" y="426" type="curve" smooth="yes"/>
      <point x="16" y="386"/>
      <point x="46" y="355"/>
      <point x="92" y="355" type="curve" smooth="yes"/>
      <point x="143" y="355" type="line" smooth="yes"/>
      <point x="154" y="355"/>
      <point x="157" y="353"/>
      <point x="157" y="347" type="curve" smooth="yes"/>
      <point x="157" y="339"/>
      <point x="146" y="334"/>
      <point x="128" y="334" type="curve" smooth="yes"/>
      <point x="94" y="334"/>
      <point x="82" y="338"/>
      <point x="82" y="349" type="curve" smooth="yes"/>
      <point x="82" y="356"/>
      <point x="84" y="359"/>
      <point x="90" y="362" type="curve"/>
      <point x="40" y="382" type="line"/>
      <point x="23" y="376"/>
      <point x="5" y="355"/>
      <point x="5" y="322" type="curve" smooth="yes"/>
      <point x="5" y="270"/>
      <point x="48" y="243"/>
    </contour>
    <contour>
      <point x="123" y="461" type="curve" smooth="yes"/>
      <point x="196" y="461"/>
      <point x="234" y="500"/>
      <point x="234" y="575" type="curve" smooth="yes"/>
      <point x="234" y="650"/>
      <point x="196" y="689"/>
      <point x="123" y="689" type="curve" smooth="yes"/>
      <point x="49" y="689"/>
      <point x="11" y="650"/>
      <point x="11" y="575" type="curve" smooth="yes"/>
      <point x="11" y="500"/>
      <point x="49" y="461"/>
    </contour>
    <contour>
      <point x="123" y="533" type="curve" smooth="yes"/>
      <point x="116" y="533"/>
      <point x="114" y="539"/>
      <point x="114" y="575" type="curve" smooth="yes"/>
      <point x="114" y="610"/>
      <point x="116" y="617"/>
      <point x="123" y="617" type="curve" smooth="yes"/>
      <point x="129" y="617"/>
      <point x="131" y="610"/>
      <point x="131" y="575" type="curve" smooth="yes"/>
      <point x="131" y="539"/>
      <point x="129" y="533"/>
    </contour>
    <contour>
      <point x="210" y="594" type="line"/>
      <point x="216" y="603"/>
      <point x="224" y="609"/>
      <point x="235" y="609" type="curve" smooth="yes"/>
      <point x="242" y="609"/>
      <point x="248" y="608"/>
      <point x="254" y="606" type="curve"/>
      <point x="271" y="697" type="line"/>
      <point x="262" y="702"/>
      <point x="247" y="706"/>
      <point x="235" y="706" type="curve" smooth="yes"/>
      <point x="210" y="706"/>
      <point x="190" y="693"/>
      <point x="175" y="669" type="curve"/>
    </contour>
  </outline>
</glyph>
<glyph name="h.sc" format="2">
  <advance width="425"/>
  <anchor x="213" y="275" name="center"/>
  <anchor x="213" y="625" name="top"/>
  <anchor x="20" y="625" name="topleft"/>
  <anchor x="213" y="0" name="bottom"/>
  <outline>
    <contour>
      <point x="23" y="0" type="line"/>
      <point x="189" y="0" type="line"/>
      <point x="189" y="201" type="line"/>
      <point x="236" y="201" type="line"/>
      <point x="236" y="0" type="line"/>
      <point x="402" y="0" type="line"/>
      <point x="402" y="625" type="line"/>
      <point x="236" y="625" type="line"/>
      <point x="236" y="374" type="line"/>
      <point x="189" y="374" type="line"/>
      <point x="189" y="625" type="line"/>
      <point x="23" y="625" type="line"/>
    </contour>
  </outline>
</glyph>
<glyph name="j.short" format="2">
  <advance width="221"/>
  <outline>
    <contour>
      <point x="198" y="550" type="line"/>
      <point x="23" y="550" type="line"/>
      <point x="23" y="-14" type="line" smooth="yes"/>
      <point x="23" y="-30"/>
      <point x="13" y="-36"/>
      <point x="3" y="-36" type="curve" smooth="yes"/>
      <point x="2" y="-36"/>
      <point x="-4" y="-36"/>
      <point x="-9" y="-35" type="curve"/>
      <point x="-29" y="-212" type="line"/>
      <point x="-11" y="-217"/>
      <point x="11" y="-220"/>
      <point x="28" y="-220" type="curve" smooth="yes"/>
      <point x="151" y="-220"/>
      <point x="198" y="-153"/>
      <point x="198" y="-5" type="curve" smooth="yes"/>
    </contour>
    <contour>
      <point x="111" y="569" type="curve" smooth="yes"/>
      <point x="175" y="569"/>
      <point x="209" y="606"/>
      <point x="209" y="679" type="curve" smooth="yes"/>
      <point x="209" y="754"/>
      <point x="173" y="790"/>
      <point x="111" y="790" type="curve" smooth="yes"/>
      <point x="48" y="790"/>
      <point x="12" y="754"/>
      <point x="12" y="679" type="curve" smooth="yes"/>
      <point x="12" y="605"/>
      <point x="48" y="569"/>
    </contour>
  </outline>
</glyph>
<glyph name="k.sc" format="2">
  <advance width="455"/>
  <anchor x="228" y="625" name="top"/>
  <anchor x="237" y="0" name="bottom"/>
  <outline>
    <contour>
      <point x="407" y="-9" type="curve" smooth="yes"/>
      <point x="415" y="-9"/>
      <point x="423" y="-9"/>
      <point x="434" y="-7" type="curve"/>
      <point x="434" y="195" type="line"/>
      <point x="431" y="195"/>
      <point x="427" y="195"/>
      <point x="424" y="195" type="curve" smooth="yes"/>
      <point x="407" y="195"/>
      <point x="383" y="210"/>
      <point x="345" y="252" type="curve" smooth="yes"/>
      <point x="190" y="421" type="line"/>
      <point x="190" y="625" type="line"/>
      <point x="23" y="625" type="line"/>
      <point x="23" y="0" type="line"/>
      <point x="190" y="0" type="line"/>
      <point x="190" y="164" type="line"/>
      <point x="284" y="50" type="line" smooth="yes"/>
      <point x="316" y="11"/>
      <point x="354" y="-9"/>
    </contour>
    <contour>
      <point x="276" y="234" type="line"/>
      <point x="372" y="337"/>
      <point x="435" y="449"/>
      <point x="456" y="590" type="curve"/>
      <point x="301" y="625" type="line"/>
      <point x="286" y="518"/>
      <point x="229" y="416"/>
      <point x="186" y="367" type="curve"/>
    </contour>
  </outline>
</glyph>
<glyph name="k.superior" format="2">
  <advance width="274"/>
  <outline>
    <contour>
      <point x="128" y="792" type="line"/>
      <point x="19" y="792" type="line"/>
      <point x="19" y="370" type="line"/>
      <point x="128" y="370" type="line"/>
      <point x="128" y="457" type="line"/>
      <point x="163" y="401"/>
      <point x="178" y="362"/>
      <point x="230" y="362" type="curve" smooth="yes"/>
      <point x="238" y="362"/>
      <point x="247" y="363"/>
      <point x="259" y="366" type="curve"/>
      <point x="259" y="496" type="line"/>
      <point x="256" y="496"/>
      <point x="256" y="496"/>
      <point x="254" y="496" type="curve" smooth="yes"/>
      <point x="240" y="496"/>
      <point x="229" y="503"/>
      <point x="208" y="526" type="curve"/>
      <point x="238" y="574"/>
      <point x="262" y="635"/>
      <point x="268" y="683" type="curve"/>
      <point x="159" y="689" type="line"/>
      <point x="160" y="659"/>
      <point x="157" y="632"/>
      <point x="137" y="602" type="curve"/>
      <point x="128" y="611" type="line"/>
    </contour>
  </outline>
</glyph>
<glyph name="l.superior" format="2">
  <advance width="169"/>
  <outline>
    <contour>
      <point x="129" y="792" type="line"/>
      <point x="19" y="792" type="line"/>
      <point x="19" y="469" type="line" smooth="yes"/>
      <point x="19" y="394"/>
      <point x="45" y="362"/>
      <point x="105" y="362" type="curve" smooth="yes"/>
      <point x="127" y="362"/>
      <point x="147" y="370"/>
      <point x="157" y="377" type="curve"/>
      <point x="151" y="476" type="line"/>
      <point x="148" y="475"/>
      <point x="143" y="475"/>
      <point x="141" y="475" type="curve" smooth="yes"/>
      <point x="135" y="475"/>
      <point x="129" y="479"/>
      <point x="129" y="496" type="curve" smooth="yes"/>
    </contour>
  </outline>
</glyph>
<glyph name="numbersign.tosf" format="2">
  <advance width="420"/>
  <outline>
    <contour>
      <point x="26" y="72" type="line"/>
      <point x="59" y="72" type="line"/>
      <point x="54" y="0" type="line"/>
      <point x="176" y="0" type="line"/>
      <point x="181" y="72" type="line"/>
      <point x="209" y="72" type="line"/>
      <point x="204" y="0" type="line"/>
      <point x="326" y="0" type="line"/>
      <point x="331" y="72" type="line"/>
      <point x="384" y="72" type="line"/>
      <point x="384" y="231" type="line"/>
      <point x="342" y="231" type="line"/>
      <point x="347" y="301" type="line"/>
      <point x="394" y="301" type="line"/>
      <point x="394" y="462" type="line"/>
      <point x="359" y="462" type="line"/>
      <point x="365" y="551" type="line"/>
      <point x="243" y="551" type="line"/>
      <point x="237" y="462" type="line"/>
      <point x="209" y="462" type="line"/>
      <point x="215" y="551" type="line"/>
      <point x="93" y="551" type="line"/>
      <point x="87" y="462" type="line"/>
      <point x="36" y="462" type="line"/>
      <point x="36" y="301" type="line"/>
      <point x="75" y="301" type="line"/>
      <point x="70" y="231" type="line"/>
      <point x="26" y="231" type="line"/>
    </contour>
    <contour>
      <point x="192" y="231" type="line"/>
      <point x="197" y="301" type="line"/>
      <point x="225" y="301" type="line"/>
      <point x="220" y="231" type="line"/>
    </contour>
  </outline>
</glyph>
<glyph name="o.superior" format="2">
  <advance width="269"/>
  <outline>
    <contour>
      <point x="10" y="527" type="curve" smooth="yes"/>
      <point x="10" y="438"/>
      <point x="29" y="362"/>
      <point x="134" y="362" type="curve" smooth="yes"/>
      <point x="239" y="362"/>
      <point x="259" y="438"/>
      <point x="259" y="527" type="curve" smooth="yes"/>
      <point x="259" y="617"/>
      <point x="239" y="689"/>
      <point x="134" y="689" type="curve" smooth="yes"/>
      <point x="29" y="689"/>
      <point x="10" y="617"/>
    </contour>
    <contour>
      <point x="126" y="527" type="curve" smooth="yes"/>
      <point x="126" y="589"/>
      <point x="126" y="593"/>
      <point x="134" y="593" type="curve" smooth="yes"/>
      <point x="141" y="593"/>
      <point x="143" y="589"/>
      <point x="143" y="527" type="curve" smooth="yes"/>
      <point x="143" y="465"/>
      <point x="141" y="459"/>
      <point x="134" y="459" type="curve" smooth="yes"/>
      <point x="126" y="459"/>
      <point x="126" y="465"/>
    </contour>
  </outline>
</glyph>
<glyph name="one.tosf" format="2">
  <advance width="420"/>
  <outline>
    <contour>
      <point x="46" y="0" type="line"/>
      <point x="373" y="0" type="line"/>
      <point x="373" y="160" type="line"/>
      <point x="303" y="160" type="line"/>
      <point x="303" y="390" type="line"/>
      <point x="373" y="390" type="line"/>
      <point x="373" y="550" type="line"/>
      <point x="46" y="550" type="line"/>
      <point x="46" y="390" type="line"/>
      <point x="127" y="390" type="line"/>
      <point x="127" y="160" type="line"/>
      <point x="46" y="160" type="line"/>
    </contour>
  </outline>
</glyph>
<glyph name="oslash.sc" format="2">
  <advance width="421"/>
  <anchor x="211" y="625" name="top"/>
  <anchor x="211" y="0" name="bottom"/>
  <outline>
    <contour>
      <point x="88" y="-9" type="line"/>
      <point x="398" y="643" type="line"/>
      <point x="334" y="643" type="line"/>
      <point x="23" y="-9" type="line"/>
    </contour>
    <contour>
      <point x="211" y="141" type="curve" smooth="yes"/>
      <point x="179" y="141"/>
      <point x="177" y="163"/>
      <point x="177" y="312" type="curve" smooth="yes"/>
      <point x="177" y="460"/>
      <point x="180" y="484"/>
      <point x="211" y="484" type="curve" smooth="yes"/>
      <point x="244" y="484"/>
      <point x="245" y="458"/>
      <point x="245" y="314" type="curve" smooth="yes"/>
      <point x="245" y="169"/>
      <point x="243" y="141"/>
    </contour>
    <contour>
      <point x="210" y="-9" type="curve" smooth="yes"/>
      <point x="348" y="-9"/>
      <point x="407" y="70"/>
      <point x="407" y="314" type="curve" smooth="yes"/>
      <point x="407" y="557"/>
      <point x="349" y="634"/>
      <point x="211" y="634" type="curve" smooth="yes"/>
      <point x="74" y="634"/>
      <point x="14" y="556"/>
      <point x="14" y="311" type="curve" smooth="yes"/>
      <point x="14" y="67"/>
      <point x="73" y="-9"/>
    </contour>
  </outline>
</glyph>
<glyph name="p.sc" format="2">
  <advance width="427"/>
  <outline>
    <contour>
      <point x="23" y="0" type="line"/>
      <point x="190" y="0" type="line"/>
      <point x="190" y="134" type="line"/>
      <point x="216" y="130"/>
      <point x="223" y="130"/>
      <point x="243" y="130" type="curve" smooth="yes"/>
      <point x="362" y="130"/>
      <point x="415" y="216"/>
      <point x="415" y="388" type="curve" smooth="yes"/>
      <point x="415" y="552"/>
      <point x="362" y="634"/>
      <point x="205" y="634" type="curve" smooth="yes"/>
      <point x="179" y="634"/>
      <point x="115" y="633"/>
      <point x="23" y="627" type="curve"/>
    </contour>
    <contour>
      <point x="191" y="474" type="line"/>
      <point x="202" y="477"/>
      <point x="212" y="477"/>
      <point x="217" y="477" type="curve" smooth="yes"/>
      <point x="241" y="477"/>
      <point x="248" y="451"/>
      <point x="248" y="399" type="curve" smooth="yes"/>
      <point x="248" y="345"/>
      <point x="244" y="294"/>
      <point x="212" y="294" type="curve" smooth="yes"/>
      <point x="204" y="294"/>
      <point x="199" y="294"/>
      <point x="191" y="295" type="curve"/>
    </contour>
  </outline>
</glyph>
<glyph name="parenleft.sc" format="2">
  <advance width="239"/>
  <outline>
    <contour>
      <point x="14" y="312" type="curve" smooth="yes"/>
      <point x="14" y="63"/>
      <point x="74" y="-94"/>
      <point x="231" y="-115" type="curve"/>
      <point x="231" y="33" type="line"/>
      <point x="178" y="63"/>
      <point x="164" y="97"/>
      <point x="164" y="312" type="curve" smooth="yes"/>
      <point x="164" y="528"/>
      <point x="178" y="562"/>
      <point x="231" y="592" type="curve"/>
      <point x="231" y="740" type="line"/>
      <point x="74" y="719"/>
      <point x="14" y="562"/>
    </contour>
  </outline>
</glyph>
